<?xml version="1.0" encoding="utf-8" standalone="no"?>
<!DOCTYPE svg PUBLIC "-//W3C//DTD SVG 1.1//EN"
  "http://www.w3.org/Graphics/SVG/1.1/DTD/svg11.dtd">
<svg xmlns:xlink="http://www.w3.org/1999/xlink" width="504pt" height="187.2pt" viewBox="0 0 504 187.2" xmlns="http://www.w3.org/2000/svg" version="1.1">
 <metadata>
  <rdf:RDF xmlns:dc="http://purl.org/dc/elements/1.1/" xmlns:cc="http://creativecommons.org/ns#" xmlns:rdf="http://www.w3.org/1999/02/22-rdf-syntax-ns#">
   <cc:Work>
    <dc:type rdf:resource="http://purl.org/dc/dcmitype/StillImage"/>
    <dc:format>image/svg+xml</dc:format>
    <dc:creator>
     <cc:Agent>
      <dc:title>py/tools/render_final_training_dynamics.py</dc:title>
     </cc:Agent>
    </dc:creator>
   </cc:Work>
  </rdf:RDF>
 </metadata>
 <defs>
  <style type="text/css">*{stroke-linejoin: round; stroke-linecap: butt}</style>
 </defs>
 <g id="figure_1">
  <g id="patch_1">
   <path d="M 0 187.2
L 504 187.2
L 504 0
L 0 0
z
" style="fill: #ffffff"/>
  </g>
  <g id="axes_1">
   <g id="patch_2">
    <path d="M 35.28 134.784
L 224.537143 134.784
L 224.537143 22.464
L 35.28 22.464
z
" style="fill: #ffffff"/>
   </g>
   <g id="matplotlib.axis_1">
    <g id="xtick_1">
     <g id="line2d_1"/>
     <g id="text_1">
      <!-- 0 -->
      <g transform="translate(32.988984 145.972232) scale(0.085 -0.085)">
       <defs>
        <path id="SegoeUI-13" d="M 3188 2259
Q 3188 1697 3086 1262
Q 2984 828 2792 529
Q 2600 231 2320 76
Q 2041 -78 1684 -78
Q 1347 -78 1083 70
Q 819 219 637 503
Q 456 788 362 1202
Q 269 1616 269 2150
Q 269 2738 367 3188
Q 466 3638 656 3942
Q 847 4247 1130 4401
Q 1413 4556 1778 4556
Q 3188 4556 3188 2259
z
M 2663 2209
Q 2663 4122 1753 4122
Q 794 4122 794 2175
Q 794 359 1734 359
Q 2663 359 2663 2209
z
" transform="scale(0.015625)"/>
       </defs>
       <use xlink:href="#SegoeUI-13"/>
      </g>
     </g>
    </g>
    <g id="xtick_2">
     <g id="line2d_2"/>
     <g id="text_2">
      <!-- 200 -->
      <g transform="translate(121.066509 145.972232) scale(0.085 -0.085)">
       <defs>
        <path id="SegoeUI-15" d="M 2413 3306
Q 2413 3513 2348 3666
Q 2284 3819 2173 3920
Q 2063 4022 1913 4072
Q 1763 4122 1588 4122
Q 1438 4122 1294 4081
Q 1150 4041 1014 3969
Q 878 3897 751 3797
Q 625 3697 516 3575
L 516 4125
Q 731 4334 998 4445
Q 1266 4556 1650 4556
Q 1925 4556 2159 4476
Q 2394 4397 2566 4244
Q 2738 4091 2836 3866
Q 2934 3641 2934 3350
Q 2934 3084 2873 2868
Q 2813 2653 2689 2462
Q 2566 2272 2378 2097
Q 2191 1922 1938 1741
Q 1622 1516 1417 1356
Q 1213 1197 1092 1058
Q 972 919 923 780
Q 875 641 875 459
L 3106 459
L 3106 0
L 341 0
L 341 222
Q 341 509 403 728
Q 466 947 609 1144
Q 753 1341 986 1537
Q 1219 1734 1556 1981
Q 1800 2156 1964 2315
Q 2128 2475 2228 2634
Q 2328 2794 2370 2958
Q 2413 3122 2413 3306
z
" transform="scale(0.015625)"/>
       </defs>
       <use xlink:href="#SegoeUI-15"/>
       <use xlink:href="#SegoeUI-13" transform="translate(53.90625 0)"/>
       <use xlink:href="#SegoeUI-13" transform="translate(107.8125 0)"/>
      </g>
     </g>
    </g>
    <g id="xtick_3">
     <g id="line2d_3"/>
     <g id="text_3">
      <!-- 400 -->
      <g transform="translate(213.726065 145.972232) scale(0.085 -0.085)">
       <defs>
        <path id="SegoeUI-17" d="M 2656 4481
L 2656 1522
L 3231 1522
L 3231 1053
L 2656 1053
L 2656 0
L 2150 0
L 2150 1053
L 44 1053
L 44 1497
Q 338 1828 638 2204
Q 938 2581 1211 2968
Q 1484 3356 1717 3742
Q 1950 4128 2109 4481
L 2656 4481
z
M 622 1522
L 2150 1522
L 2150 3716
Q 1916 3306 1706 2984
Q 1497 2663 1308 2400
Q 1119 2138 947 1925
Q 775 1713 622 1522
z
" transform="scale(0.015625)"/>
       </defs>
       <use xlink:href="#SegoeUI-17"/>
       <use xlink:href="#SegoeUI-13" transform="translate(53.90625 0)"/>
       <use xlink:href="#SegoeUI-13" transform="translate(107.8125 0)"/>
      </g>
     </g>
    </g>
    <g id="text_4">
     <!-- Next-policy loss -->
     <g transform="translate(94.789821 159.164176) scale(0.1 -0.1)">
      <defs>
       <path id="SegoeUI-31" d="M 4200 0
L 3556 0
L 1250 3572
Q 1163 3706 1106 3853
L 1088 3853
Q 1113 3709 1113 3238
L 1113 0
L 588 0
L 588 4481
L 1269 4481
L 3513 966
Q 3653 747 3694 666
L 3706 666
Q 3675 859 3675 1325
L 3675 4481
L 4200 4481
L 4200 0
z
" transform="scale(0.015625)"/>
       <path id="SegoeUI-48" d="M 3091 1472
L 831 1472
Q 844 938 1119 647
Q 1394 356 1875 356
Q 2416 356 2869 713
L 2869 231
Q 2447 -75 1753 -75
Q 1075 -75 687 361
Q 300 797 300 1588
Q 300 2334 723 2804
Q 1147 3275 1775 3275
Q 2403 3275 2747 2869
Q 3091 2463 3091 1741
L 3091 1472
z
M 2566 1906
Q 2563 2350 2352 2597
Q 2141 2844 1766 2844
Q 1403 2844 1150 2584
Q 897 2325 838 1906
L 2566 1906
z
" transform="scale(0.015625)"/>
       <path id="SegoeUI-5b" d="M 2856 3200
L 1781 1581
L 2838 0
L 2241 0
L 1613 1038
Q 1553 1134 1472 1281
L 1459 1281
Q 1444 1253 1313 1038
L 672 0
L 81 0
L 1172 1569
L 128 3200
L 725 3200
L 1344 2106
Q 1413 1984 1478 1856
L 1491 1856
L 2291 3200
L 2856 3200
z
" transform="scale(0.015625)"/>
       <path id="SegoeUI-57" d="M 2003 31
Q 1822 -69 1525 -69
Q 684 -69 684 869
L 684 2763
L 134 2763
L 134 3200
L 684 3200
L 684 3981
L 1197 4147
L 1197 3200
L 2003 3200
L 2003 2763
L 1197 2763
L 1197 959
Q 1197 638 1306 500
Q 1416 363 1669 363
Q 1863 363 2003 469
L 2003 31
z
" transform="scale(0.015625)"/>
       <path id="SegoeUI-10" d="M 2156 1581
L 450 1581
L 450 1984
L 2156 1984
L 2156 1581
z
" transform="scale(0.015625)"/>
       <path id="SegoeUI-53" d="M 1044 463
L 1031 463
L 1031 -1472
L 519 -1472
L 519 3200
L 1031 3200
L 1031 2638
L 1044 2638
Q 1422 3275 2150 3275
Q 2769 3275 3116 2845
Q 3463 2416 3463 1694
Q 3463 891 3072 408
Q 2681 -75 2003 -75
Q 1381 -75 1044 463
z
M 1031 1753
L 1031 1306
Q 1031 909 1289 632
Q 1547 356 1944 356
Q 2409 356 2673 712
Q 2938 1069 2938 1703
Q 2938 2238 2691 2541
Q 2444 2844 2022 2844
Q 1575 2844 1303 2533
Q 1031 2222 1031 1753
z
" transform="scale(0.015625)"/>
       <path id="SegoeUI-52" d="M 1856 -75
Q 1147 -75 723 373
Q 300 822 300 1563
Q 300 2369 740 2822
Q 1181 3275 1931 3275
Q 2647 3275 3048 2834
Q 3450 2394 3450 1613
Q 3450 847 3017 386
Q 2584 -75 1856 -75
z
M 1894 2844
Q 1400 2844 1112 2508
Q 825 2172 825 1581
Q 825 1013 1115 684
Q 1406 356 1894 356
Q 2391 356 2658 678
Q 2925 1000 2925 1594
Q 2925 2194 2658 2519
Q 2391 2844 1894 2844
z
" transform="scale(0.015625)"/>
       <path id="SegoeUI-4f" d="M 1031 0
L 519 0
L 519 4738
L 1031 4738
L 1031 0
z
" transform="scale(0.015625)"/>
       <path id="SegoeUI-4c" d="M 781 4013
Q 644 4013 547 4106
Q 450 4200 450 4344
Q 450 4488 547 4583
Q 644 4678 781 4678
Q 922 4678 1020 4583
Q 1119 4488 1119 4344
Q 1119 4206 1020 4109
Q 922 4013 781 4013
z
M 1031 0
L 519 0
L 519 3200
L 1031 3200
L 1031 0
z
" transform="scale(0.015625)"/>
       <path id="SegoeUI-46" d="M 2700 147
Q 2331 -75 1825 -75
Q 1141 -75 720 370
Q 300 816 300 1525
Q 300 2316 753 2795
Q 1206 3275 1963 3275
Q 2384 3275 2706 3119
L 2706 2594
Q 2350 2844 1944 2844
Q 1453 2844 1139 2492
Q 825 2141 825 1569
Q 825 1006 1120 681
Q 1416 356 1913 356
Q 2331 356 2700 634
L 2700 147
z
" transform="scale(0.015625)"/>
       <path id="SegoeUI-5c" d="M 3066 3200
L 1594 -513
Q 1200 -1506 488 -1506
Q 288 -1506 153 -1466
L 153 -1006
Q 319 -1063 456 -1063
Q 844 -1063 1038 -600
L 1294 6
L 44 3200
L 613 3200
L 1478 738
Q 1494 691 1544 494
L 1563 494
Q 1578 569 1625 731
L 2534 3200
L 3066 3200
z
" transform="scale(0.015625)"/>
       <path id="SegoeUI-3" transform="scale(0.015625)"/>
       <path id="SegoeUI-56" d="M 325 116
L 325 666
Q 744 356 1247 356
Q 1922 356 1922 806
Q 1922 934 1864 1023
Q 1806 1113 1707 1181
Q 1609 1250 1476 1304
Q 1344 1359 1191 1419
Q 978 1503 817 1589
Q 656 1675 548 1783
Q 441 1891 386 2028
Q 331 2166 331 2350
Q 331 2575 434 2748
Q 538 2922 709 3039
Q 881 3156 1101 3215
Q 1322 3275 1556 3275
Q 1972 3275 2300 3131
L 2300 2613
Q 1947 2844 1488 2844
Q 1344 2844 1228 2811
Q 1113 2778 1030 2718
Q 947 2659 901 2576
Q 856 2494 856 2394
Q 856 2269 901 2184
Q 947 2100 1034 2034
Q 1122 1969 1247 1916
Q 1372 1863 1531 1800
Q 1744 1719 1912 1633
Q 2081 1547 2200 1439
Q 2319 1331 2383 1190
Q 2447 1050 2447 856
Q 2447 619 2342 444
Q 2238 269 2063 153
Q 1888 38 1659 -18
Q 1431 -75 1181 -75
Q 688 -75 325 116
z
" transform="scale(0.015625)"/>
      </defs>
      <use xlink:href="#SegoeUI-31"/>
      <use xlink:href="#SegoeUI-48" transform="translate(74.8125 0)"/>
      <use xlink:href="#SegoeUI-5b" transform="translate(127.109375 0)"/>
      <use xlink:href="#SegoeUI-57" transform="translate(173.015625 0)"/>
      <use xlink:href="#SegoeUI-10" transform="translate(206.90625 0)"/>
      <use xlink:href="#SegoeUI-53" transform="translate(246.890625 0)"/>
      <use xlink:href="#SegoeUI-52" transform="translate(305.6875 0)"/>
      <use xlink:href="#SegoeUI-4f" transform="translate(364.28125 0)"/>
      <use xlink:href="#SegoeUI-4c" transform="translate(388.5 0)"/>
      <use xlink:href="#SegoeUI-46" transform="translate(412.71875 0)"/>
      <use xlink:href="#SegoeUI-5c" transform="translate(458.90625 0)"/>
      <use xlink:href="#SegoeUI-3" transform="translate(507.296875 0)"/>
      <use xlink:href="#SegoeUI-4f" transform="translate(534.6875 0)"/>
      <use xlink:href="#SegoeUI-52" transform="translate(558.90625 0)"/>
      <use xlink:href="#SegoeUI-56" transform="translate(617.5 0)"/>
      <use xlink:href="#SegoeUI-56" transform="translate(659.9375 0)"/>
     </g>
    </g>
   </g>
   <g id="matplotlib.axis_2">
    <g id="ytick_1">
     <g id="line2d_4">
      <path d="M 35.28 133.742447
L 224.537143 133.742447
" clip-path="url(#p5a214992ab)" style="fill: none; stroke: #c9d3dc; stroke-width: 0.7; stroke-linecap: square"/>
     </g>
     <g id="line2d_5"/>
     <g id="text_5">
      <!-- 2.0 -->
      <g transform="translate(19.2725 136.836563) scale(0.085 -0.085)">
       <defs>
        <path id="SegoeUI-11" d="M 697 -69
Q 553 -69 451 34
Q 350 138 350 281
Q 350 425 451 529
Q 553 634 697 634
Q 844 634 947 529
Q 1050 425 1050 281
Q 1050 138 947 34
Q 844 -69 697 -69
z
" transform="scale(0.015625)"/>
       </defs>
       <use xlink:href="#SegoeUI-15"/>
       <use xlink:href="#SegoeUI-11" transform="translate(53.90625 0)"/>
       <use xlink:href="#SegoeUI-13" transform="translate(75.59375 0)"/>
      </g>
     </g>
    </g>
    <g id="ytick_2">
     <g id="line2d_6">
      <path d="M 35.28 107.725538
L 224.537143 107.725538
" clip-path="url(#p5a214992ab)" style="fill: none; stroke: #c9d3dc; stroke-width: 0.7; stroke-linecap: square"/>
     </g>
     <g id="line2d_7"/>
     <g id="text_6">
      <!-- 2.2 -->
      <g transform="translate(19.2725 110.819654) scale(0.085 -0.085)">
       <use xlink:href="#SegoeUI-15"/>
       <use xlink:href="#SegoeUI-11" transform="translate(53.90625 0)"/>
       <use xlink:href="#SegoeUI-15" transform="translate(75.59375 0)"/>
      </g>
     </g>
    </g>
    <g id="ytick_3">
     <g id="line2d_8">
      <path d="M 35.28 81.708629
L 224.537143 81.708629
" clip-path="url(#p5a214992ab)" style="fill: none; stroke: #c9d3dc; stroke-width: 0.7; stroke-linecap: square"/>
     </g>
     <g id="line2d_9"/>
     <g id="text_7">
      <!-- 2.4 -->
      <g transform="translate(19.2725 84.802745) scale(0.085 -0.085)">
       <use xlink:href="#SegoeUI-15"/>
       <use xlink:href="#SegoeUI-11" transform="translate(53.90625 0)"/>
       <use xlink:href="#SegoeUI-17" transform="translate(75.59375 0)"/>
      </g>
     </g>
    </g>
    <g id="ytick_4">
     <g id="line2d_10">
      <path d="M 35.28 55.69172
L 224.537143 55.69172
" clip-path="url(#p5a214992ab)" style="fill: none; stroke: #c9d3dc; stroke-width: 0.7; stroke-linecap: square"/>
     </g>
     <g id="line2d_11"/>
     <g id="text_8">
      <!-- 2.6 -->
      <g transform="translate(19.2725 58.785836) scale(0.085 -0.085)">
       <defs>
        <path id="SegoeUI-19" d="M 3194 1422
Q 3194 1094 3087 819
Q 2981 544 2793 344
Q 2606 144 2347 33
Q 2088 -78 1784 -78
Q 1447 -78 1180 62
Q 913 203 727 467
Q 541 731 444 1112
Q 347 1494 347 1972
Q 347 2556 476 3032
Q 606 3509 845 3848
Q 1084 4188 1421 4372
Q 1759 4556 2175 4556
Q 2638 4556 2919 4428
L 2919 3944
Q 2572 4122 2188 4122
Q 1888 4122 1647 3987
Q 1406 3853 1234 3608
Q 1063 3363 970 3016
Q 878 2669 878 2244
L 891 2244
Q 1200 2803 1913 2803
Q 2206 2803 2442 2703
Q 2678 2603 2845 2420
Q 3013 2238 3103 1984
Q 3194 1731 3194 1422
z
M 2669 1356
Q 2669 1591 2609 1778
Q 2550 1966 2439 2097
Q 2328 2228 2165 2298
Q 2003 2369 1797 2369
Q 1606 2369 1443 2297
Q 1281 2225 1162 2101
Q 1044 1978 976 1814
Q 909 1650 909 1466
Q 909 1234 975 1032
Q 1041 831 1159 681
Q 1278 531 1442 445
Q 1606 359 1806 359
Q 2000 359 2159 432
Q 2319 506 2431 637
Q 2544 769 2606 951
Q 2669 1134 2669 1356
z
" transform="scale(0.015625)"/>
       </defs>
       <use xlink:href="#SegoeUI-15"/>
       <use xlink:href="#SegoeUI-11" transform="translate(53.90625 0)"/>
       <use xlink:href="#SegoeUI-19" transform="translate(75.59375 0)"/>
      </g>
     </g>
    </g>
    <g id="ytick_5">
     <g id="line2d_12">
      <path d="M 35.28 29.674811
L 224.537143 29.674811
" clip-path="url(#p5a214992ab)" style="fill: none; stroke: #c9d3dc; stroke-width: 0.7; stroke-linecap: square"/>
     </g>
     <g id="line2d_13"/>
     <g id="text_9">
      <!-- 2.8 -->
      <g transform="translate(19.2725 32.768927) scale(0.085 -0.085)">
       <defs>
        <path id="SegoeUI-1b" d="M 281 1250
Q 281 1428 337 1608
Q 394 1788 498 1944
Q 603 2100 758 2228
Q 913 2356 1109 2431
Q 819 2594 647 2848
Q 475 3103 475 3413
Q 475 3659 570 3868
Q 666 4078 834 4231
Q 1003 4384 1234 4470
Q 1466 4556 1734 4556
Q 2006 4556 2237 4468
Q 2469 4381 2637 4228
Q 2806 4075 2900 3865
Q 2994 3656 2994 3413
Q 2994 3103 2822 2848
Q 2650 2594 2366 2431
Q 2559 2356 2712 2228
Q 2866 2100 2970 1944
Q 3075 1788 3131 1608
Q 3188 1428 3188 1250
Q 3188 956 3081 712
Q 2975 469 2783 295
Q 2591 122 2323 25
Q 2056 -72 1734 -72
Q 1416 -72 1150 25
Q 884 122 690 295
Q 497 469 389 712
Q 281 956 281 1250
z
M 838 1294
Q 838 1084 902 915
Q 966 747 1083 628
Q 1200 509 1367 445
Q 1534 381 1738 381
Q 1934 381 2100 447
Q 2266 513 2386 631
Q 2506 750 2573 919
Q 2641 1088 2641 1294
Q 2641 1481 2577 1645
Q 2513 1809 2394 1934
Q 2275 2059 2109 2131
Q 1944 2203 1738 2203
Q 1544 2203 1380 2136
Q 1216 2069 1095 1948
Q 975 1828 906 1661
Q 838 1494 838 1294
z
M 997 3372
Q 997 3213 1055 3077
Q 1113 2941 1214 2839
Q 1316 2738 1450 2680
Q 1584 2622 1738 2622
Q 1891 2622 2027 2681
Q 2163 2741 2263 2842
Q 2363 2944 2422 3080
Q 2481 3216 2481 3372
Q 2481 3534 2423 3671
Q 2366 3809 2266 3909
Q 2166 4009 2030 4067
Q 1894 4125 1738 4125
Q 1572 4125 1436 4065
Q 1300 4006 1201 3904
Q 1103 3803 1050 3665
Q 997 3528 997 3372
z
" transform="scale(0.015625)"/>
       </defs>
       <use xlink:href="#SegoeUI-15"/>
       <use xlink:href="#SegoeUI-11" transform="translate(53.90625 0)"/>
       <use xlink:href="#SegoeUI-1b" transform="translate(75.59375 0)"/>
      </g>
     </g>
    </g>
   </g>
   <g id="line2d_14">
    <path d="M 146.471467 134.784
L 146.471467 22.464
" clip-path="url(#p5a214992ab)" style="fill: none; stroke-dasharray: 3.33,1.44; stroke-dashoffset: 0; stroke: #647b88; stroke-width: 0.9"/>
   </g>
   <g id="line2d_15">
    <path d="M 35.511649 102.127339
L 35.743298 129.678545
L 35.974947 124.979435
L 36.669893 83.84673
L 36.901542 77.417781
L 37.596489 45.789554
L 38.291436 41.903149
L 38.754733 34.757764
L 39.218031 30.812028
L 39.912978 27.569455
L 40.376276 29.019324
L 41.071222 30.281369
L 41.53452 31.76675
L 41.997818 33.355874
L 43.387711 38.70074
L 43.61936 39.005706
L 43.851009 40.071367
L 46.399147 46.020706
L 46.630796 47.308059
L 47.325742 49.206554
L 50.105529 58.169455
L 50.337178 58.640443
L 50.800476 60.279346
L 51.032124 60.676022
L 51.263773 61.341595
L 51.495422 61.598581
L 51.727071 62.475922
L 51.95872 62.416808
L 52.190369 62.920547
L 52.422018 62.923617
L 52.653667 63.586957
L 52.885316 63.882743
L 53.116965 63.910129
L 53.348613 64.439454
L 53.580262 64.417124
L 53.811911 65.003485
L 54.506858 65.502944
L 54.738507 66.234299
L 54.970156 66.223009
L 55.433453 67.196464
L 55.665102 67.369897
L 57.054996 69.755693
L 57.518293 70.319414
L 57.749942 70.91477
L 57.981591 71.061562
L 58.444889 72.251064
L 58.676538 72.317373
L 58.908187 72.755609
L 59.139836 72.833393
L 59.603133 73.548682
L 60.066431 74.040946
L 60.761378 75.437687
L 60.993027 75.562459
L 61.224676 75.91038
L 61.456325 76.017194
L 62.151271 77.365305
L 62.38292 77.430373
L 62.614569 77.650732
L 62.846218 78.194324
L 63.309516 78.357151
L 63.541165 78.573105
L 63.772813 78.963051
L 64.004462 79.080597
L 64.236111 79.350144
L 64.46776 79.828141
L 64.699409 79.836887
L 64.931058 79.991805
L 65.394356 80.115708
L 65.857653 80.806309
L 66.5526 81.268582
L 66.784249 80.972082
L 67.015898 81.524142
L 67.247547 81.636166
L 67.479196 81.595103
L 67.942493 82.108456
L 68.174142 81.92699
L 68.405791 82.182116
L 68.63744 82.248704
L 68.869089 82.160157
L 69.100738 82.35679
L 69.332387 82.327884
L 69.564036 82.551313
L 69.795685 82.181216
L 70.027333 82.564091
L 70.258982 82.434388
L 70.490631 82.602549
L 70.72228 82.498185
L 70.953929 82.516639
L 71.185578 82.677294
L 71.417227 82.438544
L 71.648876 82.67869
L 71.880525 82.463263
L 72.112173 82.503148
L 72.343822 82.816829
L 72.575471 82.863072
L 72.80712 83.04125
L 73.038769 82.786373
L 73.270418 82.899421
L 73.502067 82.734392
L 73.733716 82.818535
L 73.965365 83.172194
L 74.197013 82.975251
L 74.428662 83.200634
L 74.660311 83.129208
L 74.89196 82.910679
L 75.586907 83.433988
L 75.818556 83.336199
L 76.050205 83.558201
L 76.281853 83.407719
L 76.513502 83.654595
L 76.745151 83.445991
L 76.9768 83.725091
L 77.671747 83.872751
L 78.135045 84.160535
L 78.366693 84.324261
L 78.829991 84.113579
L 79.06164 84.291758
L 79.293289 84.223929
L 79.524938 84.425524
L 79.756587 84.453251
L 79.988236 84.293557
L 80.451533 84.343397
L 80.683182 84.65069
L 80.914831 84.612015
L 81.14648 84.143198
L 81.378129 84.480916
L 82.536373 84.603672
L 82.768022 84.383096
L 82.999671 84.569214
L 83.23132 84.504084
L 83.462969 84.606029
L 83.694618 84.573029
L 83.926267 84.697863
L 84.157916 84.456011
L 84.389565 84.625227
L 85.084511 84.266791
L 85.779458 84.269272
L 86.011107 84.013495
L 86.242756 84.206654
L 86.474405 84.080518
L 86.706054 84.29976
L 86.937702 84.164722
L 87.169351 84.347274
L 87.401 84.209042
L 87.632649 84.456321
L 87.864298 84.279569
L 88.327596 84.325471
L 89.022542 84.169964
L 89.48584 84.522258
L 89.717489 84.21661
L 89.949138 84.395192
L 90.180787 84.190061
L 90.412436 84.475581
L 90.875734 84.432037
L 91.107382 84.100274
L 91.57068 84.353384
L 91.802329 84.850889
L 92.033978 84.770375
L 92.497276 85.041194
L 92.960574 84.824216
L 93.423871 84.936799
L 93.65552 84.767894
L 94.350467 84.953485
L 94.813765 84.782998
L 95.045414 84.820463
L 95.277062 84.666476
L 95.508711 84.835475
L 95.74036 84.816401
L 95.972009 85.112869
L 96.666956 84.806724
L 97.130254 85.29052
L 97.361902 85.063152
L 97.593551 85.366847
L 97.8252 85.333538
L 98.056849 85.007885
L 98.288498 85.011668
L 98.520147 85.33332
L 98.751796 85.079249
L 98.983445 85.363746
L 99.215094 84.992098
L 99.446742 85.203928
L 99.678391 85.136099
L 100.141689 85.25718
L 100.373338 85.009373
L 100.604987 85.614406
L 100.836636 85.153033
L 101.531582 85.693679
L 101.763231 85.573311
L 101.99488 85.684995
L 102.458178 85.480174
L 102.689827 85.950448
L 102.921476 85.785358
L 103.384774 85.883488
L 103.616422 86.070692
L 103.848071 85.865717
L 104.07972 86.004445
L 104.543018 85.739642
L 105.237965 86.226571
L 105.469614 86.054812
L 105.701262 86.451427
L 105.932911 86.337541
L 106.16456 86.408348
L 106.396209 86.653115
L 106.627858 86.4121
L 107.091156 86.358507
L 107.322805 86.264471
L 108.481049 86.407727
L 108.712698 86.186997
L 108.944347 86.48545
L 109.175996 86.308729
L 109.870942 86.433966
L 110.102591 86.284848
L 111.029187 86.750624
L 111.260836 86.64564
L 111.492485 86.718927
L 111.724134 86.621821
L 112.187431 86.665489
L 112.650729 86.461662
L 112.882378 86.950141
L 113.114027 86.668374
L 114.272271 86.610966
L 114.50392 86.810482
L 114.735569 86.537678
L 114.967218 86.68599
L 115.430516 86.649424
L 115.662165 86.91038
L 115.893814 86.636026
L 116.125462 86.677554
L 116.58876 86.576136
L 116.820409 86.698179
L 117.283707 86.62517
L 117.515356 86.681152
L 117.747005 86.616703
L 117.978654 86.80735
L 118.210303 86.486256
L 118.441951 86.985281
L 118.905249 86.455055
L 119.136898 86.538919
L 119.368547 86.490133
L 120.063494 86.91466
L 120.295143 86.828936
L 120.526791 86.943473
L 120.75844 86.654789
L 120.990089 86.88101
L 121.221738 86.83883
L 121.453387 87.111572
L 121.685036 87.150061
L 121.916685 86.975697
L 122.148334 87.170314
L 123.074929 87.130832
L 123.306578 87.261651
L 123.538227 87.254549
L 123.769876 87.468178
L 124.001525 87.344088
L 124.696471 87.482599
L 124.92812 87.086884
L 125.159769 87.544815
L 125.391418 87.295643
L 125.623067 87.219782
L 126.318014 87.424633
L 126.549663 87.342444
L 126.781311 87.537681
L 127.01296 87.57462
L 127.476258 87.236158
L 127.707907 87.45053
L 127.939556 87.320579
L 128.171205 87.470069
L 128.634503 87.178377
L 128.866151 87.531292
L 129.0978 87.418058
L 129.329449 87.494137
L 129.561098 87.295085
L 129.792747 87.513025
L 130.256045 87.421439
L 130.487694 87.693529
L 130.950991 87.273499
L 131.18264 87.69142
L 131.645938 87.558802
L 131.877587 87.340894
L 132.340885 87.534518
L 132.572534 87.466472
L 133.035831 87.738873
L 133.26748 87.771872
L 133.730778 87.524748
L 133.962427 87.933737
L 134.194076 87.650822
L 134.657374 87.736143
L 134.889023 87.665492
L 135.35232 88.158934
L 135.583969 87.942949
L 135.815618 88.096316
L 136.742214 88.072714
L 137.205511 88.161508
L 137.43716 88.242487
L 137.668809 88.141473
L 138.363756 88.179838
L 138.595405 88.011584
L 138.827054 88.067007
L 139.058703 88.426869
L 139.290351 88.296732
L 139.522 88.539638
L 139.753649 88.253653
L 139.985298 88.554897
L 140.216947 88.344525
L 140.680245 88.547671
L 141.143543 88.106209
L 141.375191 88.4639
L 141.60684 88.514919
L 141.838489 88.426311
L 142.070138 88.549811
L 142.301787 88.417751
L 142.533436 88.578654
L 142.765085 88.421659
L 143.923329 88.483005
L 144.154978 88.404352
L 144.618276 88.649212
L 145.313223 88.540879
L 145.544871 88.706372
L 145.77652 88.555828
L 146.471467 88.578003
L 146.703116 91.730262
L 146.934765 93.036813
L 147.166414 93.339794
L 147.86136 91.38569
L 148.324658 88.958583
L 148.787956 86.906845
L 149.019605 86.622193
L 149.251254 86.094914
L 149.482903 85.961148
L 149.9462 85.337787
L 150.641147 85.178961
L 151.336094 84.775554
L 151.567743 84.860689
L 151.799392 84.752138
L 152.03104 84.806662
L 152.725987 84.554793
L 152.957636 84.593158
L 153.189285 84.279228
L 153.420934 84.185843
L 153.884232 84.320416
L 154.347529 84.231094
L 154.579178 84.220114
L 154.810827 83.872255
L 155.042476 84.138608
L 155.274125 83.977332
L 155.505774 84.046278
L 155.969072 83.736907
L 156.20072 83.960212
L 157.127316 83.573523
L 158.053912 83.598427
L 158.28556 83.978108
L 158.980507 86.219748
L 159.443805 88.75643
L 159.907103 89.906698
L 160.3704 90.789187
L 160.602049 90.767074
L 160.833698 91.120764
L 161.065347 90.942771
L 161.528645 91.29122
L 161.760294 91.501468
L 161.991943 91.446572
L 162.45524 91.970315
L 162.686889 91.636164
L 162.918538 91.947767
L 163.150187 91.899105
L 163.381836 92.068042
L 163.613485 91.927825
L 164.076783 92.16366
L 164.308432 92.345839
L 164.771729 92.227426
L 165.003378 92.37369
L 165.235027 92.307009
L 165.929974 92.700491
L 166.161623 92.560863
L 166.393272 92.789286
L 166.62492 92.761435
L 166.856569 92.859441
L 167.088218 92.662157
L 167.319867 93.206525
L 167.551516 92.791612
L 168.014814 93.222435
L 168.478112 93.118412
L 168.70976 93.408399
L 170.331303 93.549639
L 170.562952 93.815992
L 171.026249 93.596192
L 171.257898 93.917379
L 171.721196 93.965668
L 171.952845 93.685545
L 172.184494 94.110351
L 172.647792 93.837113
L 173.342738 94.289492
L 173.574387 94.032443
L 173.806036 94.209381
L 174.037685 94.126076
L 174.500983 94.435725
L 174.732632 94.183887
L 174.96428 94.142358
L 175.195929 94.268588
L 175.427578 94.137644
L 175.659227 94.491334
L 176.122525 94.212048
L 176.354174 94.365787
L 176.817472 94.443634
L 177.04912 94.286948
L 177.280769 94.36219
L 177.512418 94.248583
L 177.975716 94.583882
L 178.207365 94.31911
L 178.670663 94.54257
L 178.902312 94.463887
L 179.13396 94.177994
L 179.365609 94.311822
L 179.597258 94.310861
L 179.828907 94.608104
L 180.060556 94.316877
L 180.292205 94.512828
L 180.523854 94.355336
L 180.755503 94.360515
L 180.987152 94.49028
L 181.2188 94.415814
L 181.450449 94.214374
L 181.913747 94.606057
L 182.145396 94.330679
L 182.377045 94.467484
L 182.608694 94.32094
L 183.071992 94.602863
L 183.766938 94.347799
L 183.998587 94.536833
L 184.230236 94.457932
L 184.461885 94.227959
L 184.693534 94.428003
L 184.925183 94.467887
L 185.156832 94.671281
L 185.388481 94.450674
L 185.620129 94.388676
L 185.851778 94.941945
L 186.083427 94.863416
L 186.315076 94.598583
L 186.778374 94.849739
L 187.473321 94.73697
L 187.704969 94.461064
L 187.936618 94.64312
L 188.168267 94.637041
L 188.399916 94.926438
L 188.631565 94.760696
L 188.863214 94.830417
L 189.094863 95.050124
L 189.558161 94.594241
L 190.021458 94.911582
L 190.484756 95.140904
L 190.716405 94.757346
L 190.948054 95.152844
L 191.179703 94.77183
L 191.411352 95.094041
L 191.643001 94.982326
L 192.106298 95.439605
L 192.337947 95.035671
L 192.569596 95.050186
L 192.801245 94.837457
L 193.032894 94.96502
L 193.727841 94.86782
L 193.959489 95.066562
L 194.654436 94.868192
L 195.117734 95.022397
L 195.349383 94.801015
L 195.812681 95.071679
L 196.044329 95.008037
L 196.507627 95.230505
L 196.739276 95.094103
L 196.970925 95.143385
L 197.202574 95.062592
L 197.434223 95.189752
L 197.665872 95.078099
L 198.129169 95.290549
L 198.360818 95.140966
L 198.592467 95.317004
L 198.824116 95.149122
L 199.055765 95.402605
L 199.519063 95.313872
L 199.750712 95.514722
L 200.214009 95.452662
L 200.445658 95.582458
L 200.677307 95.404931
L 200.908956 95.509512
L 201.140605 95.864163
L 201.372254 95.552684
L 201.603903 95.694514
L 202.762147 95.577899
L 203.225445 95.814633
L 203.920392 95.611829
L 204.846987 95.786193
L 205.078636 95.794195
L 205.310285 95.951314
L 206.005232 95.928147
L 206.236881 96.228368
L 206.468529 96.325288
L 206.700178 96.103193
L 207.163476 96.382262
L 207.395125 96.181163
L 207.626774 96.454154
L 207.858423 96.230135
L 208.321721 96.466466
L 208.553369 96.387379
L 208.785018 96.46352
L 209.016667 96.225142
L 209.248316 96.574335
L 209.479965 96.642102
L 209.943263 96.452944
L 210.174912 96.693245
L 210.406561 96.763276
L 210.638209 96.500024
L 210.869858 96.687693
L 211.564805 96.795934
L 211.796454 96.967135
L 212.028103 96.908207
L 212.259752 96.706767
L 212.491401 96.657423
L 212.723049 96.954636
L 213.186347 96.851636
L 213.649645 97.210382
L 213.881294 96.909013
L 214.344592 97.11954
L 214.576241 96.924459
L 215.039538 97.075314
L 215.271187 97.05044
L 215.502836 97.191711
L 215.734485 96.978176
L 215.966134 97.305845
L 217.356027 97.560568
L 217.819325 97.39864
L 218.050974 97.651378
L 218.282623 97.494072
L 218.514272 97.542982
L 218.97757 97.984413
L 219.209218 97.716974
L 219.440867 97.908551
L 219.904165 97.843482
L 220.135814 97.79693
L 220.367463 97.513177
L 220.599112 97.961214
L 221.294058 97.79724
L 221.525707 97.96844
L 222.220654 97.836442
L 222.452303 98.02408
L 222.915601 98.017443
L 223.378898 97.738498
L 223.610547 97.822237
L 223.842196 97.66059
L 224.073845 97.836597
L 224.305494 97.839327
L 224.537143 98.013039
L 224.537143 98.013039
" clip-path="url(#p5a214992ab)" style="fill: none; stroke: #1f5875; stroke-opacity: 0.3; stroke-width: 0.6; stroke-linecap: square"/>
   </g>
   <g id="line2d_16">
    <path d="M 35.511649 106.979869
L 36.669893 84.536023
L 36.901542 79.233177
L 37.596489 56.489396
L 38.291436 41.985662
L 38.754733 36.151201
L 39.44968 31.847757
L 39.912978 30.075855
L 40.144627 29.751685
L 40.376276 29.680377
L 40.607924 29.829656
L 40.839573 30.161393
L 41.302871 31.366391
L 42.461116 35.109413
L 44.082658 40.371847
L 45.7042 44.501539
L 46.862444 47.807859
L 50.800476 59.976387
L 51.727071 61.975296
L 52.885316 63.739808
L 54.506858 65.79725
L 55.665102 67.447335
L 58.444889 71.907941
L 61.687973 76.510949
L 62.614569 77.649976
L 63.772813 78.917358
L 65.626005 80.495811
L 67.710845 81.765613
L 69.100738 82.276555
L 70.72228 82.509652
L 71.417227 82.590237
L 72.343822 82.718389
L 73.038769 82.824884
L 73.965365 82.979579
L 74.660311 83.093183
L 75.818556 83.355964
L 77.903396 83.969393
L 79.293289 84.288879
L 80.451533 84.408971
L 81.841427 84.517059
L 82.999671 84.556868
L 84.157916 84.497472
L 85.547809 84.303772
L 86.242756 84.233442
L 88.790894 84.318529
L 89.48584 84.32747
L 91.107382 84.473712
L 92.960574 84.87581
L 94.350467 84.839346
L 95.74036 84.87971
L 97.361902 85.112719
L 100.141689 85.250165
L 101.531582 85.5063
L 102.689827 85.758716
L 105.701262 86.231297
L 106.859507 86.406174
L 109.870942 86.409357
L 111.260836 86.565589
L 114.040622 86.679877
L 114.967218 86.68228
L 118.905249 86.666936
L 121.453387 86.983617
L 124.464823 87.334155
L 131.877587 87.537241
L 136.047267 88.018444
L 136.973863 88.116219
L 139.290351 88.298965
L 140.680245 88.413724
L 144.849925 88.540123
L 145.313223 88.563339
L 145.77652 89.276544
L 146.471467 90.419973
L 146.934765 90.829128
L 147.166414 90.865742
L 147.629711 90.62386
L 147.86136 90.446059
L 148.324658 89.290512
L 149.251254 86.728612
L 149.714551 85.898138
L 150.409498 85.293754
L 151.104445 84.990781
L 156.432369 83.782445
L 157.127316 83.709885
L 157.590614 83.943989
L 158.053912 84.524102
L 158.748858 86.101687
L 160.3704 90.207765
L 160.833698 90.794784
L 161.528645 91.30563
L 162.918538 91.842952
L 164.076783 92.140388
L 165.929974 92.571834
L 166.856569 92.842383
L 171.489547 93.81368
L 174.500983 94.23962
L 177.280769 94.375605
L 178.207365 94.384365
L 185.156832 94.548472
L 192.106298 95.043244
L 193.959489 94.931902
L 195.581032 95.004217
L 205.773583 95.99399
L 207.626774 96.327609
L 208.321721 96.397259
L 210.174912 96.583197
L 211.333156 96.733023
L 216.892729 97.406634
L 218.97757 97.718931
L 224.073845 97.84494
L 224.537143 97.818381
L 224.537143 97.818381
" clip-path="url(#p5a214992ab)" style="fill: none; stroke: #1f5875; stroke-width: 1.4; stroke-linecap: square"/>
   </g>
   <g id="patch_3">
    <path d="M 35.28 134.784
L 35.28 22.464
" style="fill: none; stroke: #647b88; stroke-width: 0.8; stroke-linejoin: miter; stroke-linecap: square"/>
   </g>
   <g id="patch_4">
    <path d="M 35.28 134.784
L 224.537143 134.784
" style="fill: none; stroke: #647b88; stroke-width: 0.8; stroke-linejoin: miter; stroke-linecap: square"/>
   </g>
  </g>
  <g id="axes_2">
   <g id="patch_5">
    <path d="M 309.702857 134.784
L 498.96 134.784
L 498.96 22.464
L 309.702857 22.464
z
" style="fill: #ffffff"/>
   </g>
   <g id="matplotlib.axis_3">
    <g id="xtick_4">
     <g id="line2d_17"/>
     <g id="text_10">
      <!-- 0 -->
      <g transform="translate(307.411842 145.972232) scale(0.085 -0.085)">
       <use xlink:href="#SegoeUI-13"/>
      </g>
     </g>
    </g>
    <g id="xtick_5">
     <g id="line2d_18"/>
     <g id="text_11">
      <!-- 200 -->
      <g transform="translate(395.489366 145.972232) scale(0.085 -0.085)">
       <use xlink:href="#SegoeUI-15"/>
       <use xlink:href="#SegoeUI-13" transform="translate(53.90625 0)"/>
       <use xlink:href="#SegoeUI-13" transform="translate(107.8125 0)"/>
      </g>
     </g>
    </g>
    <g id="xtick_6">
     <g id="line2d_19"/>
     <g id="text_12">
      <!-- 400 -->
      <g transform="translate(488.148922 145.972232) scale(0.085 -0.085)">
       <use xlink:href="#SegoeUI-17"/>
       <use xlink:href="#SegoeUI-13" transform="translate(53.90625 0)"/>
       <use xlink:href="#SegoeUI-13" transform="translate(107.8125 0)"/>
      </g>
     </g>
    </g>
    <g id="text_13">
     <!-- Remaining-length loss -->
     <g transform="translate(355.118147 159.164176) scale(0.1 -0.1)">
      <defs>
       <path id="SegoeUI-35" d="M 3800 0
L 3175 0
L 2425 1256
Q 2322 1431 2225 1554
Q 2128 1678 2026 1756
Q 1925 1834 1808 1870
Q 1691 1906 1544 1906
L 1113 1906
L 1113 0
L 588 0
L 588 4481
L 1925 4481
Q 2219 4481 2467 4407
Q 2716 4334 2898 4184
Q 3081 4034 3184 3811
Q 3288 3588 3288 3288
Q 3288 3053 3217 2858
Q 3147 2663 3017 2509
Q 2888 2356 2705 2248
Q 2522 2141 2294 2081
L 2294 2069
Q 2406 2019 2489 1955
Q 2572 1891 2647 1803
Q 2722 1716 2795 1605
Q 2869 1494 2959 1347
L 3800 0
z
M 1113 4006
L 1113 2381
L 1825 2381
Q 2022 2381 2189 2440
Q 2356 2500 2478 2611
Q 2600 2722 2669 2883
Q 2738 3044 2738 3244
Q 2738 3603 2505 3804
Q 2272 4006 1831 4006
L 1113 4006
z
" transform="scale(0.015625)"/>
       <path id="SegoeUI-50" d="M 5063 0
L 4550 0
L 4550 1838
Q 4550 2369 4386 2606
Q 4222 2844 3834 2844
Q 3506 2844 3276 2544
Q 3047 2244 3047 1825
L 3047 0
L 2534 0
L 2534 1900
Q 2534 2844 1806 2844
Q 1469 2844 1250 2561
Q 1031 2278 1031 1825
L 1031 0
L 519 0
L 519 3200
L 1031 3200
L 1031 2694
L 1044 2694
Q 1384 3275 2038 3275
Q 2366 3275 2609 3092
Q 2853 2909 2944 2613
Q 3300 3275 4006 3275
Q 5063 3275 5063 1972
L 5063 0
z
" transform="scale(0.015625)"/>
       <path id="SegoeUI-44" d="M 2809 0
L 2297 0
L 2297 500
L 2284 500
Q 1950 -75 1300 -75
Q 822 -75 551 178
Q 281 431 281 850
Q 281 1747 1338 1894
L 2297 2028
Q 2297 2844 1638 2844
Q 1059 2844 594 2450
L 594 2975
Q 1066 3275 1681 3275
Q 2809 3275 2809 2081
L 2809 0
z
M 2297 1619
L 1525 1513
Q 1169 1463 987 1336
Q 806 1209 806 888
Q 806 653 973 504
Q 1141 356 1419 356
Q 1800 356 2048 623
Q 2297 891 2297 1300
L 2297 1619
z
" transform="scale(0.015625)"/>
       <path id="SegoeUI-51" d="M 3175 0
L 2663 0
L 2663 1825
Q 2663 2844 1919 2844
Q 1534 2844 1282 2555
Q 1031 2266 1031 1825
L 1031 0
L 519 0
L 519 3200
L 1031 3200
L 1031 2669
L 1044 2669
Q 1406 3275 2094 3275
Q 2619 3275 2897 2936
Q 3175 2597 3175 1956
L 3175 0
z
" transform="scale(0.015625)"/>
       <path id="SegoeUI-4a" d="M 3250 256
Q 3250 -1506 1563 -1506
Q 969 -1506 525 -1281
L 525 -769
Q 1066 -1069 1556 -1069
Q 2738 -1069 2738 188
L 2738 538
L 2725 538
Q 2359 -75 1625 -75
Q 1028 -75 664 351
Q 300 778 300 1497
Q 300 2313 692 2794
Q 1084 3275 1766 3275
Q 2413 3275 2725 2756
L 2738 2756
L 2738 3200
L 3250 3200
L 3250 256
z
M 2738 1447
L 2738 1919
Q 2738 2300 2480 2572
Q 2222 2844 1838 2844
Q 1363 2844 1094 2498
Q 825 2153 825 1531
Q 825 997 1083 676
Q 1341 356 1766 356
Q 2197 356 2467 662
Q 2738 969 2738 1447
z
" transform="scale(0.015625)"/>
       <path id="SegoeUI-4b" d="M 3175 0
L 2663 0
L 2663 1844
Q 2663 2844 1919 2844
Q 1544 2844 1287 2555
Q 1031 2266 1031 1813
L 1031 0
L 519 0
L 519 4738
L 1031 4738
L 1031 2669
L 1044 2669
Q 1413 3275 2094 3275
Q 3175 3275 3175 1972
L 3175 0
z
" transform="scale(0.015625)"/>
      </defs>
      <use xlink:href="#SegoeUI-35"/>
      <use xlink:href="#SegoeUI-48" transform="translate(56.890625 0)"/>
      <use xlink:href="#SegoeUI-50" transform="translate(109.1875 0)"/>
      <use xlink:href="#SegoeUI-44" transform="translate(195.328125 0)"/>
      <use xlink:href="#SegoeUI-4c" transform="translate(246.203125 0)"/>
      <use xlink:href="#SegoeUI-51" transform="translate(270.421875 0)"/>
      <use xlink:href="#SegoeUI-4c" transform="translate(327.015625 0)"/>
      <use xlink:href="#SegoeUI-51" transform="translate(351.234375 0)"/>
      <use xlink:href="#SegoeUI-4a" transform="translate(407.828125 0)"/>
      <use xlink:href="#SegoeUI-10" transform="translate(466.71875 0)"/>
      <use xlink:href="#SegoeUI-4f" transform="translate(506.703125 0)"/>
      <use xlink:href="#SegoeUI-48" transform="translate(530.921875 0)"/>
      <use xlink:href="#SegoeUI-51" transform="translate(583.21875 0)"/>
      <use xlink:href="#SegoeUI-4a" transform="translate(639.8125 0)"/>
      <use xlink:href="#SegoeUI-57" transform="translate(698.703125 0)"/>
      <use xlink:href="#SegoeUI-4b" transform="translate(732.59375 0)"/>
      <use xlink:href="#SegoeUI-3" transform="translate(789.1875 0)"/>
      <use xlink:href="#SegoeUI-4f" transform="translate(816.578125 0)"/>
      <use xlink:href="#SegoeUI-52" transform="translate(840.796875 0)"/>
      <use xlink:href="#SegoeUI-56" transform="translate(899.390625 0)"/>
      <use xlink:href="#SegoeUI-56" transform="translate(941.828125 0)"/>
     </g>
    </g>
   </g>
   <g id="matplotlib.axis_4">
    <g id="ytick_6">
     <g id="line2d_20">
      <path d="M 309.702857 116.682282
L 498.96 116.682282
" clip-path="url(#p958a8871c1)" style="fill: none; stroke: #c9d3dc; stroke-width: 0.7; stroke-linecap: square"/>
     </g>
     <g id="line2d_21"/>
     <g id="text_14">
      <!-- $\mathdefault{1}$ -->
      <g transform="translate(300.112857 119.776398) scale(0.085 -0.085)">
       <defs>
        <path id="SegoeUI-14" d="M 2263 0
L 1750 0
L 1750 3872
Q 1691 3813 1577 3736
Q 1463 3659 1320 3584
Q 1178 3509 1020 3443
Q 863 3378 713 3341
L 713 3859
Q 881 3906 1070 3986
Q 1259 4066 1442 4164
Q 1625 4263 1787 4370
Q 1950 4478 2069 4581
L 2263 4581
L 2263 0
z
" transform="scale(0.015625)"/>
       </defs>
       <use xlink:href="#SegoeUI-14" transform="translate(0 0.421875)"/>
      </g>
     </g>
    </g>
    <g id="ytick_7">
     <g id="line2d_22">
      <path d="M 309.702857 92.243542
L 498.96 92.243542
" clip-path="url(#p958a8871c1)" style="fill: none; stroke: #c9d3dc; stroke-width: 0.7; stroke-linecap: square"/>
     </g>
     <g id="line2d_23"/>
     <g id="text_15">
      <!-- $\mathdefault{2}$ -->
      <g transform="translate(300.112857 95.337659) scale(0.085 -0.085)">
       <use xlink:href="#SegoeUI-15" transform="translate(0 0.8125)"/>
      </g>
     </g>
    </g>
    <g id="ytick_8">
     <g id="line2d_24">
      <path d="M 309.702857 67.804803
L 498.96 67.804803
" clip-path="url(#p958a8871c1)" style="fill: none; stroke: #c9d3dc; stroke-width: 0.7; stroke-linecap: square"/>
     </g>
     <g id="line2d_25"/>
     <g id="text_16">
      <!-- $\mathdefault{3}$ -->
      <g transform="translate(300.112857 70.898919) scale(0.085 -0.085)">
       <defs>
        <path id="SegoeUI-16" d="M 2978 1269
Q 2978 966 2864 717
Q 2750 469 2542 292
Q 2334 116 2043 19
Q 1753 -78 1403 -78
Q 763 -78 384 166
L 384 716
Q 838 359 1422 359
Q 1656 359 1845 418
Q 2034 478 2170 590
Q 2306 703 2379 862
Q 2453 1022 2453 1222
Q 2453 2100 1203 2100
L 831 2100
L 831 2534
L 1184 2534
Q 2291 2534 2291 3359
Q 2291 4122 1447 4122
Q 972 4122 556 3803
L 556 4300
Q 984 4556 1575 4556
Q 1856 4556 2084 4478
Q 2313 4400 2475 4259
Q 2638 4119 2727 3922
Q 2816 3725 2816 3488
Q 2816 2603 1922 2350
L 1922 2338
Q 2150 2313 2344 2227
Q 2538 2141 2678 2003
Q 2819 1866 2898 1680
Q 2978 1494 2978 1269
z
" transform="scale(0.015625)"/>
       </defs>
       <use xlink:href="#SegoeUI-16" transform="translate(0 0.8125)"/>
      </g>
     </g>
    </g>
    <g id="ytick_9">
     <g id="line2d_26">
      <path d="M 309.702857 43.366064
L 498.96 43.366064
" clip-path="url(#p958a8871c1)" style="fill: none; stroke: #c9d3dc; stroke-width: 0.7; stroke-linecap: square"/>
     </g>
     <g id="line2d_27"/>
     <g id="text_17">
      <!-- $\mathdefault{4}$ -->
      <g transform="translate(300.112857 46.46018) scale(0.085 -0.085)">
       <use xlink:href="#SegoeUI-17" transform="translate(0 0.984375)"/>
      </g>
     </g>
    </g>
    <g id="text_18">
     <!-- $\times\mathdefault{10^{−3}}\mathdefault{}$ -->
     <g transform="translate(309.702857 19.464) scale(0.12 -0.12)">
      <defs>
       <path id="DejaVuSans-99" d="M 4488 3438
L 3059 2003
L 4488 575
L 4116 197
L 2681 1631
L 1247 197
L 878 575
L 2303 2003
L 878 3438
L 1247 3816
L 2681 2381
L 4116 3816
L 4488 3438
z
" transform="scale(0.015625)"/>
       <path id="SegoeUI-ee" d="M 3663 1656
L 725 1656
L 725 2075
L 3663 2075
L 3663 1656
z
" transform="scale(0.015625)"/>
      </defs>
      <use xlink:href="#DejaVuSans-99" transform="translate(0 0.86875)"/>
      <use xlink:href="#SegoeUI-14" transform="translate(83.789062 0.86875)"/>
      <use xlink:href="#SegoeUI-13" transform="translate(137.695312 0.86875)"/>
      <use xlink:href="#SegoeUI-ee" transform="translate(192.558594 42.16875) scale(0.7)"/>
      <use xlink:href="#SegoeUI-16" transform="translate(240.444336 42.16875) scale(0.7)"/>
     </g>
    </g>
   </g>
   <g id="line2d_28">
    <path d="M 420.894324 134.784
L 420.894324 22.464
" clip-path="url(#p958a8871c1)" style="fill: none; stroke-dasharray: 3.33,1.44; stroke-dashoffset: 0; stroke: #647b88; stroke-width: 0.9"/>
   </g>
   <g id="line2d_29">
    <path d="M 309.934506 129.678545
L 310.166155 128.798403
L 310.397804 124.013028
L 310.861102 106.264519
L 311.556048 97.905948
L 311.787697 97.878892
L 312.019346 98.028333
L 312.250995 97.962189
L 312.714293 98.512543
L 312.945942 97.781878
L 313.17759 97.792749
L 313.409239 97.424584
L 313.640888 97.754899
L 313.872537 97.486913
L 315.030782 98.048946
L 315.26243 97.51542
L 315.494079 97.744344
L 315.725728 97.547077
L 315.957377 97.611987
L 316.189026 97.967415
L 316.420675 98.090776
L 316.652324 98.433732
L 317.578919 97.925178
L 318.042217 98.39354
L 318.273866 98.526168
L 318.505515 98.805101
L 318.737164 98.402545
L 319.200462 98.736999
L 319.895408 98.66871
L 320.358706 98.923114
L 320.590355 98.83422
L 321.285302 99.027641
L 321.748599 98.366484
L 322.211897 97.648107
L 322.675195 96.959977
L 322.906844 96.487076
L 323.138493 96.579082
L 323.601791 96.05228
L 323.833439 95.897111
L 324.296737 95.278177
L 325.223333 94.624247
L 325.454982 94.789225
L 325.918279 94.870386
L 326.149928 94.971897
L 326.381577 94.643178
L 326.844875 91.933038
L 327.308173 88.678342
L 328.929715 77.121484
L 329.624662 73.990485
L 330.319608 71.601974
L 331.014555 69.850349
L 331.477853 69.294558
L 331.709502 68.729396
L 331.941151 68.685588
L 332.404448 68.983936
L 332.867746 68.682322
L 333.099395 69.030811
L 333.331044 68.900981
L 333.562693 69.027813
L 333.794342 68.922051
L 334.257639 69.260014
L 334.720937 68.944646
L 334.952586 69.027386
L 335.184235 68.544041
L 335.415884 68.56386
L 335.879182 68.16841
L 336.342479 66.898838
L 337.500724 64.772014
L 338.195671 64.163243
L 338.427319 63.514744
L 338.890617 63.292074
L 339.122266 63.3651
L 339.353915 62.787147
L 339.585564 62.789377
L 339.817213 62.304764
L 340.048862 62.283227
L 340.975457 61.353654
L 341.438755 61.015407
L 341.670404 60.412116
L 342.365351 60.033981
L 343.755244 55.302781
L 344.218542 53.940404
L 345.145137 50.567576
L 346.766679 43.194844
L 346.998328 42.437596
L 347.693275 39.334951
L 348.619871 35.855496
L 348.851519 35.255329
L 349.083168 33.810206
L 349.546466 32.338385
L 350.009764 30.681591
L 350.241413 31.164714
L 350.473062 31.112695
L 350.704711 31.198467
L 350.93636 30.987695
L 351.168008 31.022825
L 351.399657 31.35936
L 351.631306 30.343463
L 351.862955 30.711771
L 352.094604 30.623541
L 352.326253 30.348926
L 352.557902 30.681375
L 352.789551 30.557342
L 353.0212 31.143205
L 353.252848 31.184845
L 353.484497 31.567913
L 353.716146 30.896096
L 354.642742 32.399076
L 354.874391 33.190646
L 355.10604 33.154981
L 355.337688 32.577483
L 355.569337 32.913698
L 355.800986 32.985621
L 356.032635 32.868952
L 356.264284 33.071587
L 356.495933 33.076663
L 356.959231 32.730808
L 357.19088 33.384633
L 357.654177 32.812984
L 357.885826 32.977371
L 358.117475 32.926467
L 358.349124 33.368325
L 358.580773 32.900668
L 358.812422 33.288812
L 359.044071 33.005366
L 359.27572 33.429676
L 359.507368 33.467355
L 359.739017 33.939018
L 359.970666 33.254728
L 360.433964 32.886193
L 360.665613 32.95172
L 360.897262 33.315806
L 361.128911 32.829405
L 361.36056 32.072647
L 361.592208 32.15323
L 362.055506 30.794994
L 362.287155 30.643297
L 362.518804 31.215139
L 362.750453 31.122345
L 363.213751 30.550104
L 363.4454 30.76486
L 363.908697 30.088718
L 364.140346 30.171827
L 364.371995 30.583767
L 364.603644 30.488162
L 364.835293 30.870354
L 365.298591 30.797566
L 365.53024 30.010787
L 365.993537 29.64917
L 366.225186 29.751045
L 366.456835 30.294016
L 366.688484 29.550595
L 366.920133 29.844295
L 367.151782 29.422557
L 367.383431 29.539067
L 367.61508 30.042617
L 367.846728 29.52153
L 368.078377 29.571921
L 368.310026 30.160083
L 368.541675 30.054737
L 368.773324 30.455182
L 369.004973 29.754664
L 369.468271 29.933834
L 369.69992 30.334655
L 369.931568 30.216369
L 370.163217 31.048431
L 370.394866 30.08634
L 371.089813 30.785879
L 371.553111 30.435711
L 371.78476 29.876307
L 372.016408 30.26296
L 372.248057 29.780258
L 372.479706 30.573172
L 373.174653 31.511513
L 373.406302 31.157863
L 373.637951 31.376965
L 373.8696 31.090162
L 374.101248 32.00432
L 374.332897 32.321303
L 374.564546 32.306873
L 374.796195 32.159796
L 375.259493 31.63707
L 375.491142 32.105729
L 375.722791 31.77757
L 375.95444 31.662164
L 376.186088 32.364537
L 376.417737 31.959198
L 376.649386 32.375792
L 376.881035 32.327244
L 377.112684 32.44776
L 377.344333 31.725278
L 377.807631 32.312757
L 378.03928 32.220794
L 378.270928 32.705908
L 378.502577 32.439999
L 379.429173 33.888593
L 379.660822 33.140915
L 379.892471 33.03352
L 380.12412 33.123025
L 380.355768 32.436926
L 380.587417 32.131448
L 380.819066 32.725174
L 381.050715 32.732811
L 381.514013 32.134225
L 381.745662 32.308114
L 382.20896 32.909283
L 382.440608 32.613694
L 382.903906 33.019557
L 383.135555 33.177946
L 383.598853 32.062211
L 383.830502 32.144421
L 384.2938 32.433455
L 384.525449 32.297234
L 384.757097 32.483084
L 384.988746 32.356184
L 385.220395 31.87041
L 385.683693 31.842756
L 385.915342 31.354262
L 386.146991 31.388379
L 386.37864 31.07646
L 386.610289 30.188124
L 387.073586 30.626613
L 387.305235 30.172761
L 387.536884 30.43785
L 388.000182 30.321966
L 388.46348 30.842882
L 388.926777 30.12732
L 389.158426 30.40907
L 389.390075 30.098016
L 389.621724 30.001
L 390.085022 30.12889
L 390.54832 30.50101
L 390.779969 31.17738
L 391.011617 30.875043
L 391.474915 31.096444
L 391.706564 31.192879
L 392.169862 30.574549
L 392.401511 31.10301
L 392.63316 30.324197
L 392.864809 30.608803
L 393.328106 30.580148
L 393.559755 31.024908
L 394.023053 31.197193
L 394.254702 30.926185
L 394.486351 30.884795
L 394.718 30.687281
L 394.949649 30.657294
L 395.181297 30.289931
L 395.412946 30.31507
L 395.644595 30.465072
L 395.876244 30.887652
L 396.107893 31.057478
L 396.571191 30.440013
L 396.80284 30.852157
L 397.034489 30.49235
L 397.266137 30.394037
L 397.497786 30.556352
L 397.729435 30.246561
L 397.961084 30.339036
L 398.192733 30.09434
L 398.424382 30.529962
L 398.88768 29.427143
L 399.119329 29.467747
L 399.350977 29.969795
L 399.814275 29.694998
L 400.045924 30.023043
L 400.277573 29.602989
L 400.740871 29.311623
L 400.97252 29.591393
L 401.435817 29.185804
L 401.667466 29.489472
L 401.899115 29.048251
L 402.130764 29.871118
L 402.362413 29.764998
L 402.594062 29.302951
L 402.825711 29.093305
L 403.05736 29.740542
L 403.289009 29.894914
L 403.520657 29.772349
L 404.678902 30.275535
L 405.373849 30.728409
L 405.605497 30.011754
L 405.837146 30.342302
L 406.068795 30.151559
L 406.300444 30.316822
L 406.532093 29.958859
L 406.995391 29.785368
L 407.22704 30.016943
L 407.458689 29.568291
L 407.921986 29.532626
L 408.385284 29.700244
L 408.616933 28.99745
L 408.848582 29.735648
L 409.080231 29.490189
L 409.543529 29.728513
L 409.775177 29.884854
L 410.006826 29.724177
L 410.238475 29.371699
L 410.470124 29.344602
L 410.701773 29.546293
L 411.165071 29.552439
L 411.39672 29.42176
L 411.628369 29.818245
L 411.860017 29.890896
L 412.091666 29.754323
L 412.554964 30.02178
L 412.786613 29.67193
L 413.249911 30.368124
L 413.48156 29.904883
L 413.713209 30.114983
L 413.944857 29.980288
L 414.176506 29.294518
L 414.408155 29.023454
L 414.871453 29.017161
L 415.334751 29.040012
L 415.5664 28.747781
L 415.798049 28.841405
L 416.029697 28.652164
L 416.261346 29.239939
L 416.492995 29.095775
L 416.724644 29.207858
L 416.956293 29.728752
L 417.187942 29.619798
L 417.65124 30.168561
L 417.882889 30.345808
L 418.114538 29.579876
L 418.346186 29.927017
L 418.577835 29.873439
L 418.809484 29.95466
L 419.272782 29.543756
L 419.504431 30.024363
L 419.967729 29.686167
L 420.199378 29.848858
L 420.662675 29.355812
L 421.125973 31.264575
L 421.357622 31.715764
L 421.589271 31.408067
L 421.82092 32.467425
L 422.052569 32.836404
L 422.284218 32.622946
L 422.515866 32.968096
L 422.747515 33.106342
L 422.979164 33.622478
L 423.210813 33.271958
L 423.442462 33.559569
L 423.674111 33.260464
L 424.137409 33.960413
L 424.369058 34.048837
L 424.600706 34.692431
L 424.832355 34.848761
L 425.064004 35.697244
L 425.295653 35.570059
L 425.527302 35.812696
L 425.758951 35.482659
L 425.9906 35.915447
L 426.222249 35.783027
L 426.453898 35.914537
L 426.685546 35.397843
L 426.917195 35.793565
L 427.148844 35.541631
L 427.380493 35.109947
L 427.843791 35.096291
L 428.07544 34.384028
L 428.307089 34.75979
L 428.770386 34.691452
L 429.233684 35.654579
L 429.465333 35.468297
L 429.696982 35.828924
L 430.16028 35.466681
L 430.391929 35.649413
L 430.623578 35.217581
L 430.855226 35.253405
L 431.086875 35.512441
L 431.318524 35.012703
L 431.550173 35.123717
L 431.781822 34.98794
L 432.013471 34.62258
L 432.24512 35.142062
L 432.476769 35.186069
L 432.940066 33.89904
L 433.171715 33.765459
L 433.403364 34.033143
L 433.635013 33.348489
L 433.866662 33.188871
L 434.098311 33.924861
L 434.32996 33.692307
L 434.561609 33.959024
L 434.793258 33.846759
L 435.024906 33.201822
L 435.256555 33.106638
L 435.488204 32.465934
L 435.719853 32.589011
L 435.951502 32.213476
L 436.4148 32.016656
L 436.646449 32.424624
L 436.878098 31.857209
L 437.573044 32.203792
L 437.804693 32.285114
L 438.267991 31.847035
L 438.731289 32.982355
L 439.657884 32.211951
L 439.889533 31.563486
L 440.352831 31.886911
L 440.816129 31.62874
L 441.047778 31.963169
L 441.742724 31.942571
L 441.974373 31.948785
L 442.206022 32.118247
L 442.437671 32.756106
L 442.66932 32.576504
L 443.132618 32.881049
L 443.364266 32.781404
L 443.595915 33.140483
L 444.059213 32.224356
L 444.290862 32.301229
L 444.75416 31.318152
L 444.985809 31.545574
L 445.217458 31.563691
L 445.449106 31.377671
L 445.912404 31.682352
L 446.144053 32.060117
L 446.375702 32.1435
L 446.607351 32.500223
L 446.839 32.22225
L 447.070649 32.483084
L 447.302298 31.891486
L 447.533946 32.001976
L 447.997244 31.355468
L 448.228893 32.15843
L 448.460542 31.876612
L 448.692191 31.983335
L 448.92384 31.729364
L 449.155489 31.710541
L 449.387138 31.889221
L 449.618787 31.681977
L 449.850435 31.694677
L 450.082084 32.138697
L 450.313733 31.873789
L 451.00868 32.566034
L 451.240329 31.965104
L 451.703627 31.558229
L 451.935275 31.93671
L 452.166924 31.570451
L 452.398573 31.899998
L 452.861871 31.902354
L 453.09352 31.957001
L 453.788467 31.743179
L 454.020115 31.965241
L 454.251764 31.502796
L 454.946711 32.193652
L 455.17836 31.913381
L 455.410009 32.313713
L 455.641658 32.164781
L 455.873307 32.427856
L 456.104955 32.105649
L 456.336604 32.226484
L 456.568253 31.749893
L 456.799902 31.886228
L 457.031551 32.246263
L 457.494849 31.825139
L 457.726498 31.712464
L 458.421444 32.310299
L 459.34804 31.400408
L 459.579689 31.538632
L 459.811338 31.462328
L 460.042987 30.708994
L 460.274635 31.038985
L 460.506284 30.867452
L 460.737933 30.9024
L 460.969582 30.663383
L 461.201231 29.908422
L 461.43288 29.687646
L 461.896178 29.646029
L 462.127827 30.129721
L 462.591124 29.773021
L 462.822773 29.469329
L 463.51772 29.665706
L 463.749369 29.726077
L 463.981018 29.244195
L 464.444315 29.401856
L 464.675964 29.86965
L 464.907613 29.710896
L 465.139262 29.369241
L 465.370911 29.592178
L 465.60256 29.499896
L 465.834209 29.226567
L 466.065858 29.794131
L 466.297507 29.22733
L 466.529155 29.671361
L 467.224102 28.961614
L 467.455751 29.02804
L 467.6874 29.705035
L 467.919049 29.141728
L 468.150698 29.269823
L 468.382347 28.90823
L 468.613995 28.935804
L 468.845644 29.15914
L 469.308942 28.699017
L 469.540591 29.034345
L 469.77224 29.034754
L 470.003889 29.325313
L 470.235538 29.282615
L 470.467187 29.071421
L 470.698835 29.497006
L 470.930484 29.655179
L 471.162133 29.404462
L 471.393782 30.014451
L 471.625431 30.202178
L 471.85708 29.951962
L 472.088729 30.240188
L 472.320378 30.140543
L 472.552027 29.712148
L 472.783675 29.904268
L 473.015324 29.743079
L 473.246973 30.090106
L 473.478622 29.874054
L 473.710271 30.606527
L 473.94192 30.172863
L 474.173569 30.487604
L 474.405218 30.482609
L 474.868515 30.223027
L 475.100164 30.460975
L 475.331813 30.038179
L 475.563462 30.2731
L 475.795111 29.925026
L 476.02676 30.108155
L 476.258409 30.124839
L 476.490058 29.567438
L 476.721707 29.606756
L 476.953355 30.184164
L 477.185004 29.989642
L 477.416653 29.950392
L 477.648302 29.657432
L 477.879951 29.604366
L 478.1116 29.24547
L 478.574898 29.732575
L 478.806547 29.156693
L 479.038195 29.188375
L 479.269844 29.021747
L 479.733142 29.291389
L 479.964791 29.060326
L 480.19644 29.611991
L 480.428089 29.42613
L 480.659738 28.77845
L 481.123035 29.302598
L 481.354684 29.161427
L 481.586333 29.489779
L 481.817982 29.164272
L 482.049631 29.349166
L 482.28128 28.91483
L 482.512929 28.909573
L 482.744578 29.020871
L 482.976227 28.670134
L 483.671173 29.138041
L 483.902822 28.617967
L 484.134471 29.018743
L 484.597769 28.905146
L 485.061067 28.269711
L 485.292716 28.412851
L 485.524364 27.569455
L 485.756013 28.033948
L 485.987662 27.813935
L 486.682609 28.324085
L 486.914258 28.031899
L 487.145907 28.236287
L 487.377556 29.005303
L 487.609204 28.922808
L 487.840853 28.25115
L 488.072502 28.266889
L 488.304151 28.118332
L 488.5358 28.136574
L 488.767449 28.578034
L 488.999098 28.143004
L 489.230747 28.639908
L 489.462396 28.238927
L 489.694044 28.330105
L 489.925693 28.108306
L 490.157342 28.39677
L 490.388991 28.024593
L 490.62064 27.978834
L 491.083938 28.204354
L 491.547236 28.12549
L 491.778884 28.242489
L 492.010533 28.72444
L 492.242182 28.241306
L 492.473831 28.680171
L 492.70548 28.236287
L 492.937129 28.616385
L 493.168778 27.680434
L 493.400427 28.42134
L 493.632076 28.560884
L 493.863724 28.556582
L 494.095373 28.433756
L 494.327022 28.81044
L 494.558671 28.479834
L 494.79032 28.586899
L 495.021969 28.318748
L 495.485267 28.500068
L 495.948564 28.502697
L 496.180213 28.658526
L 496.643511 28.738301
L 496.87516 29.24811
L 497.106809 28.762586
L 497.338458 29.110228
L 497.801756 28.897817
L 498.033404 29.388382
L 498.265053 29.297773
L 498.728351 29.612424
L 498.96 29.390681
L 498.96 29.390681
" clip-path="url(#p958a8871c1)" style="fill: none; stroke: #1f7065; stroke-opacity: 0.3; stroke-width: 0.6; stroke-linecap: square"/>
   </g>
   <g id="line2d_30">
    <path d="M 309.934506 117.777261
L 310.629453 111.440144
L 311.09275 108.99562
L 311.787697 100.997924
L 312.250995 98.650453
L 312.714293 97.886348
L 314.799133 97.709562
L 315.494079 97.86022
L 320.590355 98.791976
L 321.285302 98.511814
L 321.980248 97.91424
L 323.138493 96.539483
L 324.065088 95.601225
L 325.686631 94.445205
L 326.149928 93.396245
L 326.613226 91.858755
L 327.308173 88.40402
L 329.393013 75.528977
L 330.087959 72.673094
L 330.782906 70.751083
L 331.246204 69.907972
L 331.941151 69.185647
L 332.404448 68.967038
L 332.867746 68.877861
L 333.794342 68.982846
L 334.720937 68.818587
L 335.415884 68.254187
L 336.342479 66.875693
L 338.427319 63.841788
L 339.585564 62.635622
L 340.743808 61.530054
L 341.670404 60.487084
L 342.365351 59.143651
L 343.291946 56.805259
L 344.218542 53.712669
L 345.145137 50.274018
L 346.766679 43.313006
L 348.156573 37.624236
L 349.083168 34.218748
L 349.778115 32.460115
L 350.473062 31.351444
L 350.93636 30.969009
L 351.399657 30.868621
L 352.094604 30.814941
L 352.557902 30.856167
L 352.789551 30.851002
L 353.484497 31.251177
L 354.179444 31.918038
L 355.569337 32.822416
L 356.264284 32.972098
L 356.959231 32.978522
L 359.27572 33.231375
L 359.970666 33.222418
L 360.665613 32.854526
L 362.287155 31.314139
L 362.982102 30.732212
L 363.4454 30.625464
L 364.140346 30.57858
L 365.298591 30.299353
L 365.993537 30.078779
L 366.688484 29.773157
L 367.151782 29.758809
L 369.69992 30.247484
L 370.394866 30.389243
L 371.78476 30.484188
L 372.479706 30.68654
L 372.943004 30.873489
L 373.8696 31.610749
L 375.491142 32.044057
L 376.881035 32.111334
L 379.429173 32.965985
L 380.12412 32.959834
L 381.050715 32.604521
L 381.745662 32.599124
L 382.20896 32.689454
L 382.903906 32.620535
L 383.598853 32.56004
L 384.062151 32.442953
L 385.452044 31.744572
L 387.073586 30.636511
L 389.158426 30.306483
L 390.085022 30.425196
L 391.243266 30.806338
L 392.864809 30.83098
L 394.486351 30.73517
L 395.181297 30.730243
L 395.876244 30.619002
L 397.729435 30.29424
L 398.88768 29.956208
L 400.97252 29.522305
L 401.435817 29.463206
L 401.899115 29.440765
L 403.983955 29.95225
L 404.447253 30.125551
L 405.605497 30.229068
L 406.300444 30.113033
L 407.921986 29.620879
L 409.775177 29.551624
L 410.470124 29.603366
L 412.323315 29.842789
L 413.018262 29.897093
L 415.798049 29.056632
L 416.492995 29.299292
L 417.65124 29.768337
L 418.577835 29.906128
L 419.73608 29.800183
L 420.431026 30.235729
L 421.82092 31.976818
L 422.284218 32.622148
L 424.369058 34.392647
L 425.758951 35.537115
L 426.222249 35.63806
L 427.148844 35.342714
L 427.843791 35.069862
L 429.696982 35.342137
L 430.391929 35.43643
L 431.550173 35.096092
L 433.171715 34.104726
L 433.635013 33.926648
L 434.32996 33.503028
L 435.488204 32.870692
L 436.4148 32.291481
L 437.109746 32.113238
L 437.573044 32.208352
L 438.267991 32.337021
L 438.731289 32.292279
L 441.047778 31.865407
L 442.66932 32.50597
L 443.364266 32.535904
L 444.290862 32.131533
L 445.217458 31.766961
L 447.765595 31.993872
L 448.692191 31.801088
L 449.618787 31.922205
L 450.082084 31.983222
L 452.166924 31.896665
L 452.630222 31.805542
L 456.568253 32.055446
L 459.34804 31.543759
L 460.042987 31.078915
L 460.969582 30.422171
L 462.359475 29.717996
L 467.224102 29.280446
L 468.150698 29.071236
L 470.003889 29.195564
L 470.930484 29.60723
L 471.625431 29.799437
L 473.246973 30.132181
L 475.331813 30.186324
L 476.02676 30.045573
L 476.721707 29.908301
L 477.416653 29.747523
L 478.806547 29.335792
L 479.733142 29.230364
L 480.428089 29.219106
L 481.354684 29.199898
L 482.28128 29.065247
L 483.439524 28.900062
L 484.36612 28.649242
L 486.219311 28.165946
L 486.914258 28.274022
L 489.230747 28.27104
L 490.62064 28.172418
L 491.778884 28.29968
L 492.242182 28.298106
L 494.095373 28.446887
L 494.79032 28.515651
L 496.180213 28.674455
L 498.496702 29.268889
L 498.96 29.330694
L 498.96 29.330694
" clip-path="url(#p958a8871c1)" style="fill: none; stroke: #1f7065; stroke-width: 1.4; stroke-linecap: square"/>
   </g>
   <g id="patch_6">
    <path d="M 309.702857 134.784
L 309.702857 22.464
" style="fill: none; stroke: #647b88; stroke-width: 0.8; stroke-linejoin: miter; stroke-linecap: square"/>
   </g>
   <g id="patch_7">
    <path d="M 309.702857 134.784
L 498.96 134.784
" style="fill: none; stroke: #647b88; stroke-width: 0.8; stroke-linejoin: miter; stroke-linecap: square"/>
   </g>
  </g>
  <g id="text_19">
   <!-- Completed optimizer steps (thousands) -->
   <g transform="translate(173.948906 183.258) scale(0.09 -0.09)">
    <defs>
     <path id="SegoeUI-26" d="M 3638 188
Q 3141 -75 2400 -75
Q 1444 -75 869 540
Q 294 1156 294 2156
Q 294 3231 941 3893
Q 1588 4556 2581 4556
Q 3219 4556 3638 4372
L 3638 3813
Q 3156 4081 2575 4081
Q 1803 4081 1323 3565
Q 844 3050 844 2188
Q 844 1369 1292 883
Q 1741 397 2469 397
Q 3144 397 3638 697
L 3638 188
z
" transform="scale(0.015625)"/>
     <path id="SegoeUI-47" d="M 3250 0
L 2738 0
L 2738 544
L 2725 544
Q 2369 -75 1625 -75
Q 1022 -75 661 354
Q 300 784 300 1525
Q 300 2319 700 2797
Q 1100 3275 1766 3275
Q 2425 3275 2725 2756
L 2738 2756
L 2738 4738
L 3250 4738
L 3250 0
z
M 2738 1447
L 2738 1919
Q 2738 2306 2481 2575
Q 2225 2844 1831 2844
Q 1363 2844 1094 2500
Q 825 2156 825 1550
Q 825 997 1083 676
Q 1341 356 1775 356
Q 2203 356 2470 665
Q 2738 975 2738 1447
z
" transform="scale(0.015625)"/>
     <path id="SegoeUI-5d" d="M 2750 3053
L 856 438
L 2731 438
L 2731 0
L 103 0
L 103 159
L 1997 2763
L 281 2763
L 281 3200
L 2750 3200
L 2750 3053
z
" transform="scale(0.015625)"/>
     <path id="SegoeUI-55" d="M 2188 2681
Q 2053 2784 1800 2784
Q 1472 2784 1251 2475
Q 1031 2166 1031 1631
L 1031 0
L 519 0
L 519 3200
L 1031 3200
L 1031 2541
L 1044 2541
Q 1153 2878 1378 3067
Q 1603 3256 1881 3256
Q 2081 3256 2188 3213
L 2188 2681
z
" transform="scale(0.015625)"/>
     <path id="SegoeUI-b" d="M 1863 -1019
L 1406 -1019
Q 438 88 438 1709
Q 438 3338 1406 4481
L 1869 4481
Q 888 3294 888 1716
Q 888 150 1863 -1019
z
" transform="scale(0.015625)"/>
     <path id="SegoeUI-58" d="M 3106 0
L 2594 0
L 2594 506
L 2581 506
Q 2263 -75 1594 -75
Q 450 -75 450 1288
L 450 3200
L 959 3200
L 959 1369
Q 959 356 1734 356
Q 2109 356 2351 632
Q 2594 909 2594 1356
L 2594 3200
L 3106 3200
L 3106 0
z
" transform="scale(0.015625)"/>
     <path id="SegoeUI-c" d="M 531 -1019
L 75 -1019
Q 1050 150 1050 1716
Q 1050 3294 69 4481
L 531 4481
Q 1506 3338 1506 1709
Q 1506 88 531 -1019
z
" transform="scale(0.015625)"/>
    </defs>
    <use xlink:href="#SegoeUI-26"/>
    <use xlink:href="#SegoeUI-52" transform="translate(61.921875 0)"/>
    <use xlink:href="#SegoeUI-50" transform="translate(120.515625 0)"/>
    <use xlink:href="#SegoeUI-53" transform="translate(206.65625 0)"/>
    <use xlink:href="#SegoeUI-4f" transform="translate(265.453125 0)"/>
    <use xlink:href="#SegoeUI-48" transform="translate(289.671875 0)"/>
    <use xlink:href="#SegoeUI-57" transform="translate(341.96875 0)"/>
    <use xlink:href="#SegoeUI-48" transform="translate(375.859375 0)"/>
    <use xlink:href="#SegoeUI-47" transform="translate(428.15625 0)"/>
    <use xlink:href="#SegoeUI-3" transform="translate(487.046875 0)"/>
    <use xlink:href="#SegoeUI-52" transform="translate(514.4375 0)"/>
    <use xlink:href="#SegoeUI-53" transform="translate(573.03125 0)"/>
    <use xlink:href="#SegoeUI-57" transform="translate(631.828125 0)"/>
    <use xlink:href="#SegoeUI-4c" transform="translate(665.71875 0)"/>
    <use xlink:href="#SegoeUI-50" transform="translate(689.9375 0)"/>
    <use xlink:href="#SegoeUI-4c" transform="translate(776.078125 0)"/>
    <use xlink:href="#SegoeUI-5d" transform="translate(800.296875 0)"/>
    <use xlink:href="#SegoeUI-48" transform="translate(845.515625 0)"/>
    <use xlink:href="#SegoeUI-55" transform="translate(897.8125 0)"/>
    <use xlink:href="#SegoeUI-3" transform="translate(932.578125 0)"/>
    <use xlink:href="#SegoeUI-56" transform="translate(959.96875 0)"/>
    <use xlink:href="#SegoeUI-57" transform="translate(1002.40625 0)"/>
    <use xlink:href="#SegoeUI-48" transform="translate(1036.296875 0)"/>
    <use xlink:href="#SegoeUI-53" transform="translate(1088.59375 0)"/>
    <use xlink:href="#SegoeUI-56" transform="translate(1147.390625 0)"/>
    <use xlink:href="#SegoeUI-3" transform="translate(1189.828125 0)"/>
    <use xlink:href="#SegoeUI-b" transform="translate(1217.21875 0)"/>
    <use xlink:href="#SegoeUI-57" transform="translate(1247.390625 0)"/>
    <use xlink:href="#SegoeUI-4b" transform="translate(1281.28125 0)"/>
    <use xlink:href="#SegoeUI-52" transform="translate(1337.875 0)"/>
    <use xlink:href="#SegoeUI-58" transform="translate(1396.46875 0)"/>
    <use xlink:href="#SegoeUI-56" transform="translate(1453.0625 0)"/>
    <use xlink:href="#SegoeUI-44" transform="translate(1495.5 0)"/>
    <use xlink:href="#SegoeUI-51" transform="translate(1546.375 0)"/>
    <use xlink:href="#SegoeUI-47" transform="translate(1602.96875 0)"/>
    <use xlink:href="#SegoeUI-56" transform="translate(1661.859375 0)"/>
    <use xlink:href="#SegoeUI-c" transform="translate(1704.296875 0)"/>
   </g>
  </g>
 </g>
 <defs>
  <clipPath id="p5a214992ab">
   <rect x="35.28" y="22.464" width="189.257143" height="112.32"/>
  </clipPath>
  <clipPath id="p958a8871c1">
   <rect x="309.702857" y="22.464" width="189.257143" height="112.32"/>
  </clipPath>
 </defs>
</svg>
