<?xml version="1.0" encoding="utf-8" standalone="no"?>
<!DOCTYPE svg PUBLIC "-//W3C//DTD SVG 1.1//EN"
  "http://www.w3.org/Graphics/SVG/1.1/DTD/svg11.dtd">
<svg xmlns:xlink="http://www.w3.org/1999/xlink" width="623.154688pt" height="337.074375pt" viewBox="0 0 623.154688 337.074375" xmlns="http://www.w3.org/2000/svg" version="1.1">
 <metadata>
  <rdf:RDF xmlns:dc="http://purl.org/dc/elements/1.1/" xmlns:cc="http://creativecommons.org/ns#" xmlns:rdf="http://www.w3.org/1999/02/22-rdf-syntax-ns#">
   <cc:Work>
    <dc:type rdf:resource="http://purl.org/dc/dcmitype/StillImage"/>
    <dc:format>image/svg+xml</dc:format>
    <dc:creator>
     <cc:Agent>
      <dc:title>Matplotlib v3.10.9, https://matplotlib.org/</dc:title>
     </cc:Agent>
    </dc:creator>
   </cc:Work>
  </rdf:RDF>
 </metadata>
 <defs>
  <style type="text/css">*{stroke-linejoin: round; stroke-linecap: butt}</style>
 </defs>
 <g id="figure_1">
  <g id="patch_1">
   <path d="M 0 337.074375 
L 623.154688 337.074375 
L 623.154688 0 
L 0 0 
z
" style="fill: #ffffff"/>
  </g>
  <g id="axes_1">
   <g id="patch_2">
    <path d="M 65.609375 299.518125 
L 567.809375 299.518125 
L 567.809375 22.318125 
L 65.609375 22.318125 
z
" style="fill: #ffffff"/>
   </g>
   <g id="matplotlib.axis_1">
    <g id="xtick_1">
     <g id="line2d_1">
      <path d="M 88.434801 299.518125 
L 88.434801 22.318125 
" clip-path="url(#p1be956d0c3)" style="fill: none; stroke: #b0b0b0; stroke-opacity: 0.25; stroke-width: 0.8; stroke-linecap: square"/>
     </g>
     <g id="line2d_2">
      <defs>
       <path id="mf79d4b284e" d="M 0 0 
L 0 3.5 
" style="stroke: #000000; stroke-width: 0.8"/>
      </defs>
      <g>
       <use xlink:href="#mf79d4b284e" x="88.434801" y="299.518125" style="stroke: #000000; stroke-width: 0.8"/>
      </g>
     </g>
     <g id="text_1">
      <!-- 0 -->
      <g transform="translate(85.253551 314.116563) scale(0.1 -0.1)">
       <defs>
        <path id="DejaVuSans-30" d="M 2034 4250 
Q 1547 4250 1301 3770 
Q 1056 3291 1056 2328 
Q 1056 1369 1301 889 
Q 1547 409 2034 409 
Q 2525 409 2770 889 
Q 3016 1369 3016 2328 
Q 3016 3291 2770 3770 
Q 2525 4250 2034 4250 
z
M 2034 4750 
Q 2819 4750 3233 4129 
Q 3647 3509 3647 2328 
Q 3647 1150 3233 529 
Q 2819 -91 2034 -91 
Q 1250 -91 836 529 
Q 422 1150 422 2328 
Q 422 3509 836 4129 
Q 1250 4750 2034 4750 
z
" transform="scale(0.015625)"/>
       </defs>
       <use xlink:href="#DejaVuSans-30"/>
      </g>
     </g>
    </g>
    <g id="xtick_2">
     <g id="line2d_3">
      <path d="M 180.778511 299.518125 
L 180.778511 22.318125 
" clip-path="url(#p1be956d0c3)" style="fill: none; stroke: #b0b0b0; stroke-opacity: 0.25; stroke-width: 0.8; stroke-linecap: square"/>
     </g>
     <g id="line2d_4">
      <g>
       <use xlink:href="#mf79d4b284e" x="180.778511" y="299.518125" style="stroke: #000000; stroke-width: 0.8"/>
      </g>
     </g>
     <g id="text_2">
      <!-- 50000 -->
      <g transform="translate(164.872261 314.116563) scale(0.1 -0.1)">
       <defs>
        <path id="DejaVuSans-35" d="M 691 4666 
L 3169 4666 
L 3169 4134 
L 1269 4134 
L 1269 2991 
Q 1406 3038 1543 3061 
Q 1681 3084 1819 3084 
Q 2600 3084 3056 2656 
Q 3513 2228 3513 1497 
Q 3513 744 3044 326 
Q 2575 -91 1722 -91 
Q 1428 -91 1123 -41 
Q 819 9 494 109 
L 494 744 
Q 775 591 1075 516 
Q 1375 441 1709 441 
Q 2250 441 2565 725 
Q 2881 1009 2881 1497 
Q 2881 1984 2565 2268 
Q 2250 2553 1709 2553 
Q 1456 2553 1204 2497 
Q 953 2441 691 2322 
L 691 4666 
z
" transform="scale(0.015625)"/>
       </defs>
       <use xlink:href="#DejaVuSans-35"/>
       <use xlink:href="#DejaVuSans-30" transform="translate(63.623047 0)"/>
       <use xlink:href="#DejaVuSans-30" transform="translate(127.246094 0)"/>
       <use xlink:href="#DejaVuSans-30" transform="translate(190.869141 0)"/>
       <use xlink:href="#DejaVuSans-30" transform="translate(254.492188 0)"/>
      </g>
     </g>
    </g>
    <g id="xtick_3">
     <g id="line2d_5">
      <path d="M 273.122221 299.518125 
L 273.122221 22.318125 
" clip-path="url(#p1be956d0c3)" style="fill: none; stroke: #b0b0b0; stroke-opacity: 0.25; stroke-width: 0.8; stroke-linecap: square"/>
     </g>
     <g id="line2d_6">
      <g>
       <use xlink:href="#mf79d4b284e" x="273.122221" y="299.518125" style="stroke: #000000; stroke-width: 0.8"/>
      </g>
     </g>
     <g id="text_3">
      <!-- 100000 -->
      <g transform="translate(254.034721 314.116563) scale(0.1 -0.1)">
       <defs>
        <path id="DejaVuSans-31" d="M 794 531 
L 1825 531 
L 1825 4091 
L 703 3866 
L 703 4441 
L 1819 4666 
L 2450 4666 
L 2450 531 
L 3481 531 
L 3481 0 
L 794 0 
L 794 531 
z
" transform="scale(0.015625)"/>
       </defs>
       <use xlink:href="#DejaVuSans-31"/>
       <use xlink:href="#DejaVuSans-30" transform="translate(63.623047 0)"/>
       <use xlink:href="#DejaVuSans-30" transform="translate(127.246094 0)"/>
       <use xlink:href="#DejaVuSans-30" transform="translate(190.869141 0)"/>
       <use xlink:href="#DejaVuSans-30" transform="translate(254.492188 0)"/>
       <use xlink:href="#DejaVuSans-30" transform="translate(318.115234 0)"/>
      </g>
     </g>
    </g>
    <g id="xtick_4">
     <g id="line2d_7">
      <path d="M 365.46593 299.518125 
L 365.46593 22.318125 
" clip-path="url(#p1be956d0c3)" style="fill: none; stroke: #b0b0b0; stroke-opacity: 0.25; stroke-width: 0.8; stroke-linecap: square"/>
     </g>
     <g id="line2d_8">
      <g>
       <use xlink:href="#mf79d4b284e" x="365.46593" y="299.518125" style="stroke: #000000; stroke-width: 0.8"/>
      </g>
     </g>
     <g id="text_4">
      <!-- 150000 -->
      <g transform="translate(346.37843 314.116563) scale(0.1 -0.1)">
       <use xlink:href="#DejaVuSans-31"/>
       <use xlink:href="#DejaVuSans-35" transform="translate(63.623047 0)"/>
       <use xlink:href="#DejaVuSans-30" transform="translate(127.246094 0)"/>
       <use xlink:href="#DejaVuSans-30" transform="translate(190.869141 0)"/>
       <use xlink:href="#DejaVuSans-30" transform="translate(254.492188 0)"/>
       <use xlink:href="#DejaVuSans-30" transform="translate(318.115234 0)"/>
      </g>
     </g>
    </g>
    <g id="xtick_5">
     <g id="line2d_9">
      <path d="M 457.80964 299.518125 
L 457.80964 22.318125 
" clip-path="url(#p1be956d0c3)" style="fill: none; stroke: #b0b0b0; stroke-opacity: 0.25; stroke-width: 0.8; stroke-linecap: square"/>
     </g>
     <g id="line2d_10">
      <g>
       <use xlink:href="#mf79d4b284e" x="457.80964" y="299.518125" style="stroke: #000000; stroke-width: 0.8"/>
      </g>
     </g>
     <g id="text_5">
      <!-- 200000 -->
      <g transform="translate(438.72214 314.116563) scale(0.1 -0.1)">
       <defs>
        <path id="DejaVuSans-32" d="M 1228 531 
L 3431 531 
L 3431 0 
L 469 0 
L 469 531 
Q 828 903 1448 1529 
Q 2069 2156 2228 2338 
Q 2531 2678 2651 2914 
Q 2772 3150 2772 3378 
Q 2772 3750 2511 3984 
Q 2250 4219 1831 4219 
Q 1534 4219 1204 4116 
Q 875 4013 500 3803 
L 500 4441 
Q 881 4594 1212 4672 
Q 1544 4750 1819 4750 
Q 2544 4750 2975 4387 
Q 3406 4025 3406 3419 
Q 3406 3131 3298 2873 
Q 3191 2616 2906 2266 
Q 2828 2175 2409 1742 
Q 1991 1309 1228 531 
z
" transform="scale(0.015625)"/>
       </defs>
       <use xlink:href="#DejaVuSans-32"/>
       <use xlink:href="#DejaVuSans-30" transform="translate(63.623047 0)"/>
       <use xlink:href="#DejaVuSans-30" transform="translate(127.246094 0)"/>
       <use xlink:href="#DejaVuSans-30" transform="translate(190.869141 0)"/>
       <use xlink:href="#DejaVuSans-30" transform="translate(254.492188 0)"/>
       <use xlink:href="#DejaVuSans-30" transform="translate(318.115234 0)"/>
      </g>
     </g>
    </g>
    <g id="xtick_6">
     <g id="line2d_11">
      <path d="M 550.15335 299.518125 
L 550.15335 22.318125 
" clip-path="url(#p1be956d0c3)" style="fill: none; stroke: #b0b0b0; stroke-opacity: 0.25; stroke-width: 0.8; stroke-linecap: square"/>
     </g>
     <g id="line2d_12">
      <g>
       <use xlink:href="#mf79d4b284e" x="550.15335" y="299.518125" style="stroke: #000000; stroke-width: 0.8"/>
      </g>
     </g>
     <g id="text_6">
      <!-- 250000 -->
      <g transform="translate(531.06585 314.116563) scale(0.1 -0.1)">
       <use xlink:href="#DejaVuSans-32"/>
       <use xlink:href="#DejaVuSans-35" transform="translate(63.623047 0)"/>
       <use xlink:href="#DejaVuSans-30" transform="translate(127.246094 0)"/>
       <use xlink:href="#DejaVuSans-30" transform="translate(190.869141 0)"/>
       <use xlink:href="#DejaVuSans-30" transform="translate(254.492188 0)"/>
       <use xlink:href="#DejaVuSans-30" transform="translate(318.115234 0)"/>
      </g>
     </g>
    </g>
    <g id="text_7">
     <!-- model generation -->
     <g transform="translate(272.357813 327.794688) scale(0.1 -0.1)">
      <defs>
       <path id="DejaVuSans-6d" d="M 3328 2828 
Q 3544 3216 3844 3400 
Q 4144 3584 4550 3584 
Q 5097 3584 5394 3201 
Q 5691 2819 5691 2113 
L 5691 0 
L 5113 0 
L 5113 2094 
Q 5113 2597 4934 2840 
Q 4756 3084 4391 3084 
Q 3944 3084 3684 2787 
Q 3425 2491 3425 1978 
L 3425 0 
L 2847 0 
L 2847 2094 
Q 2847 2600 2669 2842 
Q 2491 3084 2119 3084 
Q 1678 3084 1418 2786 
Q 1159 2488 1159 1978 
L 1159 0 
L 581 0 
L 581 3500 
L 1159 3500 
L 1159 2956 
Q 1356 3278 1631 3431 
Q 1906 3584 2284 3584 
Q 2666 3584 2933 3390 
Q 3200 3197 3328 2828 
z
" transform="scale(0.015625)"/>
       <path id="DejaVuSans-6f" d="M 1959 3097 
Q 1497 3097 1228 2736 
Q 959 2375 959 1747 
Q 959 1119 1226 758 
Q 1494 397 1959 397 
Q 2419 397 2687 759 
Q 2956 1122 2956 1747 
Q 2956 2369 2687 2733 
Q 2419 3097 1959 3097 
z
M 1959 3584 
Q 2709 3584 3137 3096 
Q 3566 2609 3566 1747 
Q 3566 888 3137 398 
Q 2709 -91 1959 -91 
Q 1206 -91 779 398 
Q 353 888 353 1747 
Q 353 2609 779 3096 
Q 1206 3584 1959 3584 
z
" transform="scale(0.015625)"/>
       <path id="DejaVuSans-64" d="M 2906 2969 
L 2906 4863 
L 3481 4863 
L 3481 0 
L 2906 0 
L 2906 525 
Q 2725 213 2448 61 
Q 2172 -91 1784 -91 
Q 1150 -91 751 415 
Q 353 922 353 1747 
Q 353 2572 751 3078 
Q 1150 3584 1784 3584 
Q 2172 3584 2448 3432 
Q 2725 3281 2906 2969 
z
M 947 1747 
Q 947 1113 1208 752 
Q 1469 391 1925 391 
Q 2381 391 2643 752 
Q 2906 1113 2906 1747 
Q 2906 2381 2643 2742 
Q 2381 3103 1925 3103 
Q 1469 3103 1208 2742 
Q 947 2381 947 1747 
z
" transform="scale(0.015625)"/>
       <path id="DejaVuSans-65" d="M 3597 1894 
L 3597 1613 
L 953 1613 
Q 991 1019 1311 708 
Q 1631 397 2203 397 
Q 2534 397 2845 478 
Q 3156 559 3463 722 
L 3463 178 
Q 3153 47 2828 -22 
Q 2503 -91 2169 -91 
Q 1331 -91 842 396 
Q 353 884 353 1716 
Q 353 2575 817 3079 
Q 1281 3584 2069 3584 
Q 2775 3584 3186 3129 
Q 3597 2675 3597 1894 
z
M 3022 2063 
Q 3016 2534 2758 2815 
Q 2500 3097 2075 3097 
Q 1594 3097 1305 2825 
Q 1016 2553 972 2059 
L 3022 2063 
z
" transform="scale(0.015625)"/>
       <path id="DejaVuSans-6c" d="M 603 4863 
L 1178 4863 
L 1178 0 
L 603 0 
L 603 4863 
z
" transform="scale(0.015625)"/>
       <path id="DejaVuSans-20" transform="scale(0.015625)"/>
       <path id="DejaVuSans-67" d="M 2906 1791 
Q 2906 2416 2648 2759 
Q 2391 3103 1925 3103 
Q 1463 3103 1205 2759 
Q 947 2416 947 1791 
Q 947 1169 1205 825 
Q 1463 481 1925 481 
Q 2391 481 2648 825 
Q 2906 1169 2906 1791 
z
M 3481 434 
Q 3481 -459 3084 -895 
Q 2688 -1331 1869 -1331 
Q 1566 -1331 1297 -1286 
Q 1028 -1241 775 -1147 
L 775 -588 
Q 1028 -725 1275 -790 
Q 1522 -856 1778 -856 
Q 2344 -856 2625 -561 
Q 2906 -266 2906 331 
L 2906 616 
Q 2728 306 2450 153 
Q 2172 0 1784 0 
Q 1141 0 747 490 
Q 353 981 353 1791 
Q 353 2603 747 3093 
Q 1141 3584 1784 3584 
Q 2172 3584 2450 3431 
Q 2728 3278 2906 2969 
L 2906 3500 
L 3481 3500 
L 3481 434 
z
" transform="scale(0.015625)"/>
       <path id="DejaVuSans-6e" d="M 3513 2113 
L 3513 0 
L 2938 0 
L 2938 2094 
Q 2938 2591 2744 2837 
Q 2550 3084 2163 3084 
Q 1697 3084 1428 2787 
Q 1159 2491 1159 1978 
L 1159 0 
L 581 0 
L 581 3500 
L 1159 3500 
L 1159 2956 
Q 1366 3272 1645 3428 
Q 1925 3584 2291 3584 
Q 2894 3584 3203 3211 
Q 3513 2838 3513 2113 
z
" transform="scale(0.015625)"/>
       <path id="DejaVuSans-72" d="M 2631 2963 
Q 2534 3019 2420 3045 
Q 2306 3072 2169 3072 
Q 1681 3072 1420 2755 
Q 1159 2438 1159 1844 
L 1159 0 
L 581 0 
L 581 3500 
L 1159 3500 
L 1159 2956 
Q 1341 3275 1631 3429 
Q 1922 3584 2338 3584 
Q 2397 3584 2469 3576 
Q 2541 3569 2628 3553 
L 2631 2963 
z
" transform="scale(0.015625)"/>
       <path id="DejaVuSans-61" d="M 2194 1759 
Q 1497 1759 1228 1600 
Q 959 1441 959 1056 
Q 959 750 1161 570 
Q 1363 391 1709 391 
Q 2188 391 2477 730 
Q 2766 1069 2766 1631 
L 2766 1759 
L 2194 1759 
z
M 3341 1997 
L 3341 0 
L 2766 0 
L 2766 531 
Q 2569 213 2275 61 
Q 1981 -91 1556 -91 
Q 1019 -91 701 211 
Q 384 513 384 1019 
Q 384 1609 779 1909 
Q 1175 2209 1959 2209 
L 2766 2209 
L 2766 2266 
Q 2766 2663 2505 2880 
Q 2244 3097 1772 3097 
Q 1472 3097 1187 3025 
Q 903 2953 641 2809 
L 641 3341 
Q 956 3463 1253 3523 
Q 1550 3584 1831 3584 
Q 2591 3584 2966 3190 
Q 3341 2797 3341 1997 
z
" transform="scale(0.015625)"/>
       <path id="DejaVuSans-74" d="M 1172 4494 
L 1172 3500 
L 2356 3500 
L 2356 3053 
L 1172 3053 
L 1172 1153 
Q 1172 725 1289 603 
Q 1406 481 1766 481 
L 2356 481 
L 2356 0 
L 1766 0 
Q 1100 0 847 248 
Q 594 497 594 1153 
L 594 3053 
L 172 3053 
L 172 3500 
L 594 3500 
L 594 4494 
L 1172 4494 
z
" transform="scale(0.015625)"/>
       <path id="DejaVuSans-69" d="M 603 3500 
L 1178 3500 
L 1178 0 
L 603 0 
L 603 3500 
z
M 603 4863 
L 1178 4863 
L 1178 4134 
L 603 4134 
L 603 4863 
z
" transform="scale(0.015625)"/>
      </defs>
      <use xlink:href="#DejaVuSans-6d"/>
      <use xlink:href="#DejaVuSans-6f" transform="translate(97.412109 0)"/>
      <use xlink:href="#DejaVuSans-64" transform="translate(158.59375 0)"/>
      <use xlink:href="#DejaVuSans-65" transform="translate(222.070312 0)"/>
      <use xlink:href="#DejaVuSans-6c" transform="translate(283.59375 0)"/>
      <use xlink:href="#DejaVuSans-20" transform="translate(311.376953 0)"/>
      <use xlink:href="#DejaVuSans-67" transform="translate(343.164062 0)"/>
      <use xlink:href="#DejaVuSans-65" transform="translate(406.640625 0)"/>
      <use xlink:href="#DejaVuSans-6e" transform="translate(468.164062 0)"/>
      <use xlink:href="#DejaVuSans-65" transform="translate(531.542969 0)"/>
      <use xlink:href="#DejaVuSans-72" transform="translate(593.066406 0)"/>
      <use xlink:href="#DejaVuSans-61" transform="translate(634.179688 0)"/>
      <use xlink:href="#DejaVuSans-74" transform="translate(695.458984 0)"/>
      <use xlink:href="#DejaVuSans-69" transform="translate(734.667969 0)"/>
      <use xlink:href="#DejaVuSans-6f" transform="translate(762.451172 0)"/>
      <use xlink:href="#DejaVuSans-6e" transform="translate(823.632812 0)"/>
     </g>
    </g>
   </g>
   <g id="matplotlib.axis_2">
    <g id="ytick_1">
     <g id="line2d_13">
      <path d="M 65.609375 286.918125 
L 567.809375 286.918125 
" clip-path="url(#p1be956d0c3)" style="fill: none; stroke: #b0b0b0; stroke-opacity: 0.25; stroke-width: 0.8; stroke-linecap: square"/>
     </g>
     <g id="line2d_14">
      <defs>
       <path id="mb4f5e85120" d="M 0 0 
L -3.5 0 
" style="stroke: #000000; stroke-width: 0.8"/>
      </defs>
      <g>
       <use xlink:href="#mb4f5e85120" x="65.609375" y="286.918125" style="stroke: #000000; stroke-width: 0.8"/>
      </g>
     </g>
     <g id="text_8">
      <!-- 12x128 -->
      <g transform="translate(20.878125 290.717344) scale(0.1 -0.1)">
       <defs>
        <path id="DejaVuSans-78" d="M 3513 3500 
L 2247 1797 
L 3578 0 
L 2900 0 
L 1881 1375 
L 863 0 
L 184 0 
L 1544 1831 
L 300 3500 
L 978 3500 
L 1906 2253 
L 2834 3500 
L 3513 3500 
z
" transform="scale(0.015625)"/>
        <path id="DejaVuSans-38" d="M 2034 2216 
Q 1584 2216 1326 1975 
Q 1069 1734 1069 1313 
Q 1069 891 1326 650 
Q 1584 409 2034 409 
Q 2484 409 2743 651 
Q 3003 894 3003 1313 
Q 3003 1734 2745 1975 
Q 2488 2216 2034 2216 
z
M 1403 2484 
Q 997 2584 770 2862 
Q 544 3141 544 3541 
Q 544 4100 942 4425 
Q 1341 4750 2034 4750 
Q 2731 4750 3128 4425 
Q 3525 4100 3525 3541 
Q 3525 3141 3298 2862 
Q 3072 2584 2669 2484 
Q 3125 2378 3379 2068 
Q 3634 1759 3634 1313 
Q 3634 634 3220 271 
Q 2806 -91 2034 -91 
Q 1263 -91 848 271 
Q 434 634 434 1313 
Q 434 1759 690 2068 
Q 947 2378 1403 2484 
z
M 1172 3481 
Q 1172 3119 1398 2916 
Q 1625 2713 2034 2713 
Q 2441 2713 2670 2916 
Q 2900 3119 2900 3481 
Q 2900 3844 2670 4047 
Q 2441 4250 2034 4250 
Q 1625 4250 1398 4047 
Q 1172 3844 1172 3481 
z
" transform="scale(0.015625)"/>
       </defs>
       <use xlink:href="#DejaVuSans-31"/>
       <use xlink:href="#DejaVuSans-32" transform="translate(63.623047 0)"/>
       <use xlink:href="#DejaVuSans-78" transform="translate(127.246094 0)"/>
       <use xlink:href="#DejaVuSans-31" transform="translate(186.425781 0)"/>
       <use xlink:href="#DejaVuSans-32" transform="translate(250.048828 0)"/>
       <use xlink:href="#DejaVuSans-38" transform="translate(313.671875 0)"/>
      </g>
     </g>
    </g>
    <g id="ytick_2">
     <g id="line2d_15">
      <path d="M 65.609375 160.918125 
L 567.809375 160.918125 
" clip-path="url(#p1be956d0c3)" style="fill: none; stroke: #b0b0b0; stroke-opacity: 0.25; stroke-width: 0.8; stroke-linecap: square"/>
     </g>
     <g id="line2d_16">
      <g>
       <use xlink:href="#mb4f5e85120" x="65.609375" y="160.918125" style="stroke: #000000; stroke-width: 0.8"/>
      </g>
     </g>
     <g id="text_9">
      <!-- 14x160 -->
      <g transform="translate(20.878125 164.717344) scale(0.1 -0.1)">
       <defs>
        <path id="DejaVuSans-34" d="M 2419 4116 
L 825 1625 
L 2419 1625 
L 2419 4116 
z
M 2253 4666 
L 3047 4666 
L 3047 1625 
L 3713 1625 
L 3713 1100 
L 3047 1100 
L 3047 0 
L 2419 0 
L 2419 1100 
L 313 1100 
L 313 1709 
L 2253 4666 
z
" transform="scale(0.015625)"/>
        <path id="DejaVuSans-36" d="M 2113 2584 
Q 1688 2584 1439 2293 
Q 1191 2003 1191 1497 
Q 1191 994 1439 701 
Q 1688 409 2113 409 
Q 2538 409 2786 701 
Q 3034 994 3034 1497 
Q 3034 2003 2786 2293 
Q 2538 2584 2113 2584 
z
M 3366 4563 
L 3366 3988 
Q 3128 4100 2886 4159 
Q 2644 4219 2406 4219 
Q 1781 4219 1451 3797 
Q 1122 3375 1075 2522 
Q 1259 2794 1537 2939 
Q 1816 3084 2150 3084 
Q 2853 3084 3261 2657 
Q 3669 2231 3669 1497 
Q 3669 778 3244 343 
Q 2819 -91 2113 -91 
Q 1303 -91 875 529 
Q 447 1150 447 2328 
Q 447 3434 972 4092 
Q 1497 4750 2381 4750 
Q 2619 4750 2861 4703 
Q 3103 4656 3366 4563 
z
" transform="scale(0.015625)"/>
       </defs>
       <use xlink:href="#DejaVuSans-31"/>
       <use xlink:href="#DejaVuSans-34" transform="translate(63.623047 0)"/>
       <use xlink:href="#DejaVuSans-78" transform="translate(127.246094 0)"/>
       <use xlink:href="#DejaVuSans-31" transform="translate(186.425781 0)"/>
       <use xlink:href="#DejaVuSans-36" transform="translate(250.048828 0)"/>
       <use xlink:href="#DejaVuSans-30" transform="translate(313.671875 0)"/>
      </g>
     </g>
    </g>
    <g id="ytick_3">
     <g id="line2d_17">
      <path d="M 65.609375 34.918125 
L 567.809375 34.918125 
" clip-path="url(#p1be956d0c3)" style="fill: none; stroke: #b0b0b0; stroke-opacity: 0.25; stroke-width: 0.8; stroke-linecap: square"/>
     </g>
     <g id="line2d_18">
      <g>
       <use xlink:href="#mb4f5e85120" x="65.609375" y="34.918125" style="stroke: #000000; stroke-width: 0.8"/>
      </g>
     </g>
     <g id="text_10">
      <!-- 19x176 -->
      <g transform="translate(20.878125 38.717344) scale(0.1 -0.1)">
       <defs>
        <path id="DejaVuSans-39" d="M 703 97 
L 703 672 
Q 941 559 1184 500 
Q 1428 441 1663 441 
Q 2288 441 2617 861 
Q 2947 1281 2994 2138 
Q 2813 1869 2534 1725 
Q 2256 1581 1919 1581 
Q 1219 1581 811 2004 
Q 403 2428 403 3163 
Q 403 3881 828 4315 
Q 1253 4750 1959 4750 
Q 2769 4750 3195 4129 
Q 3622 3509 3622 2328 
Q 3622 1225 3098 567 
Q 2575 -91 1691 -91 
Q 1453 -91 1209 -44 
Q 966 3 703 97 
z
M 1959 2075 
Q 2384 2075 2632 2365 
Q 2881 2656 2881 3163 
Q 2881 3666 2632 3958 
Q 2384 4250 1959 4250 
Q 1534 4250 1286 3958 
Q 1038 3666 1038 3163 
Q 1038 2656 1286 2365 
Q 1534 2075 1959 2075 
z
" transform="scale(0.015625)"/>
        <path id="DejaVuSans-37" d="M 525 4666 
L 3525 4666 
L 3525 4397 
L 1831 0 
L 1172 0 
L 2766 4134 
L 525 4134 
L 525 4666 
z
" transform="scale(0.015625)"/>
       </defs>
       <use xlink:href="#DejaVuSans-31"/>
       <use xlink:href="#DejaVuSans-39" transform="translate(63.623047 0)"/>
       <use xlink:href="#DejaVuSans-78" transform="translate(127.246094 0)"/>
       <use xlink:href="#DejaVuSans-31" transform="translate(186.425781 0)"/>
       <use xlink:href="#DejaVuSans-37" transform="translate(250.048828 0)"/>
       <use xlink:href="#DejaVuSans-36" transform="translate(313.671875 0)"/>
      </g>
     </g>
    </g>
    <g id="text_11">
     <!-- active progressive stage -->
     <g transform="translate(14.798438 222.179063) rotate(-90) scale(0.1 -0.1)">
      <defs>
       <path id="DejaVuSans-63" d="M 3122 3366 
L 3122 2828 
Q 2878 2963 2633 3030 
Q 2388 3097 2138 3097 
Q 1578 3097 1268 2742 
Q 959 2388 959 1747 
Q 959 1106 1268 751 
Q 1578 397 2138 397 
Q 2388 397 2633 464 
Q 2878 531 3122 666 
L 3122 134 
Q 2881 22 2623 -34 
Q 2366 -91 2075 -91 
Q 1284 -91 818 406 
Q 353 903 353 1747 
Q 353 2603 823 3093 
Q 1294 3584 2113 3584 
Q 2378 3584 2631 3529 
Q 2884 3475 3122 3366 
z
" transform="scale(0.015625)"/>
       <path id="DejaVuSans-76" d="M 191 3500 
L 800 3500 
L 1894 563 
L 2988 3500 
L 3597 3500 
L 2284 0 
L 1503 0 
L 191 3500 
z
" transform="scale(0.015625)"/>
       <path id="DejaVuSans-70" d="M 1159 525 
L 1159 -1331 
L 581 -1331 
L 581 3500 
L 1159 3500 
L 1159 2969 
Q 1341 3281 1617 3432 
Q 1894 3584 2278 3584 
Q 2916 3584 3314 3078 
Q 3713 2572 3713 1747 
Q 3713 922 3314 415 
Q 2916 -91 2278 -91 
Q 1894 -91 1617 61 
Q 1341 213 1159 525 
z
M 3116 1747 
Q 3116 2381 2855 2742 
Q 2594 3103 2138 3103 
Q 1681 3103 1420 2742 
Q 1159 2381 1159 1747 
Q 1159 1113 1420 752 
Q 1681 391 2138 391 
Q 2594 391 2855 752 
Q 3116 1113 3116 1747 
z
" transform="scale(0.015625)"/>
       <path id="DejaVuSans-73" d="M 2834 3397 
L 2834 2853 
Q 2591 2978 2328 3040 
Q 2066 3103 1784 3103 
Q 1356 3103 1142 2972 
Q 928 2841 928 2578 
Q 928 2378 1081 2264 
Q 1234 2150 1697 2047 
L 1894 2003 
Q 2506 1872 2764 1633 
Q 3022 1394 3022 966 
Q 3022 478 2636 193 
Q 2250 -91 1575 -91 
Q 1294 -91 989 -36 
Q 684 19 347 128 
L 347 722 
Q 666 556 975 473 
Q 1284 391 1588 391 
Q 1994 391 2212 530 
Q 2431 669 2431 922 
Q 2431 1156 2273 1281 
Q 2116 1406 1581 1522 
L 1381 1569 
Q 847 1681 609 1914 
Q 372 2147 372 2553 
Q 372 3047 722 3315 
Q 1072 3584 1716 3584 
Q 2034 3584 2315 3537 
Q 2597 3491 2834 3397 
z
" transform="scale(0.015625)"/>
      </defs>
      <use xlink:href="#DejaVuSans-61"/>
      <use xlink:href="#DejaVuSans-63" transform="translate(61.279297 0)"/>
      <use xlink:href="#DejaVuSans-74" transform="translate(116.259766 0)"/>
      <use xlink:href="#DejaVuSans-69" transform="translate(155.46875 0)"/>
      <use xlink:href="#DejaVuSans-76" transform="translate(183.251953 0)"/>
      <use xlink:href="#DejaVuSans-65" transform="translate(242.431641 0)"/>
      <use xlink:href="#DejaVuSans-20" transform="translate(303.955078 0)"/>
      <use xlink:href="#DejaVuSans-70" transform="translate(335.742188 0)"/>
      <use xlink:href="#DejaVuSans-72" transform="translate(399.21875 0)"/>
      <use xlink:href="#DejaVuSans-6f" transform="translate(438.082031 0)"/>
      <use xlink:href="#DejaVuSans-67" transform="translate(499.263672 0)"/>
      <use xlink:href="#DejaVuSans-72" transform="translate(562.740234 0)"/>
      <use xlink:href="#DejaVuSans-65" transform="translate(601.603516 0)"/>
      <use xlink:href="#DejaVuSans-73" transform="translate(663.126953 0)"/>
      <use xlink:href="#DejaVuSans-73" transform="translate(715.226562 0)"/>
      <use xlink:href="#DejaVuSans-69" transform="translate(767.326172 0)"/>
      <use xlink:href="#DejaVuSans-76" transform="translate(795.109375 0)"/>
      <use xlink:href="#DejaVuSans-65" transform="translate(854.289062 0)"/>
      <use xlink:href="#DejaVuSans-20" transform="translate(915.8125 0)"/>
      <use xlink:href="#DejaVuSans-73" transform="translate(947.599609 0)"/>
      <use xlink:href="#DejaVuSans-74" transform="translate(999.699219 0)"/>
      <use xlink:href="#DejaVuSans-61" transform="translate(1038.908203 0)"/>
      <use xlink:href="#DejaVuSans-67" transform="translate(1100.1875 0)"/>
      <use xlink:href="#DejaVuSans-65" transform="translate(1163.664062 0)"/>
     </g>
    </g>
   </g>
   <g id="line2d_19">
    <path d="M 88.436648 286.918125 
L 89.334229 286.918125 
L 89.334229 160.918125 
L 89.445041 160.918125 
L 90.433119 160.918125 
L 90.433119 34.918125 
L 90.543931 34.918125 
L 90.636275 34.918125 
L 90.636275 34.918125 
" clip-path="url(#p1be956d0c3)" style="fill: none; stroke: #1f4e79; stroke-width: 1.6; stroke-linecap: square"/>
   </g>
   <g id="patch_3">
    <path d="M 65.609375 299.518125 
L 65.609375 22.318125 
" style="fill: none; stroke: #000000; stroke-width: 0.8; stroke-linejoin: miter; stroke-linecap: square"/>
   </g>
   <g id="patch_4">
    <path d="M 65.609375 299.518125 
L 567.809375 299.518125 
" style="fill: none; stroke: #000000; stroke-width: 0.8; stroke-linejoin: miter; stroke-linecap: square"/>
   </g>
   <g id="text_12">
    <!-- Progressive stage and the plateau signal that drives promotion -->
    <g transform="translate(127.415 16.318125) scale(0.12 -0.12)">
     <defs>
      <path id="DejaVuSans-50" d="M 1259 4147 
L 1259 2394 
L 2053 2394 
Q 2494 2394 2734 2622 
Q 2975 2850 2975 3272 
Q 2975 3691 2734 3919 
Q 2494 4147 2053 4147 
L 1259 4147 
z
M 628 4666 
L 2053 4666 
Q 2838 4666 3239 4311 
Q 3641 3956 3641 3272 
Q 3641 2581 3239 2228 
Q 2838 1875 2053 1875 
L 1259 1875 
L 1259 0 
L 628 0 
L 628 4666 
z
" transform="scale(0.015625)"/>
      <path id="DejaVuSans-68" d="M 3513 2113 
L 3513 0 
L 2938 0 
L 2938 2094 
Q 2938 2591 2744 2837 
Q 2550 3084 2163 3084 
Q 1697 3084 1428 2787 
Q 1159 2491 1159 1978 
L 1159 0 
L 581 0 
L 581 4863 
L 1159 4863 
L 1159 2956 
Q 1366 3272 1645 3428 
Q 1925 3584 2291 3584 
Q 2894 3584 3203 3211 
Q 3513 2838 3513 2113 
z
" transform="scale(0.015625)"/>
      <path id="DejaVuSans-75" d="M 544 1381 
L 544 3500 
L 1119 3500 
L 1119 1403 
Q 1119 906 1312 657 
Q 1506 409 1894 409 
Q 2359 409 2629 706 
Q 2900 1003 2900 1516 
L 2900 3500 
L 3475 3500 
L 3475 0 
L 2900 0 
L 2900 538 
Q 2691 219 2414 64 
Q 2138 -91 1772 -91 
Q 1169 -91 856 284 
Q 544 659 544 1381 
z
M 1991 3584 
L 1991 3584 
z
" transform="scale(0.015625)"/>
     </defs>
     <use xlink:href="#DejaVuSans-50"/>
     <use xlink:href="#DejaVuSans-72" transform="translate(58.552734 0)"/>
     <use xlink:href="#DejaVuSans-6f" transform="translate(97.416016 0)"/>
     <use xlink:href="#DejaVuSans-67" transform="translate(158.597656 0)"/>
     <use xlink:href="#DejaVuSans-72" transform="translate(222.074219 0)"/>
     <use xlink:href="#DejaVuSans-65" transform="translate(260.9375 0)"/>
     <use xlink:href="#DejaVuSans-73" transform="translate(322.460938 0)"/>
     <use xlink:href="#DejaVuSans-73" transform="translate(374.560547 0)"/>
     <use xlink:href="#DejaVuSans-69" transform="translate(426.660156 0)"/>
     <use xlink:href="#DejaVuSans-76" transform="translate(454.443359 0)"/>
     <use xlink:href="#DejaVuSans-65" transform="translate(513.623047 0)"/>
     <use xlink:href="#DejaVuSans-20" transform="translate(575.146484 0)"/>
     <use xlink:href="#DejaVuSans-73" transform="translate(606.933594 0)"/>
     <use xlink:href="#DejaVuSans-74" transform="translate(659.033203 0)"/>
     <use xlink:href="#DejaVuSans-61" transform="translate(698.242188 0)"/>
     <use xlink:href="#DejaVuSans-67" transform="translate(759.521484 0)"/>
     <use xlink:href="#DejaVuSans-65" transform="translate(822.998047 0)"/>
     <use xlink:href="#DejaVuSans-20" transform="translate(884.521484 0)"/>
     <use xlink:href="#DejaVuSans-61" transform="translate(916.308594 0)"/>
     <use xlink:href="#DejaVuSans-6e" transform="translate(977.587891 0)"/>
     <use xlink:href="#DejaVuSans-64" transform="translate(1040.966797 0)"/>
     <use xlink:href="#DejaVuSans-20" transform="translate(1104.443359 0)"/>
     <use xlink:href="#DejaVuSans-74" transform="translate(1136.230469 0)"/>
     <use xlink:href="#DejaVuSans-68" transform="translate(1175.439453 0)"/>
     <use xlink:href="#DejaVuSans-65" transform="translate(1238.818359 0)"/>
     <use xlink:href="#DejaVuSans-20" transform="translate(1300.341797 0)"/>
     <use xlink:href="#DejaVuSans-70" transform="translate(1332.128906 0)"/>
     <use xlink:href="#DejaVuSans-6c" transform="translate(1395.605469 0)"/>
     <use xlink:href="#DejaVuSans-61" transform="translate(1423.388672 0)"/>
     <use xlink:href="#DejaVuSans-74" transform="translate(1484.667969 0)"/>
     <use xlink:href="#DejaVuSans-65" transform="translate(1523.876953 0)"/>
     <use xlink:href="#DejaVuSans-61" transform="translate(1585.400391 0)"/>
     <use xlink:href="#DejaVuSans-75" transform="translate(1646.679688 0)"/>
     <use xlink:href="#DejaVuSans-20" transform="translate(1710.058594 0)"/>
     <use xlink:href="#DejaVuSans-73" transform="translate(1741.845703 0)"/>
     <use xlink:href="#DejaVuSans-69" transform="translate(1793.945312 0)"/>
     <use xlink:href="#DejaVuSans-67" transform="translate(1821.728516 0)"/>
     <use xlink:href="#DejaVuSans-6e" transform="translate(1885.205078 0)"/>
     <use xlink:href="#DejaVuSans-61" transform="translate(1948.583984 0)"/>
     <use xlink:href="#DejaVuSans-6c" transform="translate(2009.863281 0)"/>
     <use xlink:href="#DejaVuSans-20" transform="translate(2037.646484 0)"/>
     <use xlink:href="#DejaVuSans-74" transform="translate(2069.433594 0)"/>
     <use xlink:href="#DejaVuSans-68" transform="translate(2108.642578 0)"/>
     <use xlink:href="#DejaVuSans-61" transform="translate(2172.021484 0)"/>
     <use xlink:href="#DejaVuSans-74" transform="translate(2233.300781 0)"/>
     <use xlink:href="#DejaVuSans-20" transform="translate(2272.509766 0)"/>
     <use xlink:href="#DejaVuSans-64" transform="translate(2304.296875 0)"/>
     <use xlink:href="#DejaVuSans-72" transform="translate(2367.773438 0)"/>
     <use xlink:href="#DejaVuSans-69" transform="translate(2408.886719 0)"/>
     <use xlink:href="#DejaVuSans-76" transform="translate(2436.669922 0)"/>
     <use xlink:href="#DejaVuSans-65" transform="translate(2495.849609 0)"/>
     <use xlink:href="#DejaVuSans-73" transform="translate(2557.373047 0)"/>
     <use xlink:href="#DejaVuSans-20" transform="translate(2609.472656 0)"/>
     <use xlink:href="#DejaVuSans-70" transform="translate(2641.259766 0)"/>
     <use xlink:href="#DejaVuSans-72" transform="translate(2704.736328 0)"/>
     <use xlink:href="#DejaVuSans-6f" transform="translate(2743.599609 0)"/>
     <use xlink:href="#DejaVuSans-6d" transform="translate(2804.78125 0)"/>
     <use xlink:href="#DejaVuSans-6f" transform="translate(2902.193359 0)"/>
     <use xlink:href="#DejaVuSans-74" transform="translate(2963.375 0)"/>
     <use xlink:href="#DejaVuSans-69" transform="translate(3002.583984 0)"/>
     <use xlink:href="#DejaVuSans-6f" transform="translate(3030.367188 0)"/>
     <use xlink:href="#DejaVuSans-6e" transform="translate(3091.548828 0)"/>
    </g>
   </g>
  </g>
  <g id="axes_2">
   <g id="matplotlib.axis_3">
    <g id="ytick_4">
     <g id="line2d_20">
      <defs>
       <path id="m83ecde2170" d="M 0 0 
L 3.5 0 
" style="stroke: #000000; stroke-width: 0.8"/>
      </defs>
      <g>
       <use xlink:href="#m83ecde2170" x="567.809375" y="268.126959" style="stroke: #000000; stroke-width: 0.8"/>
      </g>
     </g>
     <g id="text_13">
      <!-- −500 -->
      <g transform="translate(574.809375 271.926178) scale(0.1 -0.1)">
       <defs>
        <path id="DejaVuSans-2212" d="M 678 2272 
L 4684 2272 
L 4684 1741 
L 678 1741 
L 678 2272 
z
" transform="scale(0.015625)"/>
       </defs>
       <use xlink:href="#DejaVuSans-2212"/>
       <use xlink:href="#DejaVuSans-35" transform="translate(83.789062 0)"/>
       <use xlink:href="#DejaVuSans-30" transform="translate(147.412109 0)"/>
       <use xlink:href="#DejaVuSans-30" transform="translate(211.035156 0)"/>
      </g>
     </g>
    </g>
    <g id="ytick_5">
     <g id="line2d_21">
      <g>
       <use xlink:href="#m83ecde2170" x="567.809375" y="227.841719" style="stroke: #000000; stroke-width: 0.8"/>
      </g>
     </g>
     <g id="text_14">
      <!-- 0 -->
      <g transform="translate(574.809375 231.640938) scale(0.1 -0.1)">
       <use xlink:href="#DejaVuSans-30"/>
      </g>
     </g>
    </g>
    <g id="ytick_6">
     <g id="line2d_22">
      <g>
       <use xlink:href="#m83ecde2170" x="567.809375" y="187.556479" style="stroke: #000000; stroke-width: 0.8"/>
      </g>
     </g>
     <g id="text_15">
      <!-- 500 -->
      <g transform="translate(574.809375 191.355698) scale(0.1 -0.1)">
       <use xlink:href="#DejaVuSans-35"/>
       <use xlink:href="#DejaVuSans-30" transform="translate(63.623047 0)"/>
       <use xlink:href="#DejaVuSans-30" transform="translate(127.246094 0)"/>
      </g>
     </g>
    </g>
    <g id="ytick_7">
     <g id="line2d_23">
      <g>
       <use xlink:href="#m83ecde2170" x="567.809375" y="147.271239" style="stroke: #000000; stroke-width: 0.8"/>
      </g>
     </g>
     <g id="text_16">
      <!-- 1000 -->
      <g transform="translate(574.809375 151.070458) scale(0.1 -0.1)">
       <use xlink:href="#DejaVuSans-31"/>
       <use xlink:href="#DejaVuSans-30" transform="translate(63.623047 0)"/>
       <use xlink:href="#DejaVuSans-30" transform="translate(127.246094 0)"/>
       <use xlink:href="#DejaVuSans-30" transform="translate(190.869141 0)"/>
      </g>
     </g>
    </g>
    <g id="ytick_8">
     <g id="line2d_24">
      <g>
       <use xlink:href="#m83ecde2170" x="567.809375" y="106.986" style="stroke: #000000; stroke-width: 0.8"/>
      </g>
     </g>
     <g id="text_17">
      <!-- 1500 -->
      <g transform="translate(574.809375 110.785218) scale(0.1 -0.1)">
       <use xlink:href="#DejaVuSans-31"/>
       <use xlink:href="#DejaVuSans-35" transform="translate(63.623047 0)"/>
       <use xlink:href="#DejaVuSans-30" transform="translate(127.246094 0)"/>
       <use xlink:href="#DejaVuSans-30" transform="translate(190.869141 0)"/>
      </g>
     </g>
    </g>
    <g id="ytick_9">
     <g id="line2d_25">
      <g>
       <use xlink:href="#m83ecde2170" x="567.809375" y="66.70076" style="stroke: #000000; stroke-width: 0.8"/>
      </g>
     </g>
     <g id="text_18">
      <!-- 2000 -->
      <g transform="translate(574.809375 70.499978) scale(0.1 -0.1)">
       <use xlink:href="#DejaVuSans-32"/>
       <use xlink:href="#DejaVuSans-30" transform="translate(63.623047 0)"/>
       <use xlink:href="#DejaVuSans-30" transform="translate(127.246094 0)"/>
       <use xlink:href="#DejaVuSans-30" transform="translate(190.869141 0)"/>
      </g>
     </g>
    </g>
    <g id="ytick_10">
     <g id="line2d_26">
      <g>
       <use xlink:href="#m83ecde2170" x="567.809375" y="26.41552" style="stroke: #000000; stroke-width: 0.8"/>
      </g>
     </g>
     <g id="text_19">
      <!-- 2500 -->
      <g transform="translate(574.809375 30.214739) scale(0.1 -0.1)">
       <use xlink:href="#DejaVuSans-32"/>
       <use xlink:href="#DejaVuSans-35" transform="translate(63.623047 0)"/>
       <use xlink:href="#DejaVuSans-30" transform="translate(127.246094 0)"/>
       <use xlink:href="#DejaVuSans-30" transform="translate(190.869141 0)"/>
      </g>
     </g>
    </g>
    <g id="text_20">
     <!-- instantaneous Elo gain per hour -->
     <g transform="translate(613.875 240.894688) rotate(-90) scale(0.1 -0.1)">
      <defs>
       <path id="DejaVuSans-45" d="M 628 4666 
L 3578 4666 
L 3578 4134 
L 1259 4134 
L 1259 2753 
L 3481 2753 
L 3481 2222 
L 1259 2222 
L 1259 531 
L 3634 531 
L 3634 0 
L 628 0 
L 628 4666 
z
" transform="scale(0.015625)"/>
      </defs>
      <use xlink:href="#DejaVuSans-69"/>
      <use xlink:href="#DejaVuSans-6e" transform="translate(27.783203 0)"/>
      <use xlink:href="#DejaVuSans-73" transform="translate(91.162109 0)"/>
      <use xlink:href="#DejaVuSans-74" transform="translate(143.261719 0)"/>
      <use xlink:href="#DejaVuSans-61" transform="translate(182.470703 0)"/>
      <use xlink:href="#DejaVuSans-6e" transform="translate(243.75 0)"/>
      <use xlink:href="#DejaVuSans-74" transform="translate(307.128906 0)"/>
      <use xlink:href="#DejaVuSans-61" transform="translate(346.337891 0)"/>
      <use xlink:href="#DejaVuSans-6e" transform="translate(407.617188 0)"/>
      <use xlink:href="#DejaVuSans-65" transform="translate(470.996094 0)"/>
      <use xlink:href="#DejaVuSans-6f" transform="translate(532.519531 0)"/>
      <use xlink:href="#DejaVuSans-75" transform="translate(593.701172 0)"/>
      <use xlink:href="#DejaVuSans-73" transform="translate(657.080078 0)"/>
      <use xlink:href="#DejaVuSans-20" transform="translate(709.179688 0)"/>
      <use xlink:href="#DejaVuSans-45" transform="translate(740.966797 0)"/>
      <use xlink:href="#DejaVuSans-6c" transform="translate(804.150391 0)"/>
      <use xlink:href="#DejaVuSans-6f" transform="translate(831.933594 0)"/>
      <use xlink:href="#DejaVuSans-20" transform="translate(893.115234 0)"/>
      <use xlink:href="#DejaVuSans-67" transform="translate(924.902344 0)"/>
      <use xlink:href="#DejaVuSans-61" transform="translate(988.378906 0)"/>
      <use xlink:href="#DejaVuSans-69" transform="translate(1049.658203 0)"/>
      <use xlink:href="#DejaVuSans-6e" transform="translate(1077.441406 0)"/>
      <use xlink:href="#DejaVuSans-20" transform="translate(1140.820312 0)"/>
      <use xlink:href="#DejaVuSans-70" transform="translate(1172.607422 0)"/>
      <use xlink:href="#DejaVuSans-65" transform="translate(1236.083984 0)"/>
      <use xlink:href="#DejaVuSans-72" transform="translate(1297.607422 0)"/>
      <use xlink:href="#DejaVuSans-20" transform="translate(1338.720703 0)"/>
      <use xlink:href="#DejaVuSans-68" transform="translate(1370.507812 0)"/>
      <use xlink:href="#DejaVuSans-6f" transform="translate(1433.886719 0)"/>
      <use xlink:href="#DejaVuSans-75" transform="translate(1495.068359 0)"/>
      <use xlink:href="#DejaVuSans-72" transform="translate(1558.447266 0)"/>
     </g>
    </g>
   </g>
   <g id="line2d_27">
    <path d="M 90.65105 34.918125 
L 92.867299 193.515061 
L 95.083548 197.057553 
L 97.299797 196.58472 
L 99.516046 196.770518 
L 101.732295 201.990434 
L 103.948544 205.496669 
L 106.164793 207.598075 
L 108.381042 212.436433 
L 110.597291 213.711942 
L 112.81354 217.000256 
L 115.029789 215.510831 
L 117.246038 220.208788 
L 119.462287 221.249453 
L 121.678536 222.942136 
L 123.894785 221.656616 
L 126.111034 222.762067 
L 128.327284 224.190987 
L 130.543533 222.585028 
L 132.759782 225.099182 
L 134.976031 224.944007 
L 137.19228 224.615025 
L 139.408529 226.091291 
L 141.624778 226.7338 
L 143.841027 225.530121 
L 146.057276 225.930457 
L 148.273525 225.72708 
L 150.489774 226.804347 
L 154.922272 227.113822 
L 157.138521 226.803578 
L 159.35477 227.467634 
L 161.571019 228.799911 
L 163.787268 225.328844 
L 166.003517 227.658561 
L 168.219766 226.020311 
L 170.436015 227.79889 
L 172.652264 228.652456 
L 174.868513 228.16601 
L 177.084762 226.859472 
L 179.301011 226.194254 
L 181.51726 227.845015 
L 183.733509 225.04414 
L 185.949758 228.730537 
L 188.166007 227.766634 
L 190.382257 226.652307 
L 192.598506 227.887731 
L 194.814755 226.27351 
L 197.031004 226.587165 
L 199.247253 227.225232 
L 201.463502 225.439341 
L 203.679751 226.741954 
L 205.896 226.949994 
L 208.112249 227.271109 
L 210.328498 227.028726 
L 212.544747 225.073138 
L 214.760996 228.24455 
L 216.977245 226.254506 
L 219.193494 227.910779 
L 221.409743 227.662151 
L 223.625992 227.72954 
L 225.842241 228.884564 
L 228.05849 227.179281 
L 230.274739 227.950377 
L 232.490988 224.86979 
L 234.707237 227.460482 
L 236.923486 227.53673 
L 239.139735 228.092452 
L 241.355984 227.195151 
L 243.572233 227.747467 
L 245.788482 286.918125 
L 248.004731 205.985708 
L 250.22098 214.515603 
L 252.43723 220.117444 
L 254.653479 224.020146 
L 256.869728 223.049774 
L 259.085977 224.391384 
L 261.302226 224.013987 
L 263.518475 226.341622 
L 265.734724 226.923915 
L 267.950973 224.842414 
L 270.167222 227.728633 
L 272.383471 226.700061 
L 274.59972 227.451533 
L 279.032218 226.399283 
L 281.248467 225.549043 
L 283.464716 227.495246 
L 285.680965 226.897886 
L 287.897214 227.650115 
L 290.113463 227.421882 
L 292.329712 226.869394 
L 294.545961 226.993671 
L 296.76221 228.131227 
L 298.978459 226.639088 
L 301.194708 226.431947 
L 303.410957 227.193839 
L 305.627206 227.711873 
L 307.843455 227.873549 
L 310.059704 228.710828 
L 310.059704 228.710828 
L 312.275953 226.315494 
L 314.492203 227.021389 
L 316.708452 228.295724 
L 318.924701 227.53926 
L 318.924701 227.53926 
L 321.14095 228.365531 
L 323.357199 226.306852 
L 325.573448 227.457807 
L 327.789697 227.678387 
L 330.005946 226.996449 
L 332.222195 227.960824 
L 334.438444 227.299736 
L 336.654693 228.074824 
L 338.870942 226.564121 
L 341.087191 227.417095 
L 343.30344 227.864662 
L 345.519689 227.458258 
L 347.735938 227.36066 
L 349.952187 227.081923 
L 352.168436 227.465583 
L 354.384685 226.743547 
L 356.600934 227.307454 
L 358.817183 227.615719 
L 361.033432 227.384163 
L 363.249681 228.008844 
L 365.46593 226.575637 
L 367.682179 228.499788 
L 369.898428 228.552593 
L 372.114677 227.074198 
L 374.330926 227.385692 
L 376.547176 227.453434 
L 380.979674 227.140554 
L 383.195923 228.04071 
L 385.412172 227.117003 
L 387.628421 228.51009 
L 389.84467 228.708287 
L 392.060919 227.876214 
L 394.277168 226.645466 
L 396.493417 227.55698 
L 398.709666 227.647919 
L 400.925915 228.470843 
L 400.925915 228.470843 
L 403.142164 227.564561 
L 405.358413 227.515607 
L 409.790911 227.897843 
L 414.223409 227.788964 
L 416.439658 227.904354 
L 420.872156 227.738313 
L 423.088405 227.500857 
L 429.737152 227.461531 
L 434.16965 227.386683 
L 443.034647 227.158434 
L 447.467145 227.469817 
L 449.683394 227.702532 
L 454.115892 227.807511 
L 456.332141 227.871682 
L 462.980888 227.614801 
L 471.845884 227.674712 
L 474.062133 228.154785 
L 478.494631 228.474674 
L 482.927129 228.986372 
L 485.143378 228.85331 
L 487.359627 228.280347 
L 491.792125 227.517574 
L 494.008374 227.011634 
L 496.224623 226.697136 
L 498.440873 226.786676 
L 500.657122 226.711501 
L 502.873371 226.965674 
L 511.738367 227.392158 
L 513.954616 227.420537 
L 516.170865 227.289124 
L 518.387114 227.473461 
L 525.035861 227.377277 
L 527.25211 227.627177 
L 529.468359 227.735937 
L 531.684608 227.5727 
L 533.900857 227.567408 
L 536.117106 227.781026 
L 538.333355 227.793498 
L 540.549604 227.61445 
L 544.982102 227.646457 
L 544.982102 227.646457 
" clip-path="url(#p1be956d0c3)" style="fill: none; stroke: #c1440e; stroke-opacity: 0.8; stroke-width: 0.9; stroke-linecap: square"/>
   </g>
   <g id="patch_5">
    <path d="M 65.609375 299.518125 
L 65.609375 22.318125 
" style="fill: none; stroke: #000000; stroke-width: 0.8; stroke-linejoin: miter; stroke-linecap: square"/>
   </g>
   <g id="patch_6">
    <path d="M 65.609375 299.518125 
L 567.809375 299.518125 
" style="fill: none; stroke: #000000; stroke-width: 0.8; stroke-linejoin: miter; stroke-linecap: square"/>
   </g>
  </g>
 </g>
 <defs>
  <clipPath id="p1be956d0c3">
   <rect x="65.609375" y="22.318125" width="502.2" height="277.2"/>
  </clipPath>
 </defs>
</svg>
