<?xml version="1.0" encoding="utf-8" standalone="no"?>
<!DOCTYPE svg PUBLIC "-//W3C//DTD SVG 1.1//EN"
  "http://www.w3.org/Graphics/SVG/1.1/DTD/svg11.dtd">
<svg xmlns:xlink="http://www.w3.org/1999/xlink" width="820.627412pt" height="342.325859pt" viewBox="0 0 820.627412 342.325859" xmlns="http://www.w3.org/2000/svg" version="1.1">
 <metadata>
  <rdf:RDF xmlns:dc="http://purl.org/dc/elements/1.1/" xmlns:cc="http://creativecommons.org/ns#" xmlns:rdf="http://www.w3.org/1999/02/22-rdf-syntax-ns#">
   <cc:Work>
    <dc:type rdf:resource="http://purl.org/dc/dcmitype/StillImage"/>
    <dc:date>2026-07-20T18:17:23.388285</dc:date>
    <dc:format>image/svg+xml</dc:format>
    <dc:creator>
     <cc:Agent>
      <dc:title>Matplotlib v3.10.3, https://matplotlib.org/</dc:title>
     </cc:Agent>
    </dc:creator>
   </cc:Work>
  </rdf:RDF>
 </metadata>
 <defs>
  <style type="text/css">*{stroke-linejoin: round; stroke-linecap: butt}</style>
 </defs>
 <g id="figure_1">
  <g id="patch_1">
   <path d="M 0 342.325859 
L 820.627412 342.325859 
L 820.627412 0 
L 0 0 
z
" style="fill: #ffffff"/>
  </g>
  <g id="axes_1">
   <g id="patch_2">
    <path d="M 83.376 288.430125 
L 596.736 288.430125 
L 596.736 22.318125 
L 83.376 22.318125 
z
" style="fill: #ffffff"/>
   </g>
   <g id="matplotlib.axis_1">
    <g id="xtick_1">
     <g id="line2d_1">
      <defs>
       <path id="m810b05d0b4" d="M 0 0 
L 0 3.5 
" style="stroke: #000000; stroke-width: 0.8"/>
      </defs>
      <g>
       <use xlink:href="#m810b05d0b4" x="146.675789" y="288.430125" style="stroke: #000000; stroke-width: 0.8"/>
      </g>
     </g>
     <g id="text_1">
      <!-- GPU 0 -->
      <g transform="translate(131.357039 303.028562) scale(0.1 -0.1)">
       <defs>
        <path id="DejaVuSans-47" d="M 3809 666 
L 3809 1919 
L 2778 1919 
L 2778 2438 
L 4434 2438 
L 4434 434 
Q 4069 175 3628 42 
Q 3188 -91 2688 -91 
Q 1594 -91 976 548 
Q 359 1188 359 2328 
Q 359 3472 976 4111 
Q 1594 4750 2688 4750 
Q 3144 4750 3555 4637 
Q 3966 4525 4313 4306 
L 4313 3634 
Q 3963 3931 3569 4081 
Q 3175 4231 2741 4231 
Q 1884 4231 1454 3753 
Q 1025 3275 1025 2328 
Q 1025 1384 1454 906 
Q 1884 428 2741 428 
Q 3075 428 3337 486 
Q 3600 544 3809 666 
z
" transform="scale(0.015625)"/>
        <path id="DejaVuSans-50" d="M 1259 4147 
L 1259 2394 
L 2053 2394 
Q 2494 2394 2734 2622 
Q 2975 2850 2975 3272 
Q 2975 3691 2734 3919 
Q 2494 4147 2053 4147 
L 1259 4147 
z
M 628 4666 
L 2053 4666 
Q 2838 4666 3239 4311 
Q 3641 3956 3641 3272 
Q 3641 2581 3239 2228 
Q 2838 1875 2053 1875 
L 1259 1875 
L 1259 0 
L 628 0 
L 628 4666 
z
" transform="scale(0.015625)"/>
        <path id="DejaVuSans-55" d="M 556 4666 
L 1191 4666 
L 1191 1831 
Q 1191 1081 1462 751 
Q 1734 422 2344 422 
Q 2950 422 3222 751 
Q 3494 1081 3494 1831 
L 3494 4666 
L 4128 4666 
L 4128 1753 
Q 4128 841 3676 375 
Q 3225 -91 2344 -91 
Q 1459 -91 1007 375 
Q 556 841 556 1753 
L 556 4666 
z
" transform="scale(0.015625)"/>
        <path id="DejaVuSans-20" transform="scale(0.015625)"/>
        <path id="DejaVuSans-30" d="M 2034 4250 
Q 1547 4250 1301 3770 
Q 1056 3291 1056 2328 
Q 1056 1369 1301 889 
Q 1547 409 2034 409 
Q 2525 409 2770 889 
Q 3016 1369 3016 2328 
Q 3016 3291 2770 3770 
Q 2525 4250 2034 4250 
z
M 2034 4750 
Q 2819 4750 3233 4129 
Q 3647 3509 3647 2328 
Q 3647 1150 3233 529 
Q 2819 -91 2034 -91 
Q 1250 -91 836 529 
Q 422 1150 422 2328 
Q 422 3509 836 4129 
Q 1250 4750 2034 4750 
z
" transform="scale(0.015625)"/>
       </defs>
       <use xlink:href="#DejaVuSans-47"/>
       <use xlink:href="#DejaVuSans-50" transform="translate(77.490234 0)"/>
       <use xlink:href="#DejaVuSans-55" transform="translate(137.792969 0)"/>
       <use xlink:href="#DejaVuSans-20" transform="translate(210.986328 0)"/>
       <use xlink:href="#DejaVuSans-30" transform="translate(242.773438 0)"/>
      </g>
     </g>
    </g>
    <g id="xtick_2">
     <g id="line2d_2">
      <g>
       <use xlink:href="#m810b05d0b4" x="275.59593" y="288.430125" style="stroke: #000000; stroke-width: 0.8"/>
      </g>
     </g>
     <g id="text_2">
      <!-- GPU 1 -->
      <g transform="translate(260.27718 303.028562) scale(0.1 -0.1)">
       <defs>
        <path id="DejaVuSans-31" d="M 794 531 
L 1825 531 
L 1825 4091 
L 703 3866 
L 703 4441 
L 1819 4666 
L 2450 4666 
L 2450 531 
L 3481 531 
L 3481 0 
L 794 0 
L 794 531 
z
" transform="scale(0.015625)"/>
       </defs>
       <use xlink:href="#DejaVuSans-47"/>
       <use xlink:href="#DejaVuSans-50" transform="translate(77.490234 0)"/>
       <use xlink:href="#DejaVuSans-55" transform="translate(137.792969 0)"/>
       <use xlink:href="#DejaVuSans-20" transform="translate(210.986328 0)"/>
       <use xlink:href="#DejaVuSans-31" transform="translate(242.773438 0)"/>
      </g>
     </g>
    </g>
    <g id="xtick_3">
     <g id="line2d_3">
      <g>
       <use xlink:href="#m810b05d0b4" x="404.51607" y="288.430125" style="stroke: #000000; stroke-width: 0.8"/>
      </g>
     </g>
     <g id="text_3">
      <!-- GPU 2 -->
      <g transform="translate(389.19732 303.028562) scale(0.1 -0.1)">
       <defs>
        <path id="DejaVuSans-32" d="M 1228 531 
L 3431 531 
L 3431 0 
L 469 0 
L 469 531 
Q 828 903 1448 1529 
Q 2069 2156 2228 2338 
Q 2531 2678 2651 2914 
Q 2772 3150 2772 3378 
Q 2772 3750 2511 3984 
Q 2250 4219 1831 4219 
Q 1534 4219 1204 4116 
Q 875 4013 500 3803 
L 500 4441 
Q 881 4594 1212 4672 
Q 1544 4750 1819 4750 
Q 2544 4750 2975 4387 
Q 3406 4025 3406 3419 
Q 3406 3131 3298 2873 
Q 3191 2616 2906 2266 
Q 2828 2175 2409 1742 
Q 1991 1309 1228 531 
z
" transform="scale(0.015625)"/>
       </defs>
       <use xlink:href="#DejaVuSans-47"/>
       <use xlink:href="#DejaVuSans-50" transform="translate(77.490234 0)"/>
       <use xlink:href="#DejaVuSans-55" transform="translate(137.792969 0)"/>
       <use xlink:href="#DejaVuSans-20" transform="translate(210.986328 0)"/>
       <use xlink:href="#DejaVuSans-32" transform="translate(242.773438 0)"/>
      </g>
     </g>
    </g>
    <g id="xtick_4">
     <g id="line2d_4">
      <g>
       <use xlink:href="#m810b05d0b4" x="533.436211" y="288.430125" style="stroke: #000000; stroke-width: 0.8"/>
      </g>
     </g>
     <g id="text_4">
      <!-- GPU 3 -->
      <g transform="translate(518.117461 303.028562) scale(0.1 -0.1)">
       <defs>
        <path id="DejaVuSans-33" d="M 2597 2516 
Q 3050 2419 3304 2112 
Q 3559 1806 3559 1356 
Q 3559 666 3084 287 
Q 2609 -91 1734 -91 
Q 1441 -91 1130 -33 
Q 819 25 488 141 
L 488 750 
Q 750 597 1062 519 
Q 1375 441 1716 441 
Q 2309 441 2620 675 
Q 2931 909 2931 1356 
Q 2931 1769 2642 2001 
Q 2353 2234 1838 2234 
L 1294 2234 
L 1294 2753 
L 1863 2753 
Q 2328 2753 2575 2939 
Q 2822 3125 2822 3475 
Q 2822 3834 2567 4026 
Q 2313 4219 1838 4219 
Q 1578 4219 1281 4162 
Q 984 4106 628 3988 
L 628 4550 
Q 988 4650 1302 4700 
Q 1616 4750 1894 4750 
Q 2613 4750 3031 4423 
Q 3450 4097 3450 3541 
Q 3450 3153 3228 2886 
Q 3006 2619 2597 2516 
z
" transform="scale(0.015625)"/>
       </defs>
       <use xlink:href="#DejaVuSans-47"/>
       <use xlink:href="#DejaVuSans-50" transform="translate(77.490234 0)"/>
       <use xlink:href="#DejaVuSans-55" transform="translate(137.792969 0)"/>
       <use xlink:href="#DejaVuSans-20" transform="translate(210.986328 0)"/>
       <use xlink:href="#DejaVuSans-33" transform="translate(242.773438 0)"/>
      </g>
     </g>
    </g>
   </g>
   <g id="matplotlib.axis_2">
    <g id="ytick_1">
     <g id="line2d_5">
      <path d="M 83.376 288.430125 
L 596.736 288.430125 
" clip-path="url(#p5474ee4487)" style="fill: none; stroke: #d9d9d9; stroke-width: 0.7; stroke-linecap: square"/>
     </g>
     <g id="line2d_6">
      <defs>
       <path id="m1fedba8587" d="M 0 0 
L -3.5 0 
" style="stroke: #000000; stroke-width: 0.8"/>
      </defs>
      <g>
       <use xlink:href="#m1fedba8587" x="83.376" y="288.430125" style="stroke: #000000; stroke-width: 0.8"/>
      </g>
     </g>
     <g id="text_5">
      <!-- 0 -->
      <g transform="translate(70.0135 292.229344) scale(0.1 -0.1)">
       <use xlink:href="#DejaVuSans-30"/>
      </g>
     </g>
    </g>
    <g id="ytick_2">
     <g id="line2d_7">
      <path d="M 83.376 257.122831 
L 596.736 257.122831 
" clip-path="url(#p5474ee4487)" style="fill: none; stroke: #d9d9d9; stroke-width: 0.7; stroke-linecap: square"/>
     </g>
     <g id="line2d_8">
      <g>
       <use xlink:href="#m1fedba8587" x="83.376" y="257.122831" style="stroke: #000000; stroke-width: 0.8"/>
      </g>
     </g>
     <g id="text_6">
      <!-- 10 -->
      <g transform="translate(63.651 260.92205) scale(0.1 -0.1)">
       <use xlink:href="#DejaVuSans-31"/>
       <use xlink:href="#DejaVuSans-30" transform="translate(63.623047 0)"/>
      </g>
     </g>
    </g>
    <g id="ytick_3">
     <g id="line2d_9">
      <path d="M 83.376 225.815537 
L 596.736 225.815537 
" clip-path="url(#p5474ee4487)" style="fill: none; stroke: #d9d9d9; stroke-width: 0.7; stroke-linecap: square"/>
     </g>
     <g id="line2d_10">
      <g>
       <use xlink:href="#m1fedba8587" x="83.376" y="225.815537" style="stroke: #000000; stroke-width: 0.8"/>
      </g>
     </g>
     <g id="text_7">
      <!-- 20 -->
      <g transform="translate(63.651 229.614756) scale(0.1 -0.1)">
       <use xlink:href="#DejaVuSans-32"/>
       <use xlink:href="#DejaVuSans-30" transform="translate(63.623047 0)"/>
      </g>
     </g>
    </g>
    <g id="ytick_4">
     <g id="line2d_11">
      <path d="M 83.376 194.508243 
L 596.736 194.508243 
" clip-path="url(#p5474ee4487)" style="fill: none; stroke: #d9d9d9; stroke-width: 0.7; stroke-linecap: square"/>
     </g>
     <g id="line2d_12">
      <g>
       <use xlink:href="#m1fedba8587" x="83.376" y="194.508243" style="stroke: #000000; stroke-width: 0.8"/>
      </g>
     </g>
     <g id="text_8">
      <!-- 30 -->
      <g transform="translate(63.651 198.307461) scale(0.1 -0.1)">
       <use xlink:href="#DejaVuSans-33"/>
       <use xlink:href="#DejaVuSans-30" transform="translate(63.623047 0)"/>
      </g>
     </g>
    </g>
    <g id="ytick_5">
     <g id="line2d_13">
      <path d="M 83.376 163.200949 
L 596.736 163.200949 
" clip-path="url(#p5474ee4487)" style="fill: none; stroke: #d9d9d9; stroke-width: 0.7; stroke-linecap: square"/>
     </g>
     <g id="line2d_14">
      <g>
       <use xlink:href="#m1fedba8587" x="83.376" y="163.200949" style="stroke: #000000; stroke-width: 0.8"/>
      </g>
     </g>
     <g id="text_9">
      <!-- 40 -->
      <g transform="translate(63.651 167.000167) scale(0.1 -0.1)">
       <defs>
        <path id="DejaVuSans-34" d="M 2419 4116 
L 825 1625 
L 2419 1625 
L 2419 4116 
z
M 2253 4666 
L 3047 4666 
L 3047 1625 
L 3713 1625 
L 3713 1100 
L 3047 1100 
L 3047 0 
L 2419 0 
L 2419 1100 
L 313 1100 
L 313 1709 
L 2253 4666 
z
" transform="scale(0.015625)"/>
       </defs>
       <use xlink:href="#DejaVuSans-34"/>
       <use xlink:href="#DejaVuSans-30" transform="translate(63.623047 0)"/>
      </g>
     </g>
    </g>
    <g id="ytick_6">
     <g id="line2d_15">
      <path d="M 83.376 131.893654 
L 596.736 131.893654 
" clip-path="url(#p5474ee4487)" style="fill: none; stroke: #d9d9d9; stroke-width: 0.7; stroke-linecap: square"/>
     </g>
     <g id="line2d_16">
      <g>
       <use xlink:href="#m1fedba8587" x="83.376" y="131.893654" style="stroke: #000000; stroke-width: 0.8"/>
      </g>
     </g>
     <g id="text_10">
      <!-- 50 -->
      <g transform="translate(63.651 135.692873) scale(0.1 -0.1)">
       <defs>
        <path id="DejaVuSans-35" d="M 691 4666 
L 3169 4666 
L 3169 4134 
L 1269 4134 
L 1269 2991 
Q 1406 3038 1543 3061 
Q 1681 3084 1819 3084 
Q 2600 3084 3056 2656 
Q 3513 2228 3513 1497 
Q 3513 744 3044 326 
Q 2575 -91 1722 -91 
Q 1428 -91 1123 -41 
Q 819 9 494 109 
L 494 744 
Q 775 591 1075 516 
Q 1375 441 1709 441 
Q 2250 441 2565 725 
Q 2881 1009 2881 1497 
Q 2881 1984 2565 2268 
Q 2250 2553 1709 2553 
Q 1456 2553 1204 2497 
Q 953 2441 691 2322 
L 691 4666 
z
" transform="scale(0.015625)"/>
       </defs>
       <use xlink:href="#DejaVuSans-35"/>
       <use xlink:href="#DejaVuSans-30" transform="translate(63.623047 0)"/>
      </g>
     </g>
    </g>
    <g id="ytick_7">
     <g id="line2d_17">
      <path d="M 83.376 100.58636 
L 596.736 100.58636 
" clip-path="url(#p5474ee4487)" style="fill: none; stroke: #d9d9d9; stroke-width: 0.7; stroke-linecap: square"/>
     </g>
     <g id="line2d_18">
      <g>
       <use xlink:href="#m1fedba8587" x="83.376" y="100.58636" style="stroke: #000000; stroke-width: 0.8"/>
      </g>
     </g>
     <g id="text_11">
      <!-- 60 -->
      <g transform="translate(63.651 104.385579) scale(0.1 -0.1)">
       <defs>
        <path id="DejaVuSans-36" d="M 2113 2584 
Q 1688 2584 1439 2293 
Q 1191 2003 1191 1497 
Q 1191 994 1439 701 
Q 1688 409 2113 409 
Q 2538 409 2786 701 
Q 3034 994 3034 1497 
Q 3034 2003 2786 2293 
Q 2538 2584 2113 2584 
z
M 3366 4563 
L 3366 3988 
Q 3128 4100 2886 4159 
Q 2644 4219 2406 4219 
Q 1781 4219 1451 3797 
Q 1122 3375 1075 2522 
Q 1259 2794 1537 2939 
Q 1816 3084 2150 3084 
Q 2853 3084 3261 2657 
Q 3669 2231 3669 1497 
Q 3669 778 3244 343 
Q 2819 -91 2113 -91 
Q 1303 -91 875 529 
Q 447 1150 447 2328 
Q 447 3434 972 4092 
Q 1497 4750 2381 4750 
Q 2619 4750 2861 4703 
Q 3103 4656 3366 4563 
z
" transform="scale(0.015625)"/>
       </defs>
       <use xlink:href="#DejaVuSans-36"/>
       <use xlink:href="#DejaVuSans-30" transform="translate(63.623047 0)"/>
      </g>
     </g>
    </g>
    <g id="ytick_8">
     <g id="line2d_19">
      <path d="M 83.376 69.279066 
L 596.736 69.279066 
" clip-path="url(#p5474ee4487)" style="fill: none; stroke: #d9d9d9; stroke-width: 0.7; stroke-linecap: square"/>
     </g>
     <g id="line2d_20">
      <g>
       <use xlink:href="#m1fedba8587" x="83.376" y="69.279066" style="stroke: #000000; stroke-width: 0.8"/>
      </g>
     </g>
     <g id="text_12">
      <!-- 70 -->
      <g transform="translate(63.651 73.078285) scale(0.1 -0.1)">
       <defs>
        <path id="DejaVuSans-37" d="M 525 4666 
L 3525 4666 
L 3525 4397 
L 1831 0 
L 1172 0 
L 2766 4134 
L 525 4134 
L 525 4666 
z
" transform="scale(0.015625)"/>
       </defs>
       <use xlink:href="#DejaVuSans-37"/>
       <use xlink:href="#DejaVuSans-30" transform="translate(63.623047 0)"/>
      </g>
     </g>
    </g>
    <g id="ytick_9">
     <g id="line2d_21">
      <path d="M 83.376 37.971772 
L 596.736 37.971772 
" clip-path="url(#p5474ee4487)" style="fill: none; stroke: #d9d9d9; stroke-width: 0.7; stroke-linecap: square"/>
     </g>
     <g id="line2d_22">
      <g>
       <use xlink:href="#m1fedba8587" x="83.376" y="37.971772" style="stroke: #000000; stroke-width: 0.8"/>
      </g>
     </g>
     <g id="text_13">
      <!-- 80 -->
      <g transform="translate(63.651 41.770991) scale(0.1 -0.1)">
       <defs>
        <path id="DejaVuSans-38" d="M 2034 2216 
Q 1584 2216 1326 1975 
Q 1069 1734 1069 1313 
Q 1069 891 1326 650 
Q 1584 409 2034 409 
Q 2484 409 2743 651 
Q 3003 894 3003 1313 
Q 3003 1734 2745 1975 
Q 2488 2216 2034 2216 
z
M 1403 2484 
Q 997 2584 770 2862 
Q 544 3141 544 3541 
Q 544 4100 942 4425 
Q 1341 4750 2034 4750 
Q 2731 4750 3128 4425 
Q 3525 4100 3525 3541 
Q 3525 3141 3298 2862 
Q 3072 2584 2669 2484 
Q 3125 2378 3379 2068 
Q 3634 1759 3634 1313 
Q 3634 634 3220 271 
Q 2806 -91 2034 -91 
Q 1263 -91 848 271 
Q 434 634 434 1313 
Q 434 1759 690 2068 
Q 947 2378 1403 2484 
z
M 1172 3481 
Q 1172 3119 1398 2916 
Q 1625 2713 2034 2713 
Q 2441 2713 2670 2916 
Q 2900 3119 2900 3481 
Q 2900 3844 2670 4047 
Q 2441 4250 2034 4250 
Q 1625 4250 1398 4047 
Q 1172 3844 1172 3481 
z
" transform="scale(0.015625)"/>
       </defs>
       <use xlink:href="#DejaVuSans-38"/>
       <use xlink:href="#DejaVuSans-30" transform="translate(63.623047 0)"/>
      </g>
     </g>
    </g>
    <g id="text_14">
     <!-- Utilization (%) -->
     <g transform="translate(57.571313 190.667875) rotate(-90) scale(0.1 -0.1)">
      <defs>
       <path id="DejaVuSans-74" d="M 1172 4494 
L 1172 3500 
L 2356 3500 
L 2356 3053 
L 1172 3053 
L 1172 1153 
Q 1172 725 1289 603 
Q 1406 481 1766 481 
L 2356 481 
L 2356 0 
L 1766 0 
Q 1100 0 847 248 
Q 594 497 594 1153 
L 594 3053 
L 172 3053 
L 172 3500 
L 594 3500 
L 594 4494 
L 1172 4494 
z
" transform="scale(0.015625)"/>
       <path id="DejaVuSans-69" d="M 603 3500 
L 1178 3500 
L 1178 0 
L 603 0 
L 603 3500 
z
M 603 4863 
L 1178 4863 
L 1178 4134 
L 603 4134 
L 603 4863 
z
" transform="scale(0.015625)"/>
       <path id="DejaVuSans-6c" d="M 603 4863 
L 1178 4863 
L 1178 0 
L 603 0 
L 603 4863 
z
" transform="scale(0.015625)"/>
       <path id="DejaVuSans-7a" d="M 353 3500 
L 3084 3500 
L 3084 2975 
L 922 459 
L 3084 459 
L 3084 0 
L 275 0 
L 275 525 
L 2438 3041 
L 353 3041 
L 353 3500 
z
" transform="scale(0.015625)"/>
       <path id="DejaVuSans-61" d="M 2194 1759 
Q 1497 1759 1228 1600 
Q 959 1441 959 1056 
Q 959 750 1161 570 
Q 1363 391 1709 391 
Q 2188 391 2477 730 
Q 2766 1069 2766 1631 
L 2766 1759 
L 2194 1759 
z
M 3341 1997 
L 3341 0 
L 2766 0 
L 2766 531 
Q 2569 213 2275 61 
Q 1981 -91 1556 -91 
Q 1019 -91 701 211 
Q 384 513 384 1019 
Q 384 1609 779 1909 
Q 1175 2209 1959 2209 
L 2766 2209 
L 2766 2266 
Q 2766 2663 2505 2880 
Q 2244 3097 1772 3097 
Q 1472 3097 1187 3025 
Q 903 2953 641 2809 
L 641 3341 
Q 956 3463 1253 3523 
Q 1550 3584 1831 3584 
Q 2591 3584 2966 3190 
Q 3341 2797 3341 1997 
z
" transform="scale(0.015625)"/>
       <path id="DejaVuSans-6f" d="M 1959 3097 
Q 1497 3097 1228 2736 
Q 959 2375 959 1747 
Q 959 1119 1226 758 
Q 1494 397 1959 397 
Q 2419 397 2687 759 
Q 2956 1122 2956 1747 
Q 2956 2369 2687 2733 
Q 2419 3097 1959 3097 
z
M 1959 3584 
Q 2709 3584 3137 3096 
Q 3566 2609 3566 1747 
Q 3566 888 3137 398 
Q 2709 -91 1959 -91 
Q 1206 -91 779 398 
Q 353 888 353 1747 
Q 353 2609 779 3096 
Q 1206 3584 1959 3584 
z
" transform="scale(0.015625)"/>
       <path id="DejaVuSans-6e" d="M 3513 2113 
L 3513 0 
L 2938 0 
L 2938 2094 
Q 2938 2591 2744 2837 
Q 2550 3084 2163 3084 
Q 1697 3084 1428 2787 
Q 1159 2491 1159 1978 
L 1159 0 
L 581 0 
L 581 3500 
L 1159 3500 
L 1159 2956 
Q 1366 3272 1645 3428 
Q 1925 3584 2291 3584 
Q 2894 3584 3203 3211 
Q 3513 2838 3513 2113 
z
" transform="scale(0.015625)"/>
       <path id="DejaVuSans-28" d="M 1984 4856 
Q 1566 4138 1362 3434 
Q 1159 2731 1159 2009 
Q 1159 1288 1364 580 
Q 1569 -128 1984 -844 
L 1484 -844 
Q 1016 -109 783 600 
Q 550 1309 550 2009 
Q 550 2706 781 3412 
Q 1013 4119 1484 4856 
L 1984 4856 
z
" transform="scale(0.015625)"/>
       <path id="DejaVuSans-25" d="M 4653 2053 
Q 4381 2053 4226 1822 
Q 4072 1591 4072 1178 
Q 4072 772 4226 539 
Q 4381 306 4653 306 
Q 4919 306 5073 539 
Q 5228 772 5228 1178 
Q 5228 1588 5073 1820 
Q 4919 2053 4653 2053 
z
M 4653 2450 
Q 5147 2450 5437 2106 
Q 5728 1763 5728 1178 
Q 5728 594 5436 251 
Q 5144 -91 4653 -91 
Q 4153 -91 3862 251 
Q 3572 594 3572 1178 
Q 3572 1766 3864 2108 
Q 4156 2450 4653 2450 
z
M 1428 4353 
Q 1159 4353 1004 4120 
Q 850 3888 850 3481 
Q 850 3069 1003 2837 
Q 1156 2606 1428 2606 
Q 1700 2606 1854 2837 
Q 2009 3069 2009 3481 
Q 2009 3884 1853 4118 
Q 1697 4353 1428 4353 
z
M 4250 4750 
L 4750 4750 
L 1831 -91 
L 1331 -91 
L 4250 4750 
z
M 1428 4750 
Q 1922 4750 2215 4408 
Q 2509 4066 2509 3481 
Q 2509 2891 2217 2550 
Q 1925 2209 1428 2209 
Q 931 2209 642 2551 
Q 353 2894 353 3481 
Q 353 4063 643 4406 
Q 934 4750 1428 4750 
z
" transform="scale(0.015625)"/>
       <path id="DejaVuSans-29" d="M 513 4856 
L 1013 4856 
Q 1481 4119 1714 3412 
Q 1947 2706 1947 2009 
Q 1947 1309 1714 600 
Q 1481 -109 1013 -844 
L 513 -844 
Q 928 -128 1133 580 
Q 1338 1288 1338 2009 
Q 1338 2731 1133 3434 
Q 928 4138 513 4856 
z
" transform="scale(0.015625)"/>
      </defs>
      <use xlink:href="#DejaVuSans-55"/>
      <use xlink:href="#DejaVuSans-74" transform="translate(73.193359 0)"/>
      <use xlink:href="#DejaVuSans-69" transform="translate(112.402344 0)"/>
      <use xlink:href="#DejaVuSans-6c" transform="translate(140.185547 0)"/>
      <use xlink:href="#DejaVuSans-69" transform="translate(167.96875 0)"/>
      <use xlink:href="#DejaVuSans-7a" transform="translate(195.751953 0)"/>
      <use xlink:href="#DejaVuSans-61" transform="translate(248.242188 0)"/>
      <use xlink:href="#DejaVuSans-74" transform="translate(309.521484 0)"/>
      <use xlink:href="#DejaVuSans-69" transform="translate(348.730469 0)"/>
      <use xlink:href="#DejaVuSans-6f" transform="translate(376.513672 0)"/>
      <use xlink:href="#DejaVuSans-6e" transform="translate(437.695312 0)"/>
      <use xlink:href="#DejaVuSans-20" transform="translate(501.074219 0)"/>
      <use xlink:href="#DejaVuSans-28" transform="translate(532.861328 0)"/>
      <use xlink:href="#DejaVuSans-25" transform="translate(571.875 0)"/>
      <use xlink:href="#DejaVuSans-29" transform="translate(666.894531 0)"/>
     </g>
    </g>
   </g>
   <g id="patch_3">
    <path d="M 106.710545 288.430125 
L 186.641033 288.430125 
L 186.641033 90.568026 
L 106.710545 90.568026 
z
" clip-path="url(#p5474ee4487)" style="fill: #54a24b"/>
   </g>
   <g id="patch_4">
    <path d="M 235.630686 288.430125 
L 315.561173 288.430125 
L 315.561173 95.26412 
L 235.630686 95.26412 
z
" clip-path="url(#p5474ee4487)" style="fill: #54a24b"/>
   </g>
   <g id="patch_5">
    <path d="M 364.550827 288.430125 
L 444.481314 288.430125 
L 444.481314 90.568026 
L 364.550827 90.568026 
z
" clip-path="url(#p5474ee4487)" style="fill: #54a24b"/>
   </g>
   <g id="patch_6">
    <path d="M 493.470967 288.430125 
L 573.401455 288.430125 
L 573.401455 165.392459 
L 493.470967 165.392459 
z
" clip-path="url(#p5474ee4487)" style="fill: #54a24b"/>
   </g>
   <g id="patch_7">
    <path d="M 83.376 241.469184 
L 596.736 241.469184 
L 596.736 232.076996 
L 83.376 232.076996 
z
" clip-path="url(#p5474ee4487)" style="fill: #b9d7ea; opacity: 0.55; stroke: #b9d7ea; stroke-linejoin: miter"/>
   </g>
   <g id="LineCollection_1">
    <path d="M 146.675789 106.847819 
L 146.675789 66.148337 
" clip-path="url(#p5474ee4487)" style="fill: none; stroke: #285b2d; stroke-width: 1.2"/>
    <path d="M 275.59593 122.501466 
L 275.59593 47.36396 
" clip-path="url(#p5474ee4487)" style="fill: none; stroke: #285b2d; stroke-width: 1.2"/>
    <path d="M 404.51607 106.847819 
L 404.51607 50.49469 
" clip-path="url(#p5474ee4487)" style="fill: none; stroke: #285b2d; stroke-width: 1.2"/>
    <path d="M 533.436211 172.593137 
L 533.436211 156.93949 
" clip-path="url(#p5474ee4487)" style="fill: none; stroke: #285b2d; stroke-width: 1.2"/>
   </g>
   <g id="line2d_23">
    <defs>
     <path id="m4b3bb5f2ca" d="M 5 0 
L -5 -0 
" style="stroke: #285b2d"/>
    </defs>
    <g clip-path="url(#p5474ee4487)">
     <use xlink:href="#m4b3bb5f2ca" x="146.675789" y="106.847819" style="fill: #285b2d; stroke: #285b2d"/>
     <use xlink:href="#m4b3bb5f2ca" x="275.59593" y="122.501466" style="fill: #285b2d; stroke: #285b2d"/>
     <use xlink:href="#m4b3bb5f2ca" x="404.51607" y="106.847819" style="fill: #285b2d; stroke: #285b2d"/>
     <use xlink:href="#m4b3bb5f2ca" x="533.436211" y="172.593137" style="fill: #285b2d; stroke: #285b2d"/>
    </g>
   </g>
   <g id="line2d_24">
    <g clip-path="url(#p5474ee4487)">
     <use xlink:href="#m4b3bb5f2ca" x="146.675789" y="66.148337" style="fill: #285b2d; stroke: #285b2d"/>
     <use xlink:href="#m4b3bb5f2ca" x="275.59593" y="47.36396" style="fill: #285b2d; stroke: #285b2d"/>
     <use xlink:href="#m4b3bb5f2ca" x="404.51607" y="50.49469" style="fill: #285b2d; stroke: #285b2d"/>
     <use xlink:href="#m4b3bb5f2ca" x="533.436211" y="156.93949" style="fill: #285b2d; stroke: #285b2d"/>
    </g>
   </g>
   <g id="line2d_25">
    <path d="M 83.376 110.448158 
L 596.736 110.448158 
" clip-path="url(#p5474ee4487)" style="fill: none; stroke-dasharray: 4.44,1.92; stroke-dashoffset: 0; stroke: #333333; stroke-width: 1.2"/>
   </g>
   <g id="patch_8">
    <path d="M 83.376 288.430125 
L 83.376 22.318125 
" style="fill: none; stroke: #000000; stroke-width: 0.8; stroke-linejoin: miter; stroke-linecap: square"/>
   </g>
   <g id="patch_9">
    <path d="M 83.376 288.430125 
L 596.736 288.430125 
" style="fill: none; stroke: #000000; stroke-width: 0.8; stroke-linejoin: miter; stroke-linecap: square"/>
   </g>
   <g id="text_15">
    <!-- 63.2% -->
    <g transform="translate(130.792195 56.068649) scale(0.1 -0.1)">
     <defs>
      <path id="DejaVuSans-2e" d="M 684 794 
L 1344 794 
L 1344 0 
L 684 0 
L 684 794 
z
" transform="scale(0.015625)"/>
     </defs>
     <use xlink:href="#DejaVuSans-36"/>
     <use xlink:href="#DejaVuSans-33" transform="translate(63.623047 0)"/>
     <use xlink:href="#DejaVuSans-2e" transform="translate(127.246094 0)"/>
     <use xlink:href="#DejaVuSans-32" transform="translate(159.033203 0)"/>
     <use xlink:href="#DejaVuSans-25" transform="translate(222.65625 0)"/>
    </g>
   </g>
   <g id="text_16">
    <!-- 61.7% -->
    <g transform="translate(259.712336 37.284273) scale(0.1 -0.1)">
     <use xlink:href="#DejaVuSans-36"/>
     <use xlink:href="#DejaVuSans-31" transform="translate(63.623047 0)"/>
     <use xlink:href="#DejaVuSans-2e" transform="translate(127.246094 0)"/>
     <use xlink:href="#DejaVuSans-37" transform="translate(159.033203 0)"/>
     <use xlink:href="#DejaVuSans-25" transform="translate(222.65625 0)"/>
    </g>
   </g>
   <g id="text_17">
    <!-- 63.2% -->
    <g transform="translate(388.632477 40.415002) scale(0.1 -0.1)">
     <use xlink:href="#DejaVuSans-36"/>
     <use xlink:href="#DejaVuSans-33" transform="translate(63.623047 0)"/>
     <use xlink:href="#DejaVuSans-2e" transform="translate(127.246094 0)"/>
     <use xlink:href="#DejaVuSans-32" transform="translate(159.033203 0)"/>
     <use xlink:href="#DejaVuSans-25" transform="translate(222.65625 0)"/>
    </g>
   </g>
   <g id="text_18">
    <!-- 39.3% -->
    <g transform="translate(517.552617 146.859802) scale(0.1 -0.1)">
     <defs>
      <path id="DejaVuSans-39" d="M 703 97 
L 703 672 
Q 941 559 1184 500 
Q 1428 441 1663 441 
Q 2288 441 2617 861 
Q 2947 1281 2994 2138 
Q 2813 1869 2534 1725 
Q 2256 1581 1919 1581 
Q 1219 1581 811 2004 
Q 403 2428 403 3163 
Q 403 3881 828 4315 
Q 1253 4750 1959 4750 
Q 2769 4750 3195 4129 
Q 3622 3509 3622 2328 
Q 3622 1225 3098 567 
Q 2575 -91 1691 -91 
Q 1453 -91 1209 -44 
Q 966 3 703 97 
z
M 1959 2075 
Q 2384 2075 2632 2365 
Q 2881 2656 2881 3163 
Q 2881 3666 2632 3958 
Q 2384 4250 1959 4250 
Q 1534 4250 1286 3958 
Q 1038 3666 1038 3163 
Q 1038 2656 1286 2365 
Q 1534 2075 1959 2075 
z
" transform="scale(0.015625)"/>
     </defs>
     <use xlink:href="#DejaVuSans-33"/>
     <use xlink:href="#DejaVuSans-39" transform="translate(63.623047 0)"/>
     <use xlink:href="#DejaVuSans-2e" transform="translate(127.246094 0)"/>
     <use xlink:href="#DejaVuSans-33" transform="translate(159.033203 0)"/>
     <use xlink:href="#DejaVuSans-25" transform="translate(222.65625 0)"/>
    </g>
   </g>
   <g id="text_19">
    <!-- Sustained four-GPU DDP leaves room for concurrent self-play -->
    <g transform="translate(132.060375 16.318125) scale(0.12 -0.12)">
     <defs>
      <path id="DejaVuSans-Bold-53" d="M 3834 4519 
L 3834 3531 
Q 3450 3703 3084 3790 
Q 2719 3878 2394 3878 
Q 1963 3878 1756 3759 
Q 1550 3641 1550 3391 
Q 1550 3203 1689 3098 
Q 1828 2994 2194 2919 
L 2706 2816 
Q 3484 2659 3812 2340 
Q 4141 2022 4141 1434 
Q 4141 663 3683 286 
Q 3225 -91 2284 -91 
Q 1841 -91 1394 -6 
Q 947 78 500 244 
L 500 1259 
Q 947 1022 1364 901 
Q 1781 781 2169 781 
Q 2563 781 2772 912 
Q 2981 1044 2981 1288 
Q 2981 1506 2839 1625 
Q 2697 1744 2272 1838 
L 1806 1941 
Q 1106 2091 782 2419 
Q 459 2747 459 3303 
Q 459 4000 909 4375 
Q 1359 4750 2203 4750 
Q 2588 4750 2994 4692 
Q 3400 4634 3834 4519 
z
" transform="scale(0.015625)"/>
      <path id="DejaVuSans-Bold-75" d="M 500 1363 
L 500 3500 
L 1625 3500 
L 1625 3150 
Q 1625 2866 1622 2436 
Q 1619 2006 1619 1863 
Q 1619 1441 1641 1255 
Q 1663 1069 1716 984 
Q 1784 875 1895 815 
Q 2006 756 2150 756 
Q 2500 756 2700 1025 
Q 2900 1294 2900 1772 
L 2900 3500 
L 4019 3500 
L 4019 0 
L 2900 0 
L 2900 506 
Q 2647 200 2364 54 
Q 2081 -91 1741 -91 
Q 1134 -91 817 281 
Q 500 653 500 1363 
z
" transform="scale(0.015625)"/>
      <path id="DejaVuSans-Bold-73" d="M 3272 3391 
L 3272 2541 
Q 2913 2691 2578 2766 
Q 2244 2841 1947 2841 
Q 1628 2841 1473 2761 
Q 1319 2681 1319 2516 
Q 1319 2381 1436 2309 
Q 1553 2238 1856 2203 
L 2053 2175 
Q 2913 2066 3209 1816 
Q 3506 1566 3506 1031 
Q 3506 472 3093 190 
Q 2681 -91 1863 -91 
Q 1516 -91 1145 -36 
Q 775 19 384 128 
L 384 978 
Q 719 816 1070 734 
Q 1422 653 1784 653 
Q 2113 653 2278 743 
Q 2444 834 2444 1013 
Q 2444 1163 2330 1236 
Q 2216 1309 1875 1350 
L 1678 1375 
Q 931 1469 631 1722 
Q 331 1975 331 2491 
Q 331 3047 712 3315 
Q 1094 3584 1881 3584 
Q 2191 3584 2531 3537 
Q 2872 3491 3272 3391 
z
" transform="scale(0.015625)"/>
      <path id="DejaVuSans-Bold-74" d="M 1759 4494 
L 1759 3500 
L 2913 3500 
L 2913 2700 
L 1759 2700 
L 1759 1216 
Q 1759 972 1856 886 
Q 1953 800 2241 800 
L 2816 800 
L 2816 0 
L 1856 0 
Q 1194 0 917 276 
Q 641 553 641 1216 
L 641 2700 
L 84 2700 
L 84 3500 
L 641 3500 
L 641 4494 
L 1759 4494 
z
" transform="scale(0.015625)"/>
      <path id="DejaVuSans-Bold-61" d="M 2106 1575 
Q 1756 1575 1579 1456 
Q 1403 1338 1403 1106 
Q 1403 894 1545 773 
Q 1688 653 1941 653 
Q 2256 653 2472 879 
Q 2688 1106 2688 1447 
L 2688 1575 
L 2106 1575 
z
M 3816 1997 
L 3816 0 
L 2688 0 
L 2688 519 
Q 2463 200 2181 54 
Q 1900 -91 1497 -91 
Q 953 -91 614 226 
Q 275 544 275 1050 
Q 275 1666 698 1953 
Q 1122 2241 2028 2241 
L 2688 2241 
L 2688 2328 
Q 2688 2594 2478 2717 
Q 2269 2841 1825 2841 
Q 1466 2841 1156 2769 
Q 847 2697 581 2553 
L 581 3406 
Q 941 3494 1303 3539 
Q 1666 3584 2028 3584 
Q 2975 3584 3395 3211 
Q 3816 2838 3816 1997 
z
" transform="scale(0.015625)"/>
      <path id="DejaVuSans-Bold-69" d="M 538 3500 
L 1656 3500 
L 1656 0 
L 538 0 
L 538 3500 
z
M 538 4863 
L 1656 4863 
L 1656 3950 
L 538 3950 
L 538 4863 
z
" transform="scale(0.015625)"/>
      <path id="DejaVuSans-Bold-6e" d="M 4056 2131 
L 4056 0 
L 2931 0 
L 2931 347 
L 2931 1631 
Q 2931 2084 2911 2256 
Q 2891 2428 2841 2509 
Q 2775 2619 2662 2680 
Q 2550 2741 2406 2741 
Q 2056 2741 1856 2470 
Q 1656 2200 1656 1722 
L 1656 0 
L 538 0 
L 538 3500 
L 1656 3500 
L 1656 2988 
Q 1909 3294 2193 3439 
Q 2478 3584 2822 3584 
Q 3428 3584 3742 3212 
Q 4056 2841 4056 2131 
z
" transform="scale(0.015625)"/>
      <path id="DejaVuSans-Bold-65" d="M 4031 1759 
L 4031 1441 
L 1416 1441 
Q 1456 1047 1700 850 
Q 1944 653 2381 653 
Q 2734 653 3104 758 
Q 3475 863 3866 1075 
L 3866 213 
Q 3469 63 3072 -14 
Q 2675 -91 2278 -91 
Q 1328 -91 801 392 
Q 275 875 275 1747 
Q 275 2603 792 3093 
Q 1309 3584 2216 3584 
Q 3041 3584 3536 3087 
Q 4031 2591 4031 1759 
z
M 2881 2131 
Q 2881 2450 2695 2645 
Q 2509 2841 2209 2841 
Q 1884 2841 1681 2658 
Q 1478 2475 1428 2131 
L 2881 2131 
z
" transform="scale(0.015625)"/>
      <path id="DejaVuSans-Bold-64" d="M 2919 2988 
L 2919 4863 
L 4044 4863 
L 4044 0 
L 2919 0 
L 2919 506 
Q 2688 197 2409 53 
Q 2131 -91 1766 -91 
Q 1119 -91 703 423 
Q 288 938 288 1747 
Q 288 2556 703 3070 
Q 1119 3584 1766 3584 
Q 2128 3584 2408 3439 
Q 2688 3294 2919 2988 
z
M 2181 722 
Q 2541 722 2730 984 
Q 2919 1247 2919 1747 
Q 2919 2247 2730 2509 
Q 2541 2772 2181 2772 
Q 1825 2772 1636 2509 
Q 1447 2247 1447 1747 
Q 1447 1247 1636 984 
Q 1825 722 2181 722 
z
" transform="scale(0.015625)"/>
      <path id="DejaVuSans-Bold-20" transform="scale(0.015625)"/>
      <path id="DejaVuSans-Bold-66" d="M 2841 4863 
L 2841 4128 
L 2222 4128 
Q 1984 4128 1890 4042 
Q 1797 3956 1797 3744 
L 1797 3500 
L 2753 3500 
L 2753 2700 
L 1797 2700 
L 1797 0 
L 678 0 
L 678 2700 
L 122 2700 
L 122 3500 
L 678 3500 
L 678 3744 
Q 678 4316 997 4589 
Q 1316 4863 1984 4863 
L 2841 4863 
z
" transform="scale(0.015625)"/>
      <path id="DejaVuSans-Bold-6f" d="M 2203 2784 
Q 1831 2784 1636 2517 
Q 1441 2250 1441 1747 
Q 1441 1244 1636 976 
Q 1831 709 2203 709 
Q 2569 709 2762 976 
Q 2956 1244 2956 1747 
Q 2956 2250 2762 2517 
Q 2569 2784 2203 2784 
z
M 2203 3584 
Q 3106 3584 3614 3096 
Q 4122 2609 4122 1747 
Q 4122 884 3614 396 
Q 3106 -91 2203 -91 
Q 1297 -91 786 396 
Q 275 884 275 1747 
Q 275 2609 786 3096 
Q 1297 3584 2203 3584 
z
" transform="scale(0.015625)"/>
      <path id="DejaVuSans-Bold-72" d="M 3138 2547 
Q 2991 2616 2845 2648 
Q 2700 2681 2553 2681 
Q 2122 2681 1889 2404 
Q 1656 2128 1656 1613 
L 1656 0 
L 538 0 
L 538 3500 
L 1656 3500 
L 1656 2925 
Q 1872 3269 2151 3426 
Q 2431 3584 2822 3584 
Q 2878 3584 2943 3579 
Q 3009 3575 3134 3559 
L 3138 2547 
z
" transform="scale(0.015625)"/>
      <path id="DejaVuSans-Bold-2d" d="M 347 2297 
L 2309 2297 
L 2309 1388 
L 347 1388 
L 347 2297 
z
" transform="scale(0.015625)"/>
      <path id="DejaVuSans-Bold-47" d="M 4781 347 
Q 4331 128 3847 18 
Q 3363 -91 2847 -91 
Q 1681 -91 1000 561 
Q 319 1213 319 2328 
Q 319 3456 1012 4103 
Q 1706 4750 2913 4750 
Q 3378 4750 3804 4662 
Q 4231 4575 4609 4403 
L 4609 3438 
Q 4219 3659 3833 3768 
Q 3447 3878 3059 3878 
Q 2341 3878 1952 3476 
Q 1563 3075 1563 2328 
Q 1563 1588 1938 1184 
Q 2313 781 3003 781 
Q 3191 781 3352 804 
Q 3513 828 3641 878 
L 3641 1784 
L 2906 1784 
L 2906 2591 
L 4781 2591 
L 4781 347 
z
" transform="scale(0.015625)"/>
      <path id="DejaVuSans-Bold-50" d="M 588 4666 
L 2584 4666 
Q 3475 4666 3951 4270 
Q 4428 3875 4428 3144 
Q 4428 2409 3951 2014 
Q 3475 1619 2584 1619 
L 1791 1619 
L 1791 0 
L 588 0 
L 588 4666 
z
M 1791 3794 
L 1791 2491 
L 2456 2491 
Q 2806 2491 2997 2661 
Q 3188 2831 3188 3144 
Q 3188 3456 2997 3625 
Q 2806 3794 2456 3794 
L 1791 3794 
z
" transform="scale(0.015625)"/>
      <path id="DejaVuSans-Bold-55" d="M 588 4666 
L 1791 4666 
L 1791 1869 
Q 1791 1291 1980 1042 
Q 2169 794 2597 794 
Q 3028 794 3217 1042 
Q 3406 1291 3406 1869 
L 3406 4666 
L 4609 4666 
L 4609 1869 
Q 4609 878 4112 393 
Q 3616 -91 2597 -91 
Q 1581 -91 1084 393 
Q 588 878 588 1869 
L 588 4666 
z
" transform="scale(0.015625)"/>
      <path id="DejaVuSans-Bold-44" d="M 1791 3756 
L 1791 909 
L 2222 909 
Q 2959 909 3348 1275 
Q 3738 1641 3738 2338 
Q 3738 3031 3350 3393 
Q 2963 3756 2222 3756 
L 1791 3756 
z
M 588 4666 
L 1856 4666 
Q 2919 4666 3439 4514 
Q 3959 4363 4331 4000 
Q 4659 3684 4818 3271 
Q 4978 2859 4978 2338 
Q 4978 1809 4818 1395 
Q 4659 981 4331 666 
Q 3956 303 3431 151 
Q 2906 0 1856 0 
L 588 0 
L 588 4666 
z
" transform="scale(0.015625)"/>
      <path id="DejaVuSans-Bold-6c" d="M 538 4863 
L 1656 4863 
L 1656 0 
L 538 0 
L 538 4863 
z
" transform="scale(0.015625)"/>
      <path id="DejaVuSans-Bold-76" d="M 97 3500 
L 1216 3500 
L 2088 1081 
L 2956 3500 
L 4078 3500 
L 2700 0 
L 1472 0 
L 97 3500 
z
" transform="scale(0.015625)"/>
      <path id="DejaVuSans-Bold-6d" d="M 3781 2919 
Q 3994 3244 4286 3414 
Q 4578 3584 4928 3584 
Q 5531 3584 5847 3212 
Q 6163 2841 6163 2131 
L 6163 0 
L 5038 0 
L 5038 1825 
Q 5041 1866 5042 1909 
Q 5044 1953 5044 2034 
Q 5044 2406 4934 2573 
Q 4825 2741 4581 2741 
Q 4263 2741 4089 2478 
Q 3916 2216 3909 1719 
L 3909 0 
L 2784 0 
L 2784 1825 
Q 2784 2406 2684 2573 
Q 2584 2741 2328 2741 
Q 2006 2741 1831 2477 
Q 1656 2213 1656 1722 
L 1656 0 
L 531 0 
L 531 3500 
L 1656 3500 
L 1656 2988 
Q 1863 3284 2130 3434 
Q 2397 3584 2719 3584 
Q 3081 3584 3359 3409 
Q 3638 3234 3781 2919 
z
" transform="scale(0.015625)"/>
      <path id="DejaVuSans-Bold-63" d="M 3366 3391 
L 3366 2478 
Q 3138 2634 2908 2709 
Q 2678 2784 2431 2784 
Q 1963 2784 1702 2511 
Q 1441 2238 1441 1747 
Q 1441 1256 1702 982 
Q 1963 709 2431 709 
Q 2694 709 2930 787 
Q 3166 866 3366 1019 
L 3366 103 
Q 3103 6 2833 -42 
Q 2563 -91 2291 -91 
Q 1344 -91 809 395 
Q 275 881 275 1747 
Q 275 2613 809 3098 
Q 1344 3584 2291 3584 
Q 2566 3584 2833 3536 
Q 3100 3488 3366 3391 
z
" transform="scale(0.015625)"/>
      <path id="DejaVuSans-Bold-70" d="M 1656 506 
L 1656 -1331 
L 538 -1331 
L 538 3500 
L 1656 3500 
L 1656 2988 
Q 1888 3294 2169 3439 
Q 2450 3584 2816 3584 
Q 3463 3584 3878 3070 
Q 4294 2556 4294 1747 
Q 4294 938 3878 423 
Q 3463 -91 2816 -91 
Q 2450 -91 2169 54 
Q 1888 200 1656 506 
z
M 2400 2772 
Q 2041 2772 1848 2508 
Q 1656 2244 1656 1747 
Q 1656 1250 1848 986 
Q 2041 722 2400 722 
Q 2759 722 2948 984 
Q 3138 1247 3138 1747 
Q 3138 2247 2948 2509 
Q 2759 2772 2400 2772 
z
" transform="scale(0.015625)"/>
      <path id="DejaVuSans-Bold-79" d="M 78 3500 
L 1197 3500 
L 2138 1125 
L 2938 3500 
L 4056 3500 
L 2584 -331 
Q 2363 -916 2067 -1148 
Q 1772 -1381 1288 -1381 
L 641 -1381 
L 641 -647 
L 991 -647 
Q 1275 -647 1404 -556 
Q 1534 -466 1606 -231 
L 1638 -134 
L 78 3500 
z
" transform="scale(0.015625)"/>
     </defs>
     <use xlink:href="#DejaVuSans-Bold-53"/>
     <use xlink:href="#DejaVuSans-Bold-75" transform="translate(72.021484 0)"/>
     <use xlink:href="#DejaVuSans-Bold-73" transform="translate(143.212891 0)"/>
     <use xlink:href="#DejaVuSans-Bold-74" transform="translate(202.734375 0)"/>
     <use xlink:href="#DejaVuSans-Bold-61" transform="translate(250.537109 0)"/>
     <use xlink:href="#DejaVuSans-Bold-69" transform="translate(318.017578 0)"/>
     <use xlink:href="#DejaVuSans-Bold-6e" transform="translate(352.294922 0)"/>
     <use xlink:href="#DejaVuSans-Bold-65" transform="translate(423.486328 0)"/>
     <use xlink:href="#DejaVuSans-Bold-64" transform="translate(491.308594 0)"/>
     <use xlink:href="#DejaVuSans-Bold-20" transform="translate(562.890625 0)"/>
     <use xlink:href="#DejaVuSans-Bold-66" transform="translate(597.705078 0)"/>
     <use xlink:href="#DejaVuSans-Bold-6f" transform="translate(641.210938 0)"/>
     <use xlink:href="#DejaVuSans-Bold-75" transform="translate(709.912109 0)"/>
     <use xlink:href="#DejaVuSans-Bold-72" transform="translate(781.103516 0)"/>
     <use xlink:href="#DejaVuSans-Bold-2d" transform="translate(830.419922 0)"/>
     <use xlink:href="#DejaVuSans-Bold-47" transform="translate(871.923828 0)"/>
     <use xlink:href="#DejaVuSans-Bold-50" transform="translate(954.003906 0)"/>
     <use xlink:href="#DejaVuSans-Bold-55" transform="translate(1027.294922 0)"/>
     <use xlink:href="#DejaVuSans-Bold-20" transform="translate(1108.496094 0)"/>
     <use xlink:href="#DejaVuSans-Bold-44" transform="translate(1143.310547 0)"/>
     <use xlink:href="#DejaVuSans-Bold-44" transform="translate(1226.318359 0)"/>
     <use xlink:href="#DejaVuSans-Bold-50" transform="translate(1309.326172 0)"/>
     <use xlink:href="#DejaVuSans-Bold-20" transform="translate(1382.617188 0)"/>
     <use xlink:href="#DejaVuSans-Bold-6c" transform="translate(1417.431641 0)"/>
     <use xlink:href="#DejaVuSans-Bold-65" transform="translate(1451.708984 0)"/>
     <use xlink:href="#DejaVuSans-Bold-61" transform="translate(1519.53125 0)"/>
     <use xlink:href="#DejaVuSans-Bold-76" transform="translate(1587.011719 0)"/>
     <use xlink:href="#DejaVuSans-Bold-65" transform="translate(1652.197266 0)"/>
     <use xlink:href="#DejaVuSans-Bold-73" transform="translate(1720.019531 0)"/>
     <use xlink:href="#DejaVuSans-Bold-20" transform="translate(1779.541016 0)"/>
     <use xlink:href="#DejaVuSans-Bold-72" transform="translate(1814.355469 0)"/>
     <use xlink:href="#DejaVuSans-Bold-6f" transform="translate(1863.671875 0)"/>
     <use xlink:href="#DejaVuSans-Bold-6f" transform="translate(1932.373047 0)"/>
     <use xlink:href="#DejaVuSans-Bold-6d" transform="translate(2001.074219 0)"/>
     <use xlink:href="#DejaVuSans-Bold-20" transform="translate(2105.273438 0)"/>
     <use xlink:href="#DejaVuSans-Bold-66" transform="translate(2140.087891 0)"/>
     <use xlink:href="#DejaVuSans-Bold-6f" transform="translate(2183.59375 0)"/>
     <use xlink:href="#DejaVuSans-Bold-72" transform="translate(2252.294922 0)"/>
     <use xlink:href="#DejaVuSans-Bold-20" transform="translate(2301.611328 0)"/>
     <use xlink:href="#DejaVuSans-Bold-63" transform="translate(2336.425781 0)"/>
     <use xlink:href="#DejaVuSans-Bold-6f" transform="translate(2395.703125 0)"/>
     <use xlink:href="#DejaVuSans-Bold-6e" transform="translate(2464.404297 0)"/>
     <use xlink:href="#DejaVuSans-Bold-63" transform="translate(2535.595703 0)"/>
     <use xlink:href="#DejaVuSans-Bold-75" transform="translate(2594.873047 0)"/>
     <use xlink:href="#DejaVuSans-Bold-72" transform="translate(2666.064453 0)"/>
     <use xlink:href="#DejaVuSans-Bold-72" transform="translate(2715.380859 0)"/>
     <use xlink:href="#DejaVuSans-Bold-65" transform="translate(2764.697266 0)"/>
     <use xlink:href="#DejaVuSans-Bold-6e" transform="translate(2832.519531 0)"/>
     <use xlink:href="#DejaVuSans-Bold-74" transform="translate(2903.710938 0)"/>
     <use xlink:href="#DejaVuSans-Bold-20" transform="translate(2951.513672 0)"/>
     <use xlink:href="#DejaVuSans-Bold-73" transform="translate(2986.328125 0)"/>
     <use xlink:href="#DejaVuSans-Bold-65" transform="translate(3045.849609 0)"/>
     <use xlink:href="#DejaVuSans-Bold-6c" transform="translate(3113.671875 0)"/>
     <use xlink:href="#DejaVuSans-Bold-66" transform="translate(3147.949219 0)"/>
     <use xlink:href="#DejaVuSans-Bold-2d" transform="translate(3189.705078 0)"/>
     <use xlink:href="#DejaVuSans-Bold-70" transform="translate(3231.208984 0)"/>
     <use xlink:href="#DejaVuSans-Bold-6c" transform="translate(3302.791016 0)"/>
     <use xlink:href="#DejaVuSans-Bold-61" transform="translate(3337.068359 0)"/>
     <use xlink:href="#DejaVuSans-Bold-79" transform="translate(3401.423828 0)"/>
    </g>
   </g>
   <g id="legend_1">
    <g id="line2d_26">
     <path d="M 610.8696 35.416562 
L 620.8696 35.416562 
L 630.8696 35.416562 
" style="fill: none; stroke-dasharray: 4.44,1.92; stroke-dashoffset: 0; stroke: #333333; stroke-width: 1.2"/>
    </g>
    <g id="text_20">
     <!-- Four-GPU mean: 56.9% -->
     <g transform="translate(638.8696 38.916562) scale(0.1 -0.1)">
      <defs>
       <path id="DejaVuSans-46" d="M 628 4666 
L 3309 4666 
L 3309 4134 
L 1259 4134 
L 1259 2759 
L 3109 2759 
L 3109 2228 
L 1259 2228 
L 1259 0 
L 628 0 
L 628 4666 
z
" transform="scale(0.015625)"/>
       <path id="DejaVuSans-75" d="M 544 1381 
L 544 3500 
L 1119 3500 
L 1119 1403 
Q 1119 906 1312 657 
Q 1506 409 1894 409 
Q 2359 409 2629 706 
Q 2900 1003 2900 1516 
L 2900 3500 
L 3475 3500 
L 3475 0 
L 2900 0 
L 2900 538 
Q 2691 219 2414 64 
Q 2138 -91 1772 -91 
Q 1169 -91 856 284 
Q 544 659 544 1381 
z
M 1991 3584 
L 1991 3584 
z
" transform="scale(0.015625)"/>
       <path id="DejaVuSans-72" d="M 2631 2963 
Q 2534 3019 2420 3045 
Q 2306 3072 2169 3072 
Q 1681 3072 1420 2755 
Q 1159 2438 1159 1844 
L 1159 0 
L 581 0 
L 581 3500 
L 1159 3500 
L 1159 2956 
Q 1341 3275 1631 3429 
Q 1922 3584 2338 3584 
Q 2397 3584 2469 3576 
Q 2541 3569 2628 3553 
L 2631 2963 
z
" transform="scale(0.015625)"/>
       <path id="DejaVuSans-2d" d="M 313 2009 
L 1997 2009 
L 1997 1497 
L 313 1497 
L 313 2009 
z
" transform="scale(0.015625)"/>
       <path id="DejaVuSans-6d" d="M 3328 2828 
Q 3544 3216 3844 3400 
Q 4144 3584 4550 3584 
Q 5097 3584 5394 3201 
Q 5691 2819 5691 2113 
L 5691 0 
L 5113 0 
L 5113 2094 
Q 5113 2597 4934 2840 
Q 4756 3084 4391 3084 
Q 3944 3084 3684 2787 
Q 3425 2491 3425 1978 
L 3425 0 
L 2847 0 
L 2847 2094 
Q 2847 2600 2669 2842 
Q 2491 3084 2119 3084 
Q 1678 3084 1418 2786 
Q 1159 2488 1159 1978 
L 1159 0 
L 581 0 
L 581 3500 
L 1159 3500 
L 1159 2956 
Q 1356 3278 1631 3431 
Q 1906 3584 2284 3584 
Q 2666 3584 2933 3390 
Q 3200 3197 3328 2828 
z
" transform="scale(0.015625)"/>
       <path id="DejaVuSans-65" d="M 3597 1894 
L 3597 1613 
L 953 1613 
Q 991 1019 1311 708 
Q 1631 397 2203 397 
Q 2534 397 2845 478 
Q 3156 559 3463 722 
L 3463 178 
Q 3153 47 2828 -22 
Q 2503 -91 2169 -91 
Q 1331 -91 842 396 
Q 353 884 353 1716 
Q 353 2575 817 3079 
Q 1281 3584 2069 3584 
Q 2775 3584 3186 3129 
Q 3597 2675 3597 1894 
z
M 3022 2063 
Q 3016 2534 2758 2815 
Q 2500 3097 2075 3097 
Q 1594 3097 1305 2825 
Q 1016 2553 972 2059 
L 3022 2063 
z
" transform="scale(0.015625)"/>
       <path id="DejaVuSans-3a" d="M 750 794 
L 1409 794 
L 1409 0 
L 750 0 
L 750 794 
z
M 750 3309 
L 1409 3309 
L 1409 2516 
L 750 2516 
L 750 3309 
z
" transform="scale(0.015625)"/>
      </defs>
      <use xlink:href="#DejaVuSans-46"/>
      <use xlink:href="#DejaVuSans-6f" transform="translate(53.894531 0)"/>
      <use xlink:href="#DejaVuSans-75" transform="translate(115.076172 0)"/>
      <use xlink:href="#DejaVuSans-72" transform="translate(178.455078 0)"/>
      <use xlink:href="#DejaVuSans-2d" transform="translate(213.193359 0)"/>
      <use xlink:href="#DejaVuSans-47" transform="translate(252.902344 0)"/>
      <use xlink:href="#DejaVuSans-50" transform="translate(330.392578 0)"/>
      <use xlink:href="#DejaVuSans-55" transform="translate(390.695312 0)"/>
      <use xlink:href="#DejaVuSans-20" transform="translate(463.888672 0)"/>
      <use xlink:href="#DejaVuSans-6d" transform="translate(495.675781 0)"/>
      <use xlink:href="#DejaVuSans-65" transform="translate(593.087891 0)"/>
      <use xlink:href="#DejaVuSans-61" transform="translate(654.611328 0)"/>
      <use xlink:href="#DejaVuSans-6e" transform="translate(715.890625 0)"/>
      <use xlink:href="#DejaVuSans-3a" transform="translate(779.269531 0)"/>
      <use xlink:href="#DejaVuSans-20" transform="translate(812.960938 0)"/>
      <use xlink:href="#DejaVuSans-35" transform="translate(844.748047 0)"/>
      <use xlink:href="#DejaVuSans-36" transform="translate(908.371094 0)"/>
      <use xlink:href="#DejaVuSans-2e" transform="translate(971.994141 0)"/>
      <use xlink:href="#DejaVuSans-39" transform="translate(1003.78125 0)"/>
      <use xlink:href="#DejaVuSans-25" transform="translate(1067.404297 0)"/>
     </g>
    </g>
    <g id="patch_10">
     <path d="M 610.8696 53.594687 
L 630.8696 53.594687 
L 630.8696 46.594687 
L 610.8696 46.594687 
z
" style="fill: #b9d7ea; opacity: 0.55; stroke: #b9d7ea; stroke-linejoin: miter"/>
    </g>
    <g id="text_21">
     <!-- Memory-controller range: 15–18% -->
     <g transform="translate(638.8696 53.594687) scale(0.1 -0.1)">
      <defs>
       <path id="DejaVuSans-4d" d="M 628 4666 
L 1569 4666 
L 2759 1491 
L 3956 4666 
L 4897 4666 
L 4897 0 
L 4281 0 
L 4281 4097 
L 3078 897 
L 2444 897 
L 1241 4097 
L 1241 0 
L 628 0 
L 628 4666 
z
" transform="scale(0.015625)"/>
       <path id="DejaVuSans-79" d="M 2059 -325 
Q 1816 -950 1584 -1140 
Q 1353 -1331 966 -1331 
L 506 -1331 
L 506 -850 
L 844 -850 
Q 1081 -850 1212 -737 
Q 1344 -625 1503 -206 
L 1606 56 
L 191 3500 
L 800 3500 
L 1894 763 
L 2988 3500 
L 3597 3500 
L 2059 -325 
z
" transform="scale(0.015625)"/>
       <path id="DejaVuSans-63" d="M 3122 3366 
L 3122 2828 
Q 2878 2963 2633 3030 
Q 2388 3097 2138 3097 
Q 1578 3097 1268 2742 
Q 959 2388 959 1747 
Q 959 1106 1268 751 
Q 1578 397 2138 397 
Q 2388 397 2633 464 
Q 2878 531 3122 666 
L 3122 134 
Q 2881 22 2623 -34 
Q 2366 -91 2075 -91 
Q 1284 -91 818 406 
Q 353 903 353 1747 
Q 353 2603 823 3093 
Q 1294 3584 2113 3584 
Q 2378 3584 2631 3529 
Q 2884 3475 3122 3366 
z
" transform="scale(0.015625)"/>
       <path id="DejaVuSans-67" d="M 2906 1791 
Q 2906 2416 2648 2759 
Q 2391 3103 1925 3103 
Q 1463 3103 1205 2759 
Q 947 2416 947 1791 
Q 947 1169 1205 825 
Q 1463 481 1925 481 
Q 2391 481 2648 825 
Q 2906 1169 2906 1791 
z
M 3481 434 
Q 3481 -459 3084 -895 
Q 2688 -1331 1869 -1331 
Q 1566 -1331 1297 -1286 
Q 1028 -1241 775 -1147 
L 775 -588 
Q 1028 -725 1275 -790 
Q 1522 -856 1778 -856 
Q 2344 -856 2625 -561 
Q 2906 -266 2906 331 
L 2906 616 
Q 2728 306 2450 153 
Q 2172 0 1784 0 
Q 1141 0 747 490 
Q 353 981 353 1791 
Q 353 2603 747 3093 
Q 1141 3584 1784 3584 
Q 2172 3584 2450 3431 
Q 2728 3278 2906 2969 
L 2906 3500 
L 3481 3500 
L 3481 434 
z
" transform="scale(0.015625)"/>
       <path id="DejaVuSans-2013" d="M 313 1978 
L 2888 1978 
L 2888 1528 
L 313 1528 
L 313 1978 
z
" transform="scale(0.015625)"/>
      </defs>
      <use xlink:href="#DejaVuSans-4d"/>
      <use xlink:href="#DejaVuSans-65" transform="translate(86.279297 0)"/>
      <use xlink:href="#DejaVuSans-6d" transform="translate(147.802734 0)"/>
      <use xlink:href="#DejaVuSans-6f" transform="translate(245.214844 0)"/>
      <use xlink:href="#DejaVuSans-72" transform="translate(306.396484 0)"/>
      <use xlink:href="#DejaVuSans-79" transform="translate(347.509766 0)"/>
      <use xlink:href="#DejaVuSans-2d" transform="translate(404.939453 0)"/>
      <use xlink:href="#DejaVuSans-63" transform="translate(441.023438 0)"/>
      <use xlink:href="#DejaVuSans-6f" transform="translate(496.003906 0)"/>
      <use xlink:href="#DejaVuSans-6e" transform="translate(557.185547 0)"/>
      <use xlink:href="#DejaVuSans-74" transform="translate(620.564453 0)"/>
      <use xlink:href="#DejaVuSans-72" transform="translate(659.773438 0)"/>
      <use xlink:href="#DejaVuSans-6f" transform="translate(698.636719 0)"/>
      <use xlink:href="#DejaVuSans-6c" transform="translate(759.818359 0)"/>
      <use xlink:href="#DejaVuSans-6c" transform="translate(787.601562 0)"/>
      <use xlink:href="#DejaVuSans-65" transform="translate(815.384766 0)"/>
      <use xlink:href="#DejaVuSans-72" transform="translate(876.908203 0)"/>
      <use xlink:href="#DejaVuSans-20" transform="translate(918.021484 0)"/>
      <use xlink:href="#DejaVuSans-72" transform="translate(949.808594 0)"/>
      <use xlink:href="#DejaVuSans-61" transform="translate(990.921875 0)"/>
      <use xlink:href="#DejaVuSans-6e" transform="translate(1052.201172 0)"/>
      <use xlink:href="#DejaVuSans-67" transform="translate(1115.580078 0)"/>
      <use xlink:href="#DejaVuSans-65" transform="translate(1179.056641 0)"/>
      <use xlink:href="#DejaVuSans-3a" transform="translate(1240.580078 0)"/>
      <use xlink:href="#DejaVuSans-20" transform="translate(1274.271484 0)"/>
      <use xlink:href="#DejaVuSans-31" transform="translate(1306.058594 0)"/>
      <use xlink:href="#DejaVuSans-35" transform="translate(1369.681641 0)"/>
      <use xlink:href="#DejaVuSans-2013" transform="translate(1433.304688 0)"/>
      <use xlink:href="#DejaVuSans-31" transform="translate(1483.304688 0)"/>
      <use xlink:href="#DejaVuSans-38" transform="translate(1546.927734 0)"/>
      <use xlink:href="#DejaVuSans-25" transform="translate(1610.550781 0)"/>
     </g>
    </g>
   </g>
  </g>
  <g id="text_22">
   <!-- 800 measured batches; 18 one-second samples per GPU; 38.6k synthetic samples/s sustained. -->
   <g style="fill: #555555" transform="translate(7.2 333.358125) scale(0.085 -0.085)">
    <defs>
     <path id="DejaVuSans-73" d="M 2834 3397 
L 2834 2853 
Q 2591 2978 2328 3040 
Q 2066 3103 1784 3103 
Q 1356 3103 1142 2972 
Q 928 2841 928 2578 
Q 928 2378 1081 2264 
Q 1234 2150 1697 2047 
L 1894 2003 
Q 2506 1872 2764 1633 
Q 3022 1394 3022 966 
Q 3022 478 2636 193 
Q 2250 -91 1575 -91 
Q 1294 -91 989 -36 
Q 684 19 347 128 
L 347 722 
Q 666 556 975 473 
Q 1284 391 1588 391 
Q 1994 391 2212 530 
Q 2431 669 2431 922 
Q 2431 1156 2273 1281 
Q 2116 1406 1581 1522 
L 1381 1569 
Q 847 1681 609 1914 
Q 372 2147 372 2553 
Q 372 3047 722 3315 
Q 1072 3584 1716 3584 
Q 2034 3584 2315 3537 
Q 2597 3491 2834 3397 
z
" transform="scale(0.015625)"/>
     <path id="DejaVuSans-64" d="M 2906 2969 
L 2906 4863 
L 3481 4863 
L 3481 0 
L 2906 0 
L 2906 525 
Q 2725 213 2448 61 
Q 2172 -91 1784 -91 
Q 1150 -91 751 415 
Q 353 922 353 1747 
Q 353 2572 751 3078 
Q 1150 3584 1784 3584 
Q 2172 3584 2448 3432 
Q 2725 3281 2906 2969 
z
M 947 1747 
Q 947 1113 1208 752 
Q 1469 391 1925 391 
Q 2381 391 2643 752 
Q 2906 1113 2906 1747 
Q 2906 2381 2643 2742 
Q 2381 3103 1925 3103 
Q 1469 3103 1208 2742 
Q 947 2381 947 1747 
z
" transform="scale(0.015625)"/>
     <path id="DejaVuSans-62" d="M 3116 1747 
Q 3116 2381 2855 2742 
Q 2594 3103 2138 3103 
Q 1681 3103 1420 2742 
Q 1159 2381 1159 1747 
Q 1159 1113 1420 752 
Q 1681 391 2138 391 
Q 2594 391 2855 752 
Q 3116 1113 3116 1747 
z
M 1159 2969 
Q 1341 3281 1617 3432 
Q 1894 3584 2278 3584 
Q 2916 3584 3314 3078 
Q 3713 2572 3713 1747 
Q 3713 922 3314 415 
Q 2916 -91 2278 -91 
Q 1894 -91 1617 61 
Q 1341 213 1159 525 
L 1159 0 
L 581 0 
L 581 4863 
L 1159 4863 
L 1159 2969 
z
" transform="scale(0.015625)"/>
     <path id="DejaVuSans-68" d="M 3513 2113 
L 3513 0 
L 2938 0 
L 2938 2094 
Q 2938 2591 2744 2837 
Q 2550 3084 2163 3084 
Q 1697 3084 1428 2787 
Q 1159 2491 1159 1978 
L 1159 0 
L 581 0 
L 581 4863 
L 1159 4863 
L 1159 2956 
Q 1366 3272 1645 3428 
Q 1925 3584 2291 3584 
Q 2894 3584 3203 3211 
Q 3513 2838 3513 2113 
z
" transform="scale(0.015625)"/>
     <path id="DejaVuSans-3b" d="M 750 3309 
L 1409 3309 
L 1409 2516 
L 750 2516 
L 750 3309 
z
M 750 794 
L 1409 794 
L 1409 256 
L 897 -744 
L 494 -744 
L 750 256 
L 750 794 
z
" transform="scale(0.015625)"/>
     <path id="DejaVuSans-70" d="M 1159 525 
L 1159 -1331 
L 581 -1331 
L 581 3500 
L 1159 3500 
L 1159 2969 
Q 1341 3281 1617 3432 
Q 1894 3584 2278 3584 
Q 2916 3584 3314 3078 
Q 3713 2572 3713 1747 
Q 3713 922 3314 415 
Q 2916 -91 2278 -91 
Q 1894 -91 1617 61 
Q 1341 213 1159 525 
z
M 3116 1747 
Q 3116 2381 2855 2742 
Q 2594 3103 2138 3103 
Q 1681 3103 1420 2742 
Q 1159 2381 1159 1747 
Q 1159 1113 1420 752 
Q 1681 391 2138 391 
Q 2594 391 2855 752 
Q 3116 1113 3116 1747 
z
" transform="scale(0.015625)"/>
     <path id="DejaVuSans-6b" d="M 581 4863 
L 1159 4863 
L 1159 1991 
L 2875 3500 
L 3609 3500 
L 1753 1863 
L 3688 0 
L 2938 0 
L 1159 1709 
L 1159 0 
L 581 0 
L 581 4863 
z
" transform="scale(0.015625)"/>
     <path id="DejaVuSans-2f" d="M 1625 4666 
L 2156 4666 
L 531 -594 
L 0 -594 
L 1625 4666 
z
" transform="scale(0.015625)"/>
    </defs>
    <use xlink:href="#DejaVuSans-38"/>
    <use xlink:href="#DejaVuSans-30" transform="translate(63.623047 0)"/>
    <use xlink:href="#DejaVuSans-30" transform="translate(127.246094 0)"/>
    <use xlink:href="#DejaVuSans-20" transform="translate(190.869141 0)"/>
    <use xlink:href="#DejaVuSans-6d" transform="translate(222.65625 0)"/>
    <use xlink:href="#DejaVuSans-65" transform="translate(320.068359 0)"/>
    <use xlink:href="#DejaVuSans-61" transform="translate(381.591797 0)"/>
    <use xlink:href="#DejaVuSans-73" transform="translate(442.871094 0)"/>
    <use xlink:href="#DejaVuSans-75" transform="translate(494.970703 0)"/>
    <use xlink:href="#DejaVuSans-72" transform="translate(558.349609 0)"/>
    <use xlink:href="#DejaVuSans-65" transform="translate(597.212891 0)"/>
    <use xlink:href="#DejaVuSans-64" transform="translate(658.736328 0)"/>
    <use xlink:href="#DejaVuSans-20" transform="translate(722.212891 0)"/>
    <use xlink:href="#DejaVuSans-62" transform="translate(754 0)"/>
    <use xlink:href="#DejaVuSans-61" transform="translate(817.476562 0)"/>
    <use xlink:href="#DejaVuSans-74" transform="translate(878.755859 0)"/>
    <use xlink:href="#DejaVuSans-63" transform="translate(917.964844 0)"/>
    <use xlink:href="#DejaVuSans-68" transform="translate(972.945312 0)"/>
    <use xlink:href="#DejaVuSans-65" transform="translate(1036.324219 0)"/>
    <use xlink:href="#DejaVuSans-73" transform="translate(1097.847656 0)"/>
    <use xlink:href="#DejaVuSans-3b" transform="translate(1149.947266 0)"/>
    <use xlink:href="#DejaVuSans-20" transform="translate(1183.638672 0)"/>
    <use xlink:href="#DejaVuSans-31" transform="translate(1215.425781 0)"/>
    <use xlink:href="#DejaVuSans-38" transform="translate(1279.048828 0)"/>
    <use xlink:href="#DejaVuSans-20" transform="translate(1342.671875 0)"/>
    <use xlink:href="#DejaVuSans-6f" transform="translate(1374.458984 0)"/>
    <use xlink:href="#DejaVuSans-6e" transform="translate(1435.640625 0)"/>
    <use xlink:href="#DejaVuSans-65" transform="translate(1499.019531 0)"/>
    <use xlink:href="#DejaVuSans-2d" transform="translate(1560.542969 0)"/>
    <use xlink:href="#DejaVuSans-73" transform="translate(1596.626953 0)"/>
    <use xlink:href="#DejaVuSans-65" transform="translate(1648.726562 0)"/>
    <use xlink:href="#DejaVuSans-63" transform="translate(1710.25 0)"/>
    <use xlink:href="#DejaVuSans-6f" transform="translate(1765.230469 0)"/>
    <use xlink:href="#DejaVuSans-6e" transform="translate(1826.412109 0)"/>
    <use xlink:href="#DejaVuSans-64" transform="translate(1889.791016 0)"/>
    <use xlink:href="#DejaVuSans-20" transform="translate(1953.267578 0)"/>
    <use xlink:href="#DejaVuSans-73" transform="translate(1985.054688 0)"/>
    <use xlink:href="#DejaVuSans-61" transform="translate(2037.154297 0)"/>
    <use xlink:href="#DejaVuSans-6d" transform="translate(2098.433594 0)"/>
    <use xlink:href="#DejaVuSans-70" transform="translate(2195.845703 0)"/>
    <use xlink:href="#DejaVuSans-6c" transform="translate(2259.322266 0)"/>
    <use xlink:href="#DejaVuSans-65" transform="translate(2287.105469 0)"/>
    <use xlink:href="#DejaVuSans-73" transform="translate(2348.628906 0)"/>
    <use xlink:href="#DejaVuSans-20" transform="translate(2400.728516 0)"/>
    <use xlink:href="#DejaVuSans-70" transform="translate(2432.515625 0)"/>
    <use xlink:href="#DejaVuSans-65" transform="translate(2495.992188 0)"/>
    <use xlink:href="#DejaVuSans-72" transform="translate(2557.515625 0)"/>
    <use xlink:href="#DejaVuSans-20" transform="translate(2598.628906 0)"/>
    <use xlink:href="#DejaVuSans-47" transform="translate(2630.416016 0)"/>
    <use xlink:href="#DejaVuSans-50" transform="translate(2707.90625 0)"/>
    <use xlink:href="#DejaVuSans-55" transform="translate(2768.208984 0)"/>
    <use xlink:href="#DejaVuSans-3b" transform="translate(2841.402344 0)"/>
    <use xlink:href="#DejaVuSans-20" transform="translate(2875.09375 0)"/>
    <use xlink:href="#DejaVuSans-33" transform="translate(2906.880859 0)"/>
    <use xlink:href="#DejaVuSans-38" transform="translate(2970.503906 0)"/>
    <use xlink:href="#DejaVuSans-2e" transform="translate(3034.126953 0)"/>
    <use xlink:href="#DejaVuSans-36" transform="translate(3065.914062 0)"/>
    <use xlink:href="#DejaVuSans-6b" transform="translate(3129.537109 0)"/>
    <use xlink:href="#DejaVuSans-20" transform="translate(3187.447266 0)"/>
    <use xlink:href="#DejaVuSans-73" transform="translate(3219.234375 0)"/>
    <use xlink:href="#DejaVuSans-79" transform="translate(3271.333984 0)"/>
    <use xlink:href="#DejaVuSans-6e" transform="translate(3330.513672 0)"/>
    <use xlink:href="#DejaVuSans-74" transform="translate(3393.892578 0)"/>
    <use xlink:href="#DejaVuSans-68" transform="translate(3433.101562 0)"/>
    <use xlink:href="#DejaVuSans-65" transform="translate(3496.480469 0)"/>
    <use xlink:href="#DejaVuSans-74" transform="translate(3558.003906 0)"/>
    <use xlink:href="#DejaVuSans-69" transform="translate(3597.212891 0)"/>
    <use xlink:href="#DejaVuSans-63" transform="translate(3624.996094 0)"/>
    <use xlink:href="#DejaVuSans-20" transform="translate(3679.976562 0)"/>
    <use xlink:href="#DejaVuSans-73" transform="translate(3711.763672 0)"/>
    <use xlink:href="#DejaVuSans-61" transform="translate(3763.863281 0)"/>
    <use xlink:href="#DejaVuSans-6d" transform="translate(3825.142578 0)"/>
    <use xlink:href="#DejaVuSans-70" transform="translate(3922.554688 0)"/>
    <use xlink:href="#DejaVuSans-6c" transform="translate(3986.03125 0)"/>
    <use xlink:href="#DejaVuSans-65" transform="translate(4013.814453 0)"/>
    <use xlink:href="#DejaVuSans-73" transform="translate(4075.337891 0)"/>
    <use xlink:href="#DejaVuSans-2f" transform="translate(4127.4375 0)"/>
    <use xlink:href="#DejaVuSans-73" transform="translate(4161.128906 0)"/>
    <use xlink:href="#DejaVuSans-20" transform="translate(4213.228516 0)"/>
    <use xlink:href="#DejaVuSans-73" transform="translate(4245.015625 0)"/>
    <use xlink:href="#DejaVuSans-75" transform="translate(4297.115234 0)"/>
    <use xlink:href="#DejaVuSans-73" transform="translate(4360.494141 0)"/>
    <use xlink:href="#DejaVuSans-74" transform="translate(4412.59375 0)"/>
    <use xlink:href="#DejaVuSans-61" transform="translate(4451.802734 0)"/>
    <use xlink:href="#DejaVuSans-69" transform="translate(4513.082031 0)"/>
    <use xlink:href="#DejaVuSans-6e" transform="translate(4540.865234 0)"/>
    <use xlink:href="#DejaVuSans-65" transform="translate(4604.244141 0)"/>
    <use xlink:href="#DejaVuSans-64" transform="translate(4665.767578 0)"/>
    <use xlink:href="#DejaVuSans-2e" transform="translate(4729.244141 0)"/>
   </g>
  </g>
 </g>
 <defs>
  <clipPath id="p5474ee4487">
   <rect x="83.376" y="22.318125" width="513.36" height="266.112"/>
  </clipPath>
 </defs>
</svg>
