<?xml version="1.0" encoding="utf-8" standalone="no"?>
<!DOCTYPE svg PUBLIC "-//W3C//DTD SVG 1.1//EN"
  "http://www.w3.org/Graphics/SVG/1.1/DTD/svg11.dtd">
<svg xmlns:xlink="http://www.w3.org/1999/xlink" width="703.669375pt" height="342.325859pt" viewBox="0 0 703.669375 342.325859" xmlns="http://www.w3.org/2000/svg" version="1.1">
 <metadata>
  <rdf:RDF xmlns:dc="http://purl.org/dc/elements/1.1/" xmlns:cc="http://creativecommons.org/ns#" xmlns:rdf="http://www.w3.org/1999/02/22-rdf-syntax-ns#">
   <cc:Work>
    <dc:type rdf:resource="http://purl.org/dc/dcmitype/StillImage"/>
    <dc:date>2026-07-20T18:17:22.927849</dc:date>
    <dc:format>image/svg+xml</dc:format>
    <dc:creator>
     <cc:Agent>
      <dc:title>Matplotlib v3.10.3, https://matplotlib.org/</dc:title>
     </cc:Agent>
    </dc:creator>
   </cc:Work>
  </rdf:RDF>
 </metadata>
 <defs>
  <style type="text/css">*{stroke-linejoin: round; stroke-linecap: butt}</style>
 </defs>
 <g id="figure_1">
  <g id="patch_1">
   <path d="M 0 342.325859 
L 703.669375 342.325859 
L 703.669375 0 
L 0 0 
z
" style="fill: #ffffff"/>
  </g>
  <g id="axes_1">
   <g id="patch_2">
    <path d="M 183.109375 288.430125 
L 696.469375 288.430125 
L 696.469375 22.318125 
L 183.109375 22.318125 
z
" style="fill: #ffffff"/>
   </g>
   <g id="matplotlib.axis_1">
    <g id="xtick_1">
     <g id="line2d_1">
      <path d="M 183.109375 288.430125 
L 183.109375 22.318125 
" clip-path="url(#pe6d0bdd114)" style="fill: none; stroke: #d9d9d9; stroke-width: 0.7; stroke-linecap: square"/>
     </g>
     <g id="line2d_2">
      <defs>
       <path id="m4f8288086a" d="M 0 0 
L 0 3.5 
" style="stroke: #000000; stroke-width: 0.8"/>
      </defs>
      <g>
       <use xlink:href="#m4f8288086a" x="183.109375" y="288.430125" style="stroke: #000000; stroke-width: 0.8"/>
      </g>
     </g>
     <g id="text_1">
      <!-- 0 -->
      <g transform="translate(179.928125 303.028562) scale(0.1 -0.1)">
       <defs>
        <path id="DejaVuSans-30" d="M 2034 4250 
Q 1547 4250 1301 3770 
Q 1056 3291 1056 2328 
Q 1056 1369 1301 889 
Q 1547 409 2034 409 
Q 2525 409 2770 889 
Q 3016 1369 3016 2328 
Q 3016 3291 2770 3770 
Q 2525 4250 2034 4250 
z
M 2034 4750 
Q 2819 4750 3233 4129 
Q 3647 3509 3647 2328 
Q 3647 1150 3233 529 
Q 2819 -91 2034 -91 
Q 1250 -91 836 529 
Q 422 1150 422 2328 
Q 422 3509 836 4129 
Q 1250 4750 2034 4750 
z
" transform="scale(0.015625)"/>
       </defs>
       <use xlink:href="#DejaVuSans-30"/>
      </g>
     </g>
    </g>
    <g id="xtick_2">
     <g id="line2d_3">
      <path d="M 266.215574 288.430125 
L 266.215574 22.318125 
" clip-path="url(#pe6d0bdd114)" style="fill: none; stroke: #d9d9d9; stroke-width: 0.7; stroke-linecap: square"/>
     </g>
     <g id="line2d_4">
      <g>
       <use xlink:href="#m4f8288086a" x="266.215574" y="288.430125" style="stroke: #000000; stroke-width: 0.8"/>
      </g>
     </g>
     <g id="text_2">
      <!-- 10 -->
      <g transform="translate(259.853074 303.028562) scale(0.1 -0.1)">
       <defs>
        <path id="DejaVuSans-31" d="M 794 531 
L 1825 531 
L 1825 4091 
L 703 3866 
L 703 4441 
L 1819 4666 
L 2450 4666 
L 2450 531 
L 3481 531 
L 3481 0 
L 794 0 
L 794 531 
z
" transform="scale(0.015625)"/>
       </defs>
       <use xlink:href="#DejaVuSans-31"/>
       <use xlink:href="#DejaVuSans-30" transform="translate(63.623047 0)"/>
      </g>
     </g>
    </g>
    <g id="xtick_3">
     <g id="line2d_5">
      <path d="M 349.321773 288.430125 
L 349.321773 22.318125 
" clip-path="url(#pe6d0bdd114)" style="fill: none; stroke: #d9d9d9; stroke-width: 0.7; stroke-linecap: square"/>
     </g>
     <g id="line2d_6">
      <g>
       <use xlink:href="#m4f8288086a" x="349.321773" y="288.430125" style="stroke: #000000; stroke-width: 0.8"/>
      </g>
     </g>
     <g id="text_3">
      <!-- 20 -->
      <g transform="translate(342.959273 303.028562) scale(0.1 -0.1)">
       <defs>
        <path id="DejaVuSans-32" d="M 1228 531 
L 3431 531 
L 3431 0 
L 469 0 
L 469 531 
Q 828 903 1448 1529 
Q 2069 2156 2228 2338 
Q 2531 2678 2651 2914 
Q 2772 3150 2772 3378 
Q 2772 3750 2511 3984 
Q 2250 4219 1831 4219 
Q 1534 4219 1204 4116 
Q 875 4013 500 3803 
L 500 4441 
Q 881 4594 1212 4672 
Q 1544 4750 1819 4750 
Q 2544 4750 2975 4387 
Q 3406 4025 3406 3419 
Q 3406 3131 3298 2873 
Q 3191 2616 2906 2266 
Q 2828 2175 2409 1742 
Q 1991 1309 1228 531 
z
" transform="scale(0.015625)"/>
       </defs>
       <use xlink:href="#DejaVuSans-32"/>
       <use xlink:href="#DejaVuSans-30" transform="translate(63.623047 0)"/>
      </g>
     </g>
    </g>
    <g id="xtick_4">
     <g id="line2d_7">
      <path d="M 432.427971 288.430125 
L 432.427971 22.318125 
" clip-path="url(#pe6d0bdd114)" style="fill: none; stroke: #d9d9d9; stroke-width: 0.7; stroke-linecap: square"/>
     </g>
     <g id="line2d_8">
      <g>
       <use xlink:href="#m4f8288086a" x="432.427971" y="288.430125" style="stroke: #000000; stroke-width: 0.8"/>
      </g>
     </g>
     <g id="text_4">
      <!-- 30 -->
      <g transform="translate(426.065471 303.028562) scale(0.1 -0.1)">
       <defs>
        <path id="DejaVuSans-33" d="M 2597 2516 
Q 3050 2419 3304 2112 
Q 3559 1806 3559 1356 
Q 3559 666 3084 287 
Q 2609 -91 1734 -91 
Q 1441 -91 1130 -33 
Q 819 25 488 141 
L 488 750 
Q 750 597 1062 519 
Q 1375 441 1716 441 
Q 2309 441 2620 675 
Q 2931 909 2931 1356 
Q 2931 1769 2642 2001 
Q 2353 2234 1838 2234 
L 1294 2234 
L 1294 2753 
L 1863 2753 
Q 2328 2753 2575 2939 
Q 2822 3125 2822 3475 
Q 2822 3834 2567 4026 
Q 2313 4219 1838 4219 
Q 1578 4219 1281 4162 
Q 984 4106 628 3988 
L 628 4550 
Q 988 4650 1302 4700 
Q 1616 4750 1894 4750 
Q 2613 4750 3031 4423 
Q 3450 4097 3450 3541 
Q 3450 3153 3228 2886 
Q 3006 2619 2597 2516 
z
" transform="scale(0.015625)"/>
       </defs>
       <use xlink:href="#DejaVuSans-33"/>
       <use xlink:href="#DejaVuSans-30" transform="translate(63.623047 0)"/>
      </g>
     </g>
    </g>
    <g id="xtick_5">
     <g id="line2d_9">
      <path d="M 515.53417 288.430125 
L 515.53417 22.318125 
" clip-path="url(#pe6d0bdd114)" style="fill: none; stroke: #d9d9d9; stroke-width: 0.7; stroke-linecap: square"/>
     </g>
     <g id="line2d_10">
      <g>
       <use xlink:href="#m4f8288086a" x="515.53417" y="288.430125" style="stroke: #000000; stroke-width: 0.8"/>
      </g>
     </g>
     <g id="text_5">
      <!-- 40 -->
      <g transform="translate(509.17167 303.028562) scale(0.1 -0.1)">
       <defs>
        <path id="DejaVuSans-34" d="M 2419 4116 
L 825 1625 
L 2419 1625 
L 2419 4116 
z
M 2253 4666 
L 3047 4666 
L 3047 1625 
L 3713 1625 
L 3713 1100 
L 3047 1100 
L 3047 0 
L 2419 0 
L 2419 1100 
L 313 1100 
L 313 1709 
L 2253 4666 
z
" transform="scale(0.015625)"/>
       </defs>
       <use xlink:href="#DejaVuSans-34"/>
       <use xlink:href="#DejaVuSans-30" transform="translate(63.623047 0)"/>
      </g>
     </g>
    </g>
    <g id="xtick_6">
     <g id="line2d_11">
      <path d="M 598.640369 288.430125 
L 598.640369 22.318125 
" clip-path="url(#pe6d0bdd114)" style="fill: none; stroke: #d9d9d9; stroke-width: 0.7; stroke-linecap: square"/>
     </g>
     <g id="line2d_12">
      <g>
       <use xlink:href="#m4f8288086a" x="598.640369" y="288.430125" style="stroke: #000000; stroke-width: 0.8"/>
      </g>
     </g>
     <g id="text_6">
      <!-- 50 -->
      <g transform="translate(592.277869 303.028562) scale(0.1 -0.1)">
       <defs>
        <path id="DejaVuSans-35" d="M 691 4666 
L 3169 4666 
L 3169 4134 
L 1269 4134 
L 1269 2991 
Q 1406 3038 1543 3061 
Q 1681 3084 1819 3084 
Q 2600 3084 3056 2656 
Q 3513 2228 3513 1497 
Q 3513 744 3044 326 
Q 2575 -91 1722 -91 
Q 1428 -91 1123 -41 
Q 819 9 494 109 
L 494 744 
Q 775 591 1075 516 
Q 1375 441 1709 441 
Q 2250 441 2565 725 
Q 2881 1009 2881 1497 
Q 2881 1984 2565 2268 
Q 2250 2553 1709 2553 
Q 1456 2553 1204 2497 
Q 953 2441 691 2322 
L 691 4666 
z
" transform="scale(0.015625)"/>
       </defs>
       <use xlink:href="#DejaVuSans-35"/>
       <use xlink:href="#DejaVuSans-30" transform="translate(63.623047 0)"/>
      </g>
     </g>
    </g>
    <g id="xtick_7">
     <g id="line2d_13">
      <path d="M 681.746568 288.430125 
L 681.746568 22.318125 
" clip-path="url(#pe6d0bdd114)" style="fill: none; stroke: #d9d9d9; stroke-width: 0.7; stroke-linecap: square"/>
     </g>
     <g id="line2d_14">
      <g>
       <use xlink:href="#m4f8288086a" x="681.746568" y="288.430125" style="stroke: #000000; stroke-width: 0.8"/>
      </g>
     </g>
     <g id="text_7">
      <!-- 60 -->
      <g transform="translate(675.384068 303.028562) scale(0.1 -0.1)">
       <defs>
        <path id="DejaVuSans-36" d="M 2113 2584 
Q 1688 2584 1439 2293 
Q 1191 2003 1191 1497 
Q 1191 994 1439 701 
Q 1688 409 2113 409 
Q 2538 409 2786 701 
Q 3034 994 3034 1497 
Q 3034 2003 2786 2293 
Q 2538 2584 2113 2584 
z
M 3366 4563 
L 3366 3988 
Q 3128 4100 2886 4159 
Q 2644 4219 2406 4219 
Q 1781 4219 1451 3797 
Q 1122 3375 1075 2522 
Q 1259 2794 1537 2939 
Q 1816 3084 2150 3084 
Q 2853 3084 3261 2657 
Q 3669 2231 3669 1497 
Q 3669 778 3244 343 
Q 2819 -91 2113 -91 
Q 1303 -91 875 529 
Q 447 1150 447 2328 
Q 447 3434 972 4092 
Q 1497 4750 2381 4750 
Q 2619 4750 2861 4703 
Q 3103 4656 3366 4563 
z
" transform="scale(0.015625)"/>
       </defs>
       <use xlink:href="#DejaVuSans-36"/>
       <use xlink:href="#DejaVuSans-30" transform="translate(63.623047 0)"/>
      </g>
     </g>
    </g>
    <g id="text_8">
     <!-- Training throughput (thousand synthetic samples/s) -->
     <g transform="translate(310.381562 316.706687) scale(0.1 -0.1)">
      <defs>
       <path id="DejaVuSans-54" d="M -19 4666 
L 3928 4666 
L 3928 4134 
L 2272 4134 
L 2272 0 
L 1638 0 
L 1638 4134 
L -19 4134 
L -19 4666 
z
" transform="scale(0.015625)"/>
       <path id="DejaVuSans-72" d="M 2631 2963 
Q 2534 3019 2420 3045 
Q 2306 3072 2169 3072 
Q 1681 3072 1420 2755 
Q 1159 2438 1159 1844 
L 1159 0 
L 581 0 
L 581 3500 
L 1159 3500 
L 1159 2956 
Q 1341 3275 1631 3429 
Q 1922 3584 2338 3584 
Q 2397 3584 2469 3576 
Q 2541 3569 2628 3553 
L 2631 2963 
z
" transform="scale(0.015625)"/>
       <path id="DejaVuSans-61" d="M 2194 1759 
Q 1497 1759 1228 1600 
Q 959 1441 959 1056 
Q 959 750 1161 570 
Q 1363 391 1709 391 
Q 2188 391 2477 730 
Q 2766 1069 2766 1631 
L 2766 1759 
L 2194 1759 
z
M 3341 1997 
L 3341 0 
L 2766 0 
L 2766 531 
Q 2569 213 2275 61 
Q 1981 -91 1556 -91 
Q 1019 -91 701 211 
Q 384 513 384 1019 
Q 384 1609 779 1909 
Q 1175 2209 1959 2209 
L 2766 2209 
L 2766 2266 
Q 2766 2663 2505 2880 
Q 2244 3097 1772 3097 
Q 1472 3097 1187 3025 
Q 903 2953 641 2809 
L 641 3341 
Q 956 3463 1253 3523 
Q 1550 3584 1831 3584 
Q 2591 3584 2966 3190 
Q 3341 2797 3341 1997 
z
" transform="scale(0.015625)"/>
       <path id="DejaVuSans-69" d="M 603 3500 
L 1178 3500 
L 1178 0 
L 603 0 
L 603 3500 
z
M 603 4863 
L 1178 4863 
L 1178 4134 
L 603 4134 
L 603 4863 
z
" transform="scale(0.015625)"/>
       <path id="DejaVuSans-6e" d="M 3513 2113 
L 3513 0 
L 2938 0 
L 2938 2094 
Q 2938 2591 2744 2837 
Q 2550 3084 2163 3084 
Q 1697 3084 1428 2787 
Q 1159 2491 1159 1978 
L 1159 0 
L 581 0 
L 581 3500 
L 1159 3500 
L 1159 2956 
Q 1366 3272 1645 3428 
Q 1925 3584 2291 3584 
Q 2894 3584 3203 3211 
Q 3513 2838 3513 2113 
z
" transform="scale(0.015625)"/>
       <path id="DejaVuSans-67" d="M 2906 1791 
Q 2906 2416 2648 2759 
Q 2391 3103 1925 3103 
Q 1463 3103 1205 2759 
Q 947 2416 947 1791 
Q 947 1169 1205 825 
Q 1463 481 1925 481 
Q 2391 481 2648 825 
Q 2906 1169 2906 1791 
z
M 3481 434 
Q 3481 -459 3084 -895 
Q 2688 -1331 1869 -1331 
Q 1566 -1331 1297 -1286 
Q 1028 -1241 775 -1147 
L 775 -588 
Q 1028 -725 1275 -790 
Q 1522 -856 1778 -856 
Q 2344 -856 2625 -561 
Q 2906 -266 2906 331 
L 2906 616 
Q 2728 306 2450 153 
Q 2172 0 1784 0 
Q 1141 0 747 490 
Q 353 981 353 1791 
Q 353 2603 747 3093 
Q 1141 3584 1784 3584 
Q 2172 3584 2450 3431 
Q 2728 3278 2906 2969 
L 2906 3500 
L 3481 3500 
L 3481 434 
z
" transform="scale(0.015625)"/>
       <path id="DejaVuSans-20" transform="scale(0.015625)"/>
       <path id="DejaVuSans-74" d="M 1172 4494 
L 1172 3500 
L 2356 3500 
L 2356 3053 
L 1172 3053 
L 1172 1153 
Q 1172 725 1289 603 
Q 1406 481 1766 481 
L 2356 481 
L 2356 0 
L 1766 0 
Q 1100 0 847 248 
Q 594 497 594 1153 
L 594 3053 
L 172 3053 
L 172 3500 
L 594 3500 
L 594 4494 
L 1172 4494 
z
" transform="scale(0.015625)"/>
       <path id="DejaVuSans-68" d="M 3513 2113 
L 3513 0 
L 2938 0 
L 2938 2094 
Q 2938 2591 2744 2837 
Q 2550 3084 2163 3084 
Q 1697 3084 1428 2787 
Q 1159 2491 1159 1978 
L 1159 0 
L 581 0 
L 581 4863 
L 1159 4863 
L 1159 2956 
Q 1366 3272 1645 3428 
Q 1925 3584 2291 3584 
Q 2894 3584 3203 3211 
Q 3513 2838 3513 2113 
z
" transform="scale(0.015625)"/>
       <path id="DejaVuSans-6f" d="M 1959 3097 
Q 1497 3097 1228 2736 
Q 959 2375 959 1747 
Q 959 1119 1226 758 
Q 1494 397 1959 397 
Q 2419 397 2687 759 
Q 2956 1122 2956 1747 
Q 2956 2369 2687 2733 
Q 2419 3097 1959 3097 
z
M 1959 3584 
Q 2709 3584 3137 3096 
Q 3566 2609 3566 1747 
Q 3566 888 3137 398 
Q 2709 -91 1959 -91 
Q 1206 -91 779 398 
Q 353 888 353 1747 
Q 353 2609 779 3096 
Q 1206 3584 1959 3584 
z
" transform="scale(0.015625)"/>
       <path id="DejaVuSans-75" d="M 544 1381 
L 544 3500 
L 1119 3500 
L 1119 1403 
Q 1119 906 1312 657 
Q 1506 409 1894 409 
Q 2359 409 2629 706 
Q 2900 1003 2900 1516 
L 2900 3500 
L 3475 3500 
L 3475 0 
L 2900 0 
L 2900 538 
Q 2691 219 2414 64 
Q 2138 -91 1772 -91 
Q 1169 -91 856 284 
Q 544 659 544 1381 
z
M 1991 3584 
L 1991 3584 
z
" transform="scale(0.015625)"/>
       <path id="DejaVuSans-70" d="M 1159 525 
L 1159 -1331 
L 581 -1331 
L 581 3500 
L 1159 3500 
L 1159 2969 
Q 1341 3281 1617 3432 
Q 1894 3584 2278 3584 
Q 2916 3584 3314 3078 
Q 3713 2572 3713 1747 
Q 3713 922 3314 415 
Q 2916 -91 2278 -91 
Q 1894 -91 1617 61 
Q 1341 213 1159 525 
z
M 3116 1747 
Q 3116 2381 2855 2742 
Q 2594 3103 2138 3103 
Q 1681 3103 1420 2742 
Q 1159 2381 1159 1747 
Q 1159 1113 1420 752 
Q 1681 391 2138 391 
Q 2594 391 2855 752 
Q 3116 1113 3116 1747 
z
" transform="scale(0.015625)"/>
       <path id="DejaVuSans-28" d="M 1984 4856 
Q 1566 4138 1362 3434 
Q 1159 2731 1159 2009 
Q 1159 1288 1364 580 
Q 1569 -128 1984 -844 
L 1484 -844 
Q 1016 -109 783 600 
Q 550 1309 550 2009 
Q 550 2706 781 3412 
Q 1013 4119 1484 4856 
L 1984 4856 
z
" transform="scale(0.015625)"/>
       <path id="DejaVuSans-73" d="M 2834 3397 
L 2834 2853 
Q 2591 2978 2328 3040 
Q 2066 3103 1784 3103 
Q 1356 3103 1142 2972 
Q 928 2841 928 2578 
Q 928 2378 1081 2264 
Q 1234 2150 1697 2047 
L 1894 2003 
Q 2506 1872 2764 1633 
Q 3022 1394 3022 966 
Q 3022 478 2636 193 
Q 2250 -91 1575 -91 
Q 1294 -91 989 -36 
Q 684 19 347 128 
L 347 722 
Q 666 556 975 473 
Q 1284 391 1588 391 
Q 1994 391 2212 530 
Q 2431 669 2431 922 
Q 2431 1156 2273 1281 
Q 2116 1406 1581 1522 
L 1381 1569 
Q 847 1681 609 1914 
Q 372 2147 372 2553 
Q 372 3047 722 3315 
Q 1072 3584 1716 3584 
Q 2034 3584 2315 3537 
Q 2597 3491 2834 3397 
z
" transform="scale(0.015625)"/>
       <path id="DejaVuSans-64" d="M 2906 2969 
L 2906 4863 
L 3481 4863 
L 3481 0 
L 2906 0 
L 2906 525 
Q 2725 213 2448 61 
Q 2172 -91 1784 -91 
Q 1150 -91 751 415 
Q 353 922 353 1747 
Q 353 2572 751 3078 
Q 1150 3584 1784 3584 
Q 2172 3584 2448 3432 
Q 2725 3281 2906 2969 
z
M 947 1747 
Q 947 1113 1208 752 
Q 1469 391 1925 391 
Q 2381 391 2643 752 
Q 2906 1113 2906 1747 
Q 2906 2381 2643 2742 
Q 2381 3103 1925 3103 
Q 1469 3103 1208 2742 
Q 947 2381 947 1747 
z
" transform="scale(0.015625)"/>
       <path id="DejaVuSans-79" d="M 2059 -325 
Q 1816 -950 1584 -1140 
Q 1353 -1331 966 -1331 
L 506 -1331 
L 506 -850 
L 844 -850 
Q 1081 -850 1212 -737 
Q 1344 -625 1503 -206 
L 1606 56 
L 191 3500 
L 800 3500 
L 1894 763 
L 2988 3500 
L 3597 3500 
L 2059 -325 
z
" transform="scale(0.015625)"/>
       <path id="DejaVuSans-65" d="M 3597 1894 
L 3597 1613 
L 953 1613 
Q 991 1019 1311 708 
Q 1631 397 2203 397 
Q 2534 397 2845 478 
Q 3156 559 3463 722 
L 3463 178 
Q 3153 47 2828 -22 
Q 2503 -91 2169 -91 
Q 1331 -91 842 396 
Q 353 884 353 1716 
Q 353 2575 817 3079 
Q 1281 3584 2069 3584 
Q 2775 3584 3186 3129 
Q 3597 2675 3597 1894 
z
M 3022 2063 
Q 3016 2534 2758 2815 
Q 2500 3097 2075 3097 
Q 1594 3097 1305 2825 
Q 1016 2553 972 2059 
L 3022 2063 
z
" transform="scale(0.015625)"/>
       <path id="DejaVuSans-63" d="M 3122 3366 
L 3122 2828 
Q 2878 2963 2633 3030 
Q 2388 3097 2138 3097 
Q 1578 3097 1268 2742 
Q 959 2388 959 1747 
Q 959 1106 1268 751 
Q 1578 397 2138 397 
Q 2388 397 2633 464 
Q 2878 531 3122 666 
L 3122 134 
Q 2881 22 2623 -34 
Q 2366 -91 2075 -91 
Q 1284 -91 818 406 
Q 353 903 353 1747 
Q 353 2603 823 3093 
Q 1294 3584 2113 3584 
Q 2378 3584 2631 3529 
Q 2884 3475 3122 3366 
z
" transform="scale(0.015625)"/>
       <path id="DejaVuSans-6d" d="M 3328 2828 
Q 3544 3216 3844 3400 
Q 4144 3584 4550 3584 
Q 5097 3584 5394 3201 
Q 5691 2819 5691 2113 
L 5691 0 
L 5113 0 
L 5113 2094 
Q 5113 2597 4934 2840 
Q 4756 3084 4391 3084 
Q 3944 3084 3684 2787 
Q 3425 2491 3425 1978 
L 3425 0 
L 2847 0 
L 2847 2094 
Q 2847 2600 2669 2842 
Q 2491 3084 2119 3084 
Q 1678 3084 1418 2786 
Q 1159 2488 1159 1978 
L 1159 0 
L 581 0 
L 581 3500 
L 1159 3500 
L 1159 2956 
Q 1356 3278 1631 3431 
Q 1906 3584 2284 3584 
Q 2666 3584 2933 3390 
Q 3200 3197 3328 2828 
z
" transform="scale(0.015625)"/>
       <path id="DejaVuSans-6c" d="M 603 4863 
L 1178 4863 
L 1178 0 
L 603 0 
L 603 4863 
z
" transform="scale(0.015625)"/>
       <path id="DejaVuSans-2f" d="M 1625 4666 
L 2156 4666 
L 531 -594 
L 0 -594 
L 1625 4666 
z
" transform="scale(0.015625)"/>
       <path id="DejaVuSans-29" d="M 513 4856 
L 1013 4856 
Q 1481 4119 1714 3412 
Q 1947 2706 1947 2009 
Q 1947 1309 1714 600 
Q 1481 -109 1013 -844 
L 513 -844 
Q 928 -128 1133 580 
Q 1338 1288 1338 2009 
Q 1338 2731 1133 3434 
Q 928 4138 513 4856 
z
" transform="scale(0.015625)"/>
      </defs>
      <use xlink:href="#DejaVuSans-54"/>
      <use xlink:href="#DejaVuSans-72" transform="translate(46.333984 0)"/>
      <use xlink:href="#DejaVuSans-61" transform="translate(87.447266 0)"/>
      <use xlink:href="#DejaVuSans-69" transform="translate(148.726562 0)"/>
      <use xlink:href="#DejaVuSans-6e" transform="translate(176.509766 0)"/>
      <use xlink:href="#DejaVuSans-69" transform="translate(239.888672 0)"/>
      <use xlink:href="#DejaVuSans-6e" transform="translate(267.671875 0)"/>
      <use xlink:href="#DejaVuSans-67" transform="translate(331.050781 0)"/>
      <use xlink:href="#DejaVuSans-20" transform="translate(394.527344 0)"/>
      <use xlink:href="#DejaVuSans-74" transform="translate(426.314453 0)"/>
      <use xlink:href="#DejaVuSans-68" transform="translate(465.523438 0)"/>
      <use xlink:href="#DejaVuSans-72" transform="translate(528.902344 0)"/>
      <use xlink:href="#DejaVuSans-6f" transform="translate(567.765625 0)"/>
      <use xlink:href="#DejaVuSans-75" transform="translate(628.947266 0)"/>
      <use xlink:href="#DejaVuSans-67" transform="translate(692.326172 0)"/>
      <use xlink:href="#DejaVuSans-68" transform="translate(755.802734 0)"/>
      <use xlink:href="#DejaVuSans-70" transform="translate(819.181641 0)"/>
      <use xlink:href="#DejaVuSans-75" transform="translate(882.658203 0)"/>
      <use xlink:href="#DejaVuSans-74" transform="translate(946.037109 0)"/>
      <use xlink:href="#DejaVuSans-20" transform="translate(985.246094 0)"/>
      <use xlink:href="#DejaVuSans-28" transform="translate(1017.033203 0)"/>
      <use xlink:href="#DejaVuSans-74" transform="translate(1056.046875 0)"/>
      <use xlink:href="#DejaVuSans-68" transform="translate(1095.255859 0)"/>
      <use xlink:href="#DejaVuSans-6f" transform="translate(1158.634766 0)"/>
      <use xlink:href="#DejaVuSans-75" transform="translate(1219.816406 0)"/>
      <use xlink:href="#DejaVuSans-73" transform="translate(1283.195312 0)"/>
      <use xlink:href="#DejaVuSans-61" transform="translate(1335.294922 0)"/>
      <use xlink:href="#DejaVuSans-6e" transform="translate(1396.574219 0)"/>
      <use xlink:href="#DejaVuSans-64" transform="translate(1459.953125 0)"/>
      <use xlink:href="#DejaVuSans-20" transform="translate(1523.429688 0)"/>
      <use xlink:href="#DejaVuSans-73" transform="translate(1555.216797 0)"/>
      <use xlink:href="#DejaVuSans-79" transform="translate(1607.316406 0)"/>
      <use xlink:href="#DejaVuSans-6e" transform="translate(1666.496094 0)"/>
      <use xlink:href="#DejaVuSans-74" transform="translate(1729.875 0)"/>
      <use xlink:href="#DejaVuSans-68" transform="translate(1769.083984 0)"/>
      <use xlink:href="#DejaVuSans-65" transform="translate(1832.462891 0)"/>
      <use xlink:href="#DejaVuSans-74" transform="translate(1893.986328 0)"/>
      <use xlink:href="#DejaVuSans-69" transform="translate(1933.195312 0)"/>
      <use xlink:href="#DejaVuSans-63" transform="translate(1960.978516 0)"/>
      <use xlink:href="#DejaVuSans-20" transform="translate(2015.958984 0)"/>
      <use xlink:href="#DejaVuSans-73" transform="translate(2047.746094 0)"/>
      <use xlink:href="#DejaVuSans-61" transform="translate(2099.845703 0)"/>
      <use xlink:href="#DejaVuSans-6d" transform="translate(2161.125 0)"/>
      <use xlink:href="#DejaVuSans-70" transform="translate(2258.537109 0)"/>
      <use xlink:href="#DejaVuSans-6c" transform="translate(2322.013672 0)"/>
      <use xlink:href="#DejaVuSans-65" transform="translate(2349.796875 0)"/>
      <use xlink:href="#DejaVuSans-73" transform="translate(2411.320312 0)"/>
      <use xlink:href="#DejaVuSans-2f" transform="translate(2463.419922 0)"/>
      <use xlink:href="#DejaVuSans-73" transform="translate(2497.111328 0)"/>
      <use xlink:href="#DejaVuSans-29" transform="translate(2549.210938 0)"/>
     </g>
    </g>
   </g>
   <g id="matplotlib.axis_2">
    <g id="ytick_1">
     <g id="line2d_15">
      <defs>
       <path id="ma44e8dff36" d="M 0 0 
L -3.5 0 
" style="stroke: #000000; stroke-width: 0.8"/>
      </defs>
      <g>
       <use xlink:href="#ma44e8dff36" x="183.109375" y="262.229249" style="stroke: #000000; stroke-width: 0.8"/>
      </g>
     </g>
     <g id="text_9">
      <!-- DDP, 4 GPUs, batch 2,048 -->
      <g transform="translate(46.08125 266.028467) scale(0.1 -0.1)">
       <defs>
        <path id="DejaVuSans-44" d="M 1259 4147 
L 1259 519 
L 2022 519 
Q 2988 519 3436 956 
Q 3884 1394 3884 2338 
Q 3884 3275 3436 3711 
Q 2988 4147 2022 4147 
L 1259 4147 
z
M 628 4666 
L 1925 4666 
Q 3281 4666 3915 4102 
Q 4550 3538 4550 2338 
Q 4550 1131 3912 565 
Q 3275 0 1925 0 
L 628 0 
L 628 4666 
z
" transform="scale(0.015625)"/>
        <path id="DejaVuSans-50" d="M 1259 4147 
L 1259 2394 
L 2053 2394 
Q 2494 2394 2734 2622 
Q 2975 2850 2975 3272 
Q 2975 3691 2734 3919 
Q 2494 4147 2053 4147 
L 1259 4147 
z
M 628 4666 
L 2053 4666 
Q 2838 4666 3239 4311 
Q 3641 3956 3641 3272 
Q 3641 2581 3239 2228 
Q 2838 1875 2053 1875 
L 1259 1875 
L 1259 0 
L 628 0 
L 628 4666 
z
" transform="scale(0.015625)"/>
        <path id="DejaVuSans-2c" d="M 750 794 
L 1409 794 
L 1409 256 
L 897 -744 
L 494 -744 
L 750 256 
L 750 794 
z
" transform="scale(0.015625)"/>
        <path id="DejaVuSans-47" d="M 3809 666 
L 3809 1919 
L 2778 1919 
L 2778 2438 
L 4434 2438 
L 4434 434 
Q 4069 175 3628 42 
Q 3188 -91 2688 -91 
Q 1594 -91 976 548 
Q 359 1188 359 2328 
Q 359 3472 976 4111 
Q 1594 4750 2688 4750 
Q 3144 4750 3555 4637 
Q 3966 4525 4313 4306 
L 4313 3634 
Q 3963 3931 3569 4081 
Q 3175 4231 2741 4231 
Q 1884 4231 1454 3753 
Q 1025 3275 1025 2328 
Q 1025 1384 1454 906 
Q 1884 428 2741 428 
Q 3075 428 3337 486 
Q 3600 544 3809 666 
z
" transform="scale(0.015625)"/>
        <path id="DejaVuSans-55" d="M 556 4666 
L 1191 4666 
L 1191 1831 
Q 1191 1081 1462 751 
Q 1734 422 2344 422 
Q 2950 422 3222 751 
Q 3494 1081 3494 1831 
L 3494 4666 
L 4128 4666 
L 4128 1753 
Q 4128 841 3676 375 
Q 3225 -91 2344 -91 
Q 1459 -91 1007 375 
Q 556 841 556 1753 
L 556 4666 
z
" transform="scale(0.015625)"/>
        <path id="DejaVuSans-62" d="M 3116 1747 
Q 3116 2381 2855 2742 
Q 2594 3103 2138 3103 
Q 1681 3103 1420 2742 
Q 1159 2381 1159 1747 
Q 1159 1113 1420 752 
Q 1681 391 2138 391 
Q 2594 391 2855 752 
Q 3116 1113 3116 1747 
z
M 1159 2969 
Q 1341 3281 1617 3432 
Q 1894 3584 2278 3584 
Q 2916 3584 3314 3078 
Q 3713 2572 3713 1747 
Q 3713 922 3314 415 
Q 2916 -91 2278 -91 
Q 1894 -91 1617 61 
Q 1341 213 1159 525 
L 1159 0 
L 581 0 
L 581 4863 
L 1159 4863 
L 1159 2969 
z
" transform="scale(0.015625)"/>
        <path id="DejaVuSans-38" d="M 2034 2216 
Q 1584 2216 1326 1975 
Q 1069 1734 1069 1313 
Q 1069 891 1326 650 
Q 1584 409 2034 409 
Q 2484 409 2743 651 
Q 3003 894 3003 1313 
Q 3003 1734 2745 1975 
Q 2488 2216 2034 2216 
z
M 1403 2484 
Q 997 2584 770 2862 
Q 544 3141 544 3541 
Q 544 4100 942 4425 
Q 1341 4750 2034 4750 
Q 2731 4750 3128 4425 
Q 3525 4100 3525 3541 
Q 3525 3141 3298 2862 
Q 3072 2584 2669 2484 
Q 3125 2378 3379 2068 
Q 3634 1759 3634 1313 
Q 3634 634 3220 271 
Q 2806 -91 2034 -91 
Q 1263 -91 848 271 
Q 434 634 434 1313 
Q 434 1759 690 2068 
Q 947 2378 1403 2484 
z
M 1172 3481 
Q 1172 3119 1398 2916 
Q 1625 2713 2034 2713 
Q 2441 2713 2670 2916 
Q 2900 3119 2900 3481 
Q 2900 3844 2670 4047 
Q 2441 4250 2034 4250 
Q 1625 4250 1398 4047 
Q 1172 3844 1172 3481 
z
" transform="scale(0.015625)"/>
       </defs>
       <use xlink:href="#DejaVuSans-44"/>
       <use xlink:href="#DejaVuSans-44" transform="translate(77.001953 0)"/>
       <use xlink:href="#DejaVuSans-50" transform="translate(154.003906 0)"/>
       <use xlink:href="#DejaVuSans-2c" transform="translate(214.306641 0)"/>
       <use xlink:href="#DejaVuSans-20" transform="translate(246.09375 0)"/>
       <use xlink:href="#DejaVuSans-34" transform="translate(277.880859 0)"/>
       <use xlink:href="#DejaVuSans-20" transform="translate(341.503906 0)"/>
       <use xlink:href="#DejaVuSans-47" transform="translate(373.291016 0)"/>
       <use xlink:href="#DejaVuSans-50" transform="translate(450.78125 0)"/>
       <use xlink:href="#DejaVuSans-55" transform="translate(511.083984 0)"/>
       <use xlink:href="#DejaVuSans-73" transform="translate(584.277344 0)"/>
       <use xlink:href="#DejaVuSans-2c" transform="translate(636.376953 0)"/>
       <use xlink:href="#DejaVuSans-20" transform="translate(668.164062 0)"/>
       <use xlink:href="#DejaVuSans-62" transform="translate(699.951172 0)"/>
       <use xlink:href="#DejaVuSans-61" transform="translate(763.427734 0)"/>
       <use xlink:href="#DejaVuSans-74" transform="translate(824.707031 0)"/>
       <use xlink:href="#DejaVuSans-63" transform="translate(863.916016 0)"/>
       <use xlink:href="#DejaVuSans-68" transform="translate(918.896484 0)"/>
       <use xlink:href="#DejaVuSans-20" transform="translate(982.275391 0)"/>
       <use xlink:href="#DejaVuSans-32" transform="translate(1014.0625 0)"/>
       <use xlink:href="#DejaVuSans-2c" transform="translate(1077.685547 0)"/>
       <use xlink:href="#DejaVuSans-30" transform="translate(1109.472656 0)"/>
       <use xlink:href="#DejaVuSans-34" transform="translate(1173.095703 0)"/>
       <use xlink:href="#DejaVuSans-38" transform="translate(1236.71875 0)"/>
      </g>
     </g>
    </g>
    <g id="ytick_2">
     <g id="line2d_16">
      <g>
       <use xlink:href="#ma44e8dff36" x="183.109375" y="219.487199" style="stroke: #000000; stroke-width: 0.8"/>
      </g>
     </g>
     <g id="text_10">
      <!-- DDP, 2 GPUs, batch 2,048 -->
      <g transform="translate(46.08125 223.286418) scale(0.1 -0.1)">
       <use xlink:href="#DejaVuSans-44"/>
       <use xlink:href="#DejaVuSans-44" transform="translate(77.001953 0)"/>
       <use xlink:href="#DejaVuSans-50" transform="translate(154.003906 0)"/>
       <use xlink:href="#DejaVuSans-2c" transform="translate(214.306641 0)"/>
       <use xlink:href="#DejaVuSans-20" transform="translate(246.09375 0)"/>
       <use xlink:href="#DejaVuSans-32" transform="translate(277.880859 0)"/>
       <use xlink:href="#DejaVuSans-20" transform="translate(341.503906 0)"/>
       <use xlink:href="#DejaVuSans-47" transform="translate(373.291016 0)"/>
       <use xlink:href="#DejaVuSans-50" transform="translate(450.78125 0)"/>
       <use xlink:href="#DejaVuSans-55" transform="translate(511.083984 0)"/>
       <use xlink:href="#DejaVuSans-73" transform="translate(584.277344 0)"/>
       <use xlink:href="#DejaVuSans-2c" transform="translate(636.376953 0)"/>
       <use xlink:href="#DejaVuSans-20" transform="translate(668.164062 0)"/>
       <use xlink:href="#DejaVuSans-62" transform="translate(699.951172 0)"/>
       <use xlink:href="#DejaVuSans-61" transform="translate(763.427734 0)"/>
       <use xlink:href="#DejaVuSans-74" transform="translate(824.707031 0)"/>
       <use xlink:href="#DejaVuSans-63" transform="translate(863.916016 0)"/>
       <use xlink:href="#DejaVuSans-68" transform="translate(918.896484 0)"/>
       <use xlink:href="#DejaVuSans-20" transform="translate(982.275391 0)"/>
       <use xlink:href="#DejaVuSans-32" transform="translate(1014.0625 0)"/>
       <use xlink:href="#DejaVuSans-2c" transform="translate(1077.685547 0)"/>
       <use xlink:href="#DejaVuSans-30" transform="translate(1109.472656 0)"/>
       <use xlink:href="#DejaVuSans-34" transform="translate(1173.095703 0)"/>
       <use xlink:href="#DejaVuSans-38" transform="translate(1236.71875 0)"/>
      </g>
     </g>
    </g>
    <g id="ytick_3">
     <g id="line2d_17">
      <g>
       <use xlink:href="#ma44e8dff36" x="183.109375" y="176.74515" style="stroke: #000000; stroke-width: 0.8"/>
      </g>
     </g>
     <g id="text_11">
      <!-- DataParallel, 4 GPUs, batch 2,048 -->
      <g transform="translate(7.2 180.544368) scale(0.1 -0.1)">
       <use xlink:href="#DejaVuSans-44"/>
       <use xlink:href="#DejaVuSans-61" transform="translate(77.001953 0)"/>
       <use xlink:href="#DejaVuSans-74" transform="translate(138.28125 0)"/>
       <use xlink:href="#DejaVuSans-61" transform="translate(177.490234 0)"/>
       <use xlink:href="#DejaVuSans-50" transform="translate(238.769531 0)"/>
       <use xlink:href="#DejaVuSans-61" transform="translate(294.572266 0)"/>
       <use xlink:href="#DejaVuSans-72" transform="translate(355.851562 0)"/>
       <use xlink:href="#DejaVuSans-61" transform="translate(396.964844 0)"/>
       <use xlink:href="#DejaVuSans-6c" transform="translate(458.244141 0)"/>
       <use xlink:href="#DejaVuSans-6c" transform="translate(486.027344 0)"/>
       <use xlink:href="#DejaVuSans-65" transform="translate(513.810547 0)"/>
       <use xlink:href="#DejaVuSans-6c" transform="translate(575.333984 0)"/>
       <use xlink:href="#DejaVuSans-2c" transform="translate(603.117188 0)"/>
       <use xlink:href="#DejaVuSans-20" transform="translate(634.904297 0)"/>
       <use xlink:href="#DejaVuSans-34" transform="translate(666.691406 0)"/>
       <use xlink:href="#DejaVuSans-20" transform="translate(730.314453 0)"/>
       <use xlink:href="#DejaVuSans-47" transform="translate(762.101562 0)"/>
       <use xlink:href="#DejaVuSans-50" transform="translate(839.591797 0)"/>
       <use xlink:href="#DejaVuSans-55" transform="translate(899.894531 0)"/>
       <use xlink:href="#DejaVuSans-73" transform="translate(973.087891 0)"/>
       <use xlink:href="#DejaVuSans-2c" transform="translate(1025.1875 0)"/>
       <use xlink:href="#DejaVuSans-20" transform="translate(1056.974609 0)"/>
       <use xlink:href="#DejaVuSans-62" transform="translate(1088.761719 0)"/>
       <use xlink:href="#DejaVuSans-61" transform="translate(1152.238281 0)"/>
       <use xlink:href="#DejaVuSans-74" transform="translate(1213.517578 0)"/>
       <use xlink:href="#DejaVuSans-63" transform="translate(1252.726562 0)"/>
       <use xlink:href="#DejaVuSans-68" transform="translate(1307.707031 0)"/>
       <use xlink:href="#DejaVuSans-20" transform="translate(1371.085938 0)"/>
       <use xlink:href="#DejaVuSans-32" transform="translate(1402.873047 0)"/>
       <use xlink:href="#DejaVuSans-2c" transform="translate(1466.496094 0)"/>
       <use xlink:href="#DejaVuSans-30" transform="translate(1498.283203 0)"/>
       <use xlink:href="#DejaVuSans-34" transform="translate(1561.90625 0)"/>
       <use xlink:href="#DejaVuSans-38" transform="translate(1625.529297 0)"/>
      </g>
     </g>
    </g>
    <g id="ytick_4">
     <g id="line2d_18">
      <g>
       <use xlink:href="#ma44e8dff36" x="183.109375" y="134.0031" style="stroke: #000000; stroke-width: 0.8"/>
      </g>
     </g>
     <g id="text_12">
      <!-- DataParallel, 2 GPUs, batch 2,048 -->
      <g transform="translate(7.2 137.802319) scale(0.1 -0.1)">
       <use xlink:href="#DejaVuSans-44"/>
       <use xlink:href="#DejaVuSans-61" transform="translate(77.001953 0)"/>
       <use xlink:href="#DejaVuSans-74" transform="translate(138.28125 0)"/>
       <use xlink:href="#DejaVuSans-61" transform="translate(177.490234 0)"/>
       <use xlink:href="#DejaVuSans-50" transform="translate(238.769531 0)"/>
       <use xlink:href="#DejaVuSans-61" transform="translate(294.572266 0)"/>
       <use xlink:href="#DejaVuSans-72" transform="translate(355.851562 0)"/>
       <use xlink:href="#DejaVuSans-61" transform="translate(396.964844 0)"/>
       <use xlink:href="#DejaVuSans-6c" transform="translate(458.244141 0)"/>
       <use xlink:href="#DejaVuSans-6c" transform="translate(486.027344 0)"/>
       <use xlink:href="#DejaVuSans-65" transform="translate(513.810547 0)"/>
       <use xlink:href="#DejaVuSans-6c" transform="translate(575.333984 0)"/>
       <use xlink:href="#DejaVuSans-2c" transform="translate(603.117188 0)"/>
       <use xlink:href="#DejaVuSans-20" transform="translate(634.904297 0)"/>
       <use xlink:href="#DejaVuSans-32" transform="translate(666.691406 0)"/>
       <use xlink:href="#DejaVuSans-20" transform="translate(730.314453 0)"/>
       <use xlink:href="#DejaVuSans-47" transform="translate(762.101562 0)"/>
       <use xlink:href="#DejaVuSans-50" transform="translate(839.591797 0)"/>
       <use xlink:href="#DejaVuSans-55" transform="translate(899.894531 0)"/>
       <use xlink:href="#DejaVuSans-73" transform="translate(973.087891 0)"/>
       <use xlink:href="#DejaVuSans-2c" transform="translate(1025.1875 0)"/>
       <use xlink:href="#DejaVuSans-20" transform="translate(1056.974609 0)"/>
       <use xlink:href="#DejaVuSans-62" transform="translate(1088.761719 0)"/>
       <use xlink:href="#DejaVuSans-61" transform="translate(1152.238281 0)"/>
       <use xlink:href="#DejaVuSans-74" transform="translate(1213.517578 0)"/>
       <use xlink:href="#DejaVuSans-63" transform="translate(1252.726562 0)"/>
       <use xlink:href="#DejaVuSans-68" transform="translate(1307.707031 0)"/>
       <use xlink:href="#DejaVuSans-20" transform="translate(1371.085938 0)"/>
       <use xlink:href="#DejaVuSans-32" transform="translate(1402.873047 0)"/>
       <use xlink:href="#DejaVuSans-2c" transform="translate(1466.496094 0)"/>
       <use xlink:href="#DejaVuSans-30" transform="translate(1498.283203 0)"/>
       <use xlink:href="#DejaVuSans-34" transform="translate(1561.90625 0)"/>
       <use xlink:href="#DejaVuSans-38" transform="translate(1625.529297 0)"/>
      </g>
     </g>
    </g>
    <g id="ytick_5">
     <g id="line2d_19">
      <g>
       <use xlink:href="#ma44e8dff36" x="183.109375" y="91.261051" style="stroke: #000000; stroke-width: 0.8"/>
      </g>
     </g>
     <g id="text_13">
      <!-- Single GPU, 1 GPU, batch 2,048 -->
      <g transform="translate(17.701562 95.06027) scale(0.1 -0.1)">
       <defs>
        <path id="DejaVuSans-53" d="M 3425 4513 
L 3425 3897 
Q 3066 4069 2747 4153 
Q 2428 4238 2131 4238 
Q 1616 4238 1336 4038 
Q 1056 3838 1056 3469 
Q 1056 3159 1242 3001 
Q 1428 2844 1947 2747 
L 2328 2669 
Q 3034 2534 3370 2195 
Q 3706 1856 3706 1288 
Q 3706 609 3251 259 
Q 2797 -91 1919 -91 
Q 1588 -91 1214 -16 
Q 841 59 441 206 
L 441 856 
Q 825 641 1194 531 
Q 1563 422 1919 422 
Q 2459 422 2753 634 
Q 3047 847 3047 1241 
Q 3047 1584 2836 1778 
Q 2625 1972 2144 2069 
L 1759 2144 
Q 1053 2284 737 2584 
Q 422 2884 422 3419 
Q 422 4038 858 4394 
Q 1294 4750 2059 4750 
Q 2388 4750 2728 4690 
Q 3069 4631 3425 4513 
z
" transform="scale(0.015625)"/>
       </defs>
       <use xlink:href="#DejaVuSans-53"/>
       <use xlink:href="#DejaVuSans-69" transform="translate(63.476562 0)"/>
       <use xlink:href="#DejaVuSans-6e" transform="translate(91.259766 0)"/>
       <use xlink:href="#DejaVuSans-67" transform="translate(154.638672 0)"/>
       <use xlink:href="#DejaVuSans-6c" transform="translate(218.115234 0)"/>
       <use xlink:href="#DejaVuSans-65" transform="translate(245.898438 0)"/>
       <use xlink:href="#DejaVuSans-20" transform="translate(307.421875 0)"/>
       <use xlink:href="#DejaVuSans-47" transform="translate(339.208984 0)"/>
       <use xlink:href="#DejaVuSans-50" transform="translate(416.699219 0)"/>
       <use xlink:href="#DejaVuSans-55" transform="translate(477.001953 0)"/>
       <use xlink:href="#DejaVuSans-2c" transform="translate(550.195312 0)"/>
       <use xlink:href="#DejaVuSans-20" transform="translate(581.982422 0)"/>
       <use xlink:href="#DejaVuSans-31" transform="translate(613.769531 0)"/>
       <use xlink:href="#DejaVuSans-20" transform="translate(677.392578 0)"/>
       <use xlink:href="#DejaVuSans-47" transform="translate(709.179688 0)"/>
       <use xlink:href="#DejaVuSans-50" transform="translate(786.669922 0)"/>
       <use xlink:href="#DejaVuSans-55" transform="translate(846.972656 0)"/>
       <use xlink:href="#DejaVuSans-2c" transform="translate(920.166016 0)"/>
       <use xlink:href="#DejaVuSans-20" transform="translate(951.953125 0)"/>
       <use xlink:href="#DejaVuSans-62" transform="translate(983.740234 0)"/>
       <use xlink:href="#DejaVuSans-61" transform="translate(1047.216797 0)"/>
       <use xlink:href="#DejaVuSans-74" transform="translate(1108.496094 0)"/>
       <use xlink:href="#DejaVuSans-63" transform="translate(1147.705078 0)"/>
       <use xlink:href="#DejaVuSans-68" transform="translate(1202.685547 0)"/>
       <use xlink:href="#DejaVuSans-20" transform="translate(1266.064453 0)"/>
       <use xlink:href="#DejaVuSans-32" transform="translate(1297.851562 0)"/>
       <use xlink:href="#DejaVuSans-2c" transform="translate(1361.474609 0)"/>
       <use xlink:href="#DejaVuSans-30" transform="translate(1393.261719 0)"/>
       <use xlink:href="#DejaVuSans-34" transform="translate(1456.884766 0)"/>
       <use xlink:href="#DejaVuSans-38" transform="translate(1520.507812 0)"/>
      </g>
     </g>
    </g>
    <g id="ytick_6">
     <g id="line2d_20">
      <g>
       <use xlink:href="#ma44e8dff36" x="183.109375" y="48.519001" style="stroke: #000000; stroke-width: 0.8"/>
      </g>
     </g>
     <g id="text_14">
      <!-- Single GPU, 1 GPU, batch 1,024 -->
      <g transform="translate(17.701562 52.31822) scale(0.1 -0.1)">
       <use xlink:href="#DejaVuSans-53"/>
       <use xlink:href="#DejaVuSans-69" transform="translate(63.476562 0)"/>
       <use xlink:href="#DejaVuSans-6e" transform="translate(91.259766 0)"/>
       <use xlink:href="#DejaVuSans-67" transform="translate(154.638672 0)"/>
       <use xlink:href="#DejaVuSans-6c" transform="translate(218.115234 0)"/>
       <use xlink:href="#DejaVuSans-65" transform="translate(245.898438 0)"/>
       <use xlink:href="#DejaVuSans-20" transform="translate(307.421875 0)"/>
       <use xlink:href="#DejaVuSans-47" transform="translate(339.208984 0)"/>
       <use xlink:href="#DejaVuSans-50" transform="translate(416.699219 0)"/>
       <use xlink:href="#DejaVuSans-55" transform="translate(477.001953 0)"/>
       <use xlink:href="#DejaVuSans-2c" transform="translate(550.195312 0)"/>
       <use xlink:href="#DejaVuSans-20" transform="translate(581.982422 0)"/>
       <use xlink:href="#DejaVuSans-31" transform="translate(613.769531 0)"/>
       <use xlink:href="#DejaVuSans-20" transform="translate(677.392578 0)"/>
       <use xlink:href="#DejaVuSans-47" transform="translate(709.179688 0)"/>
       <use xlink:href="#DejaVuSans-50" transform="translate(786.669922 0)"/>
       <use xlink:href="#DejaVuSans-55" transform="translate(846.972656 0)"/>
       <use xlink:href="#DejaVuSans-2c" transform="translate(920.166016 0)"/>
       <use xlink:href="#DejaVuSans-20" transform="translate(951.953125 0)"/>
       <use xlink:href="#DejaVuSans-62" transform="translate(983.740234 0)"/>
       <use xlink:href="#DejaVuSans-61" transform="translate(1047.216797 0)"/>
       <use xlink:href="#DejaVuSans-74" transform="translate(1108.496094 0)"/>
       <use xlink:href="#DejaVuSans-63" transform="translate(1147.705078 0)"/>
       <use xlink:href="#DejaVuSans-68" transform="translate(1202.685547 0)"/>
       <use xlink:href="#DejaVuSans-20" transform="translate(1266.064453 0)"/>
       <use xlink:href="#DejaVuSans-31" transform="translate(1297.851562 0)"/>
       <use xlink:href="#DejaVuSans-2c" transform="translate(1361.474609 0)"/>
       <use xlink:href="#DejaVuSans-30" transform="translate(1393.261719 0)"/>
       <use xlink:href="#DejaVuSans-32" transform="translate(1456.884766 0)"/>
       <use xlink:href="#DejaVuSans-34" transform="translate(1520.507812 0)"/>
      </g>
     </g>
    </g>
   </g>
   <g id="patch_3">
    <path d="M 183.109375 276.334125 
L 625.661099 276.334125 
L 625.661099 248.124372 
L 183.109375 248.124372 
z
" clip-path="url(#pe6d0bdd114)" style="fill: #54a24b"/>
   </g>
   <g id="patch_4">
    <path d="M 183.109375 233.592076 
L 547.17245 233.592076 
L 547.17245 205.382323 
L 183.109375 205.382323 
z
" clip-path="url(#pe6d0bdd114)" style="fill: #54a24b"/>
   </g>
   <g id="patch_5">
    <path d="M 183.109375 190.850026 
L 294.022911 190.850026 
L 294.022911 162.640273 
L 183.109375 162.640273 
z
" clip-path="url(#pe6d0bdd114)" style="fill: #f58518"/>
   </g>
   <g id="patch_6">
    <path d="M 183.109375 148.107977 
L 326.60742 148.107977 
L 326.60742 119.898224 
L 183.109375 119.898224 
z
" clip-path="url(#pe6d0bdd114)" style="fill: #f58518"/>
   </g>
   <g id="patch_7">
    <path d="M 183.109375 105.365927 
L 351.81351 105.365927 
L 351.81351 77.156174 
L 183.109375 77.156174 
z
" clip-path="url(#pe6d0bdd114)" style="fill: #4c78a8"/>
   </g>
   <g id="patch_8">
    <path d="M 183.109375 62.623878 
L 367.904827 62.623878 
L 367.904827 34.414125 
L 183.109375 34.414125 
z
" clip-path="url(#pe6d0bdd114)" style="fill: #4c78a8"/>
   </g>
   <g id="line2d_21">
    <path d="M 367.904827 288.430125 
L 367.904827 22.318125 
" clip-path="url(#pe6d0bdd114)" style="fill: none; stroke-dasharray: 5.18,2.24; stroke-dashoffset: 0; stroke: #4c78a8; stroke-opacity: 0.8; stroke-width: 1.4"/>
   </g>
   <g id="patch_9">
    <path d="M 183.109375 288.430125 
L 183.109375 22.318125 
" style="fill: none; stroke: #000000; stroke-width: 0.8; stroke-linejoin: miter; stroke-linecap: square"/>
   </g>
   <g id="patch_10">
    <path d="M 183.109375 288.430125 
L 696.469375 288.430125 
" style="fill: none; stroke: #000000; stroke-width: 0.8; stroke-linejoin: miter; stroke-linecap: square"/>
   </g>
   <g id="text_15">
    <!-- 53.3k -->
    <g transform="translate(629.661099 264.988624) scale(0.1 -0.1)">
     <defs>
      <path id="DejaVuSans-2e" d="M 684 794 
L 1344 794 
L 1344 0 
L 684 0 
L 684 794 
z
" transform="scale(0.015625)"/>
      <path id="DejaVuSans-6b" d="M 581 4863 
L 1159 4863 
L 1159 1991 
L 2875 3500 
L 3609 3500 
L 1753 1863 
L 3688 0 
L 2938 0 
L 1159 1709 
L 1159 0 
L 581 0 
L 581 4863 
z
" transform="scale(0.015625)"/>
     </defs>
     <use xlink:href="#DejaVuSans-35"/>
     <use xlink:href="#DejaVuSans-33" transform="translate(63.623047 0)"/>
     <use xlink:href="#DejaVuSans-2e" transform="translate(127.246094 0)"/>
     <use xlink:href="#DejaVuSans-33" transform="translate(159.033203 0)"/>
     <use xlink:href="#DejaVuSans-6b" transform="translate(222.65625 0)"/>
    </g>
   </g>
   <g id="text_16">
    <!-- 43.8k -->
    <g transform="translate(551.17245 222.246574) scale(0.1 -0.1)">
     <use xlink:href="#DejaVuSans-34"/>
     <use xlink:href="#DejaVuSans-33" transform="translate(63.623047 0)"/>
     <use xlink:href="#DejaVuSans-2e" transform="translate(127.246094 0)"/>
     <use xlink:href="#DejaVuSans-38" transform="translate(159.033203 0)"/>
     <use xlink:href="#DejaVuSans-6b" transform="translate(222.65625 0)"/>
    </g>
   </g>
   <g id="text_17">
    <!-- 13.3k -->
    <g transform="translate(298.022911 179.504525) scale(0.1 -0.1)">
     <use xlink:href="#DejaVuSans-31"/>
     <use xlink:href="#DejaVuSans-33" transform="translate(63.623047 0)"/>
     <use xlink:href="#DejaVuSans-2e" transform="translate(127.246094 0)"/>
     <use xlink:href="#DejaVuSans-33" transform="translate(159.033203 0)"/>
     <use xlink:href="#DejaVuSans-6b" transform="translate(222.65625 0)"/>
    </g>
   </g>
   <g id="text_18">
    <!-- 17.3k -->
    <g transform="translate(330.60742 136.762475) scale(0.1 -0.1)">
     <defs>
      <path id="DejaVuSans-37" d="M 525 4666 
L 3525 4666 
L 3525 4397 
L 1831 0 
L 1172 0 
L 2766 4134 
L 525 4134 
L 525 4666 
z
" transform="scale(0.015625)"/>
     </defs>
     <use xlink:href="#DejaVuSans-31"/>
     <use xlink:href="#DejaVuSans-37" transform="translate(63.623047 0)"/>
     <use xlink:href="#DejaVuSans-2e" transform="translate(127.246094 0)"/>
     <use xlink:href="#DejaVuSans-33" transform="translate(159.033203 0)"/>
     <use xlink:href="#DejaVuSans-6b" transform="translate(222.65625 0)"/>
    </g>
   </g>
   <g id="text_19">
    <!-- 20.3k -->
    <g transform="translate(355.81351 94.020426) scale(0.1 -0.1)">
     <use xlink:href="#DejaVuSans-32"/>
     <use xlink:href="#DejaVuSans-30" transform="translate(63.623047 0)"/>
     <use xlink:href="#DejaVuSans-2e" transform="translate(127.246094 0)"/>
     <use xlink:href="#DejaVuSans-33" transform="translate(159.033203 0)"/>
     <use xlink:href="#DejaVuSans-6b" transform="translate(222.65625 0)"/>
    </g>
   </g>
   <g id="text_20">
    <!-- 22.2k -->
    <g transform="translate(371.904827 51.278376) scale(0.1 -0.1)">
     <use xlink:href="#DejaVuSans-32"/>
     <use xlink:href="#DejaVuSans-32" transform="translate(63.623047 0)"/>
     <use xlink:href="#DejaVuSans-2e" transform="translate(127.246094 0)"/>
     <use xlink:href="#DejaVuSans-32" transform="translate(159.033203 0)"/>
     <use xlink:href="#DejaVuSans-6b" transform="translate(222.65625 0)"/>
    </g>
   </g>
   <g id="text_21">
    <!-- DDP scales; single-process DataParallel does not -->
    <g transform="translate(273.955 16.318125) scale(0.12 -0.12)">
     <defs>
      <path id="DejaVuSans-Bold-44" d="M 1791 3756 
L 1791 909 
L 2222 909 
Q 2959 909 3348 1275 
Q 3738 1641 3738 2338 
Q 3738 3031 3350 3393 
Q 2963 3756 2222 3756 
L 1791 3756 
z
M 588 4666 
L 1856 4666 
Q 2919 4666 3439 4514 
Q 3959 4363 4331 4000 
Q 4659 3684 4818 3271 
Q 4978 2859 4978 2338 
Q 4978 1809 4818 1395 
Q 4659 981 4331 666 
Q 3956 303 3431 151 
Q 2906 0 1856 0 
L 588 0 
L 588 4666 
z
" transform="scale(0.015625)"/>
      <path id="DejaVuSans-Bold-50" d="M 588 4666 
L 2584 4666 
Q 3475 4666 3951 4270 
Q 4428 3875 4428 3144 
Q 4428 2409 3951 2014 
Q 3475 1619 2584 1619 
L 1791 1619 
L 1791 0 
L 588 0 
L 588 4666 
z
M 1791 3794 
L 1791 2491 
L 2456 2491 
Q 2806 2491 2997 2661 
Q 3188 2831 3188 3144 
Q 3188 3456 2997 3625 
Q 2806 3794 2456 3794 
L 1791 3794 
z
" transform="scale(0.015625)"/>
      <path id="DejaVuSans-Bold-20" transform="scale(0.015625)"/>
      <path id="DejaVuSans-Bold-73" d="M 3272 3391 
L 3272 2541 
Q 2913 2691 2578 2766 
Q 2244 2841 1947 2841 
Q 1628 2841 1473 2761 
Q 1319 2681 1319 2516 
Q 1319 2381 1436 2309 
Q 1553 2238 1856 2203 
L 2053 2175 
Q 2913 2066 3209 1816 
Q 3506 1566 3506 1031 
Q 3506 472 3093 190 
Q 2681 -91 1863 -91 
Q 1516 -91 1145 -36 
Q 775 19 384 128 
L 384 978 
Q 719 816 1070 734 
Q 1422 653 1784 653 
Q 2113 653 2278 743 
Q 2444 834 2444 1013 
Q 2444 1163 2330 1236 
Q 2216 1309 1875 1350 
L 1678 1375 
Q 931 1469 631 1722 
Q 331 1975 331 2491 
Q 331 3047 712 3315 
Q 1094 3584 1881 3584 
Q 2191 3584 2531 3537 
Q 2872 3491 3272 3391 
z
" transform="scale(0.015625)"/>
      <path id="DejaVuSans-Bold-63" d="M 3366 3391 
L 3366 2478 
Q 3138 2634 2908 2709 
Q 2678 2784 2431 2784 
Q 1963 2784 1702 2511 
Q 1441 2238 1441 1747 
Q 1441 1256 1702 982 
Q 1963 709 2431 709 
Q 2694 709 2930 787 
Q 3166 866 3366 1019 
L 3366 103 
Q 3103 6 2833 -42 
Q 2563 -91 2291 -91 
Q 1344 -91 809 395 
Q 275 881 275 1747 
Q 275 2613 809 3098 
Q 1344 3584 2291 3584 
Q 2566 3584 2833 3536 
Q 3100 3488 3366 3391 
z
" transform="scale(0.015625)"/>
      <path id="DejaVuSans-Bold-61" d="M 2106 1575 
Q 1756 1575 1579 1456 
Q 1403 1338 1403 1106 
Q 1403 894 1545 773 
Q 1688 653 1941 653 
Q 2256 653 2472 879 
Q 2688 1106 2688 1447 
L 2688 1575 
L 2106 1575 
z
M 3816 1997 
L 3816 0 
L 2688 0 
L 2688 519 
Q 2463 200 2181 54 
Q 1900 -91 1497 -91 
Q 953 -91 614 226 
Q 275 544 275 1050 
Q 275 1666 698 1953 
Q 1122 2241 2028 2241 
L 2688 2241 
L 2688 2328 
Q 2688 2594 2478 2717 
Q 2269 2841 1825 2841 
Q 1466 2841 1156 2769 
Q 847 2697 581 2553 
L 581 3406 
Q 941 3494 1303 3539 
Q 1666 3584 2028 3584 
Q 2975 3584 3395 3211 
Q 3816 2838 3816 1997 
z
" transform="scale(0.015625)"/>
      <path id="DejaVuSans-Bold-6c" d="M 538 4863 
L 1656 4863 
L 1656 0 
L 538 0 
L 538 4863 
z
" transform="scale(0.015625)"/>
      <path id="DejaVuSans-Bold-65" d="M 4031 1759 
L 4031 1441 
L 1416 1441 
Q 1456 1047 1700 850 
Q 1944 653 2381 653 
Q 2734 653 3104 758 
Q 3475 863 3866 1075 
L 3866 213 
Q 3469 63 3072 -14 
Q 2675 -91 2278 -91 
Q 1328 -91 801 392 
Q 275 875 275 1747 
Q 275 2603 792 3093 
Q 1309 3584 2216 3584 
Q 3041 3584 3536 3087 
Q 4031 2591 4031 1759 
z
M 2881 2131 
Q 2881 2450 2695 2645 
Q 2509 2841 2209 2841 
Q 1884 2841 1681 2658 
Q 1478 2475 1428 2131 
L 2881 2131 
z
" transform="scale(0.015625)"/>
      <path id="DejaVuSans-Bold-3b" d="M 716 1209 
L 1844 1209 
L 1844 256 
L 1069 -909 
L 403 -909 
L 716 256 
L 716 1209 
z
M 716 3500 
L 1844 3500 
L 1844 2291 
L 716 2291 
L 716 3500 
z
" transform="scale(0.015625)"/>
      <path id="DejaVuSans-Bold-69" d="M 538 3500 
L 1656 3500 
L 1656 0 
L 538 0 
L 538 3500 
z
M 538 4863 
L 1656 4863 
L 1656 3950 
L 538 3950 
L 538 4863 
z
" transform="scale(0.015625)"/>
      <path id="DejaVuSans-Bold-6e" d="M 4056 2131 
L 4056 0 
L 2931 0 
L 2931 347 
L 2931 1631 
Q 2931 2084 2911 2256 
Q 2891 2428 2841 2509 
Q 2775 2619 2662 2680 
Q 2550 2741 2406 2741 
Q 2056 2741 1856 2470 
Q 1656 2200 1656 1722 
L 1656 0 
L 538 0 
L 538 3500 
L 1656 3500 
L 1656 2988 
Q 1909 3294 2193 3439 
Q 2478 3584 2822 3584 
Q 3428 3584 3742 3212 
Q 4056 2841 4056 2131 
z
" transform="scale(0.015625)"/>
      <path id="DejaVuSans-Bold-67" d="M 2919 594 
Q 2688 288 2409 144 
Q 2131 0 1766 0 
Q 1125 0 706 504 
Q 288 1009 288 1791 
Q 288 2575 706 3076 
Q 1125 3578 1766 3578 
Q 2131 3578 2409 3434 
Q 2688 3291 2919 2981 
L 2919 3500 
L 4044 3500 
L 4044 353 
Q 4044 -491 3511 -936 
Q 2978 -1381 1966 -1381 
Q 1638 -1381 1331 -1331 
Q 1025 -1281 716 -1178 
L 716 -306 
Q 1009 -475 1290 -558 
Q 1572 -641 1856 -641 
Q 2406 -641 2662 -400 
Q 2919 -159 2919 353 
L 2919 594 
z
M 2181 2772 
Q 1834 2772 1640 2515 
Q 1447 2259 1447 1791 
Q 1447 1309 1634 1061 
Q 1822 813 2181 813 
Q 2531 813 2725 1069 
Q 2919 1325 2919 1791 
Q 2919 2259 2725 2515 
Q 2531 2772 2181 2772 
z
" transform="scale(0.015625)"/>
      <path id="DejaVuSans-Bold-2d" d="M 347 2297 
L 2309 2297 
L 2309 1388 
L 347 1388 
L 347 2297 
z
" transform="scale(0.015625)"/>
      <path id="DejaVuSans-Bold-70" d="M 1656 506 
L 1656 -1331 
L 538 -1331 
L 538 3500 
L 1656 3500 
L 1656 2988 
Q 1888 3294 2169 3439 
Q 2450 3584 2816 3584 
Q 3463 3584 3878 3070 
Q 4294 2556 4294 1747 
Q 4294 938 3878 423 
Q 3463 -91 2816 -91 
Q 2450 -91 2169 54 
Q 1888 200 1656 506 
z
M 2400 2772 
Q 2041 2772 1848 2508 
Q 1656 2244 1656 1747 
Q 1656 1250 1848 986 
Q 2041 722 2400 722 
Q 2759 722 2948 984 
Q 3138 1247 3138 1747 
Q 3138 2247 2948 2509 
Q 2759 2772 2400 2772 
z
" transform="scale(0.015625)"/>
      <path id="DejaVuSans-Bold-72" d="M 3138 2547 
Q 2991 2616 2845 2648 
Q 2700 2681 2553 2681 
Q 2122 2681 1889 2404 
Q 1656 2128 1656 1613 
L 1656 0 
L 538 0 
L 538 3500 
L 1656 3500 
L 1656 2925 
Q 1872 3269 2151 3426 
Q 2431 3584 2822 3584 
Q 2878 3584 2943 3579 
Q 3009 3575 3134 3559 
L 3138 2547 
z
" transform="scale(0.015625)"/>
      <path id="DejaVuSans-Bold-6f" d="M 2203 2784 
Q 1831 2784 1636 2517 
Q 1441 2250 1441 1747 
Q 1441 1244 1636 976 
Q 1831 709 2203 709 
Q 2569 709 2762 976 
Q 2956 1244 2956 1747 
Q 2956 2250 2762 2517 
Q 2569 2784 2203 2784 
z
M 2203 3584 
Q 3106 3584 3614 3096 
Q 4122 2609 4122 1747 
Q 4122 884 3614 396 
Q 3106 -91 2203 -91 
Q 1297 -91 786 396 
Q 275 884 275 1747 
Q 275 2609 786 3096 
Q 1297 3584 2203 3584 
z
" transform="scale(0.015625)"/>
      <path id="DejaVuSans-Bold-74" d="M 1759 4494 
L 1759 3500 
L 2913 3500 
L 2913 2700 
L 1759 2700 
L 1759 1216 
Q 1759 972 1856 886 
Q 1953 800 2241 800 
L 2816 800 
L 2816 0 
L 1856 0 
Q 1194 0 917 276 
Q 641 553 641 1216 
L 641 2700 
L 84 2700 
L 84 3500 
L 641 3500 
L 641 4494 
L 1759 4494 
z
" transform="scale(0.015625)"/>
      <path id="DejaVuSans-Bold-64" d="M 2919 2988 
L 2919 4863 
L 4044 4863 
L 4044 0 
L 2919 0 
L 2919 506 
Q 2688 197 2409 53 
Q 2131 -91 1766 -91 
Q 1119 -91 703 423 
Q 288 938 288 1747 
Q 288 2556 703 3070 
Q 1119 3584 1766 3584 
Q 2128 3584 2408 3439 
Q 2688 3294 2919 2988 
z
M 2181 722 
Q 2541 722 2730 984 
Q 2919 1247 2919 1747 
Q 2919 2247 2730 2509 
Q 2541 2772 2181 2772 
Q 1825 2772 1636 2509 
Q 1447 2247 1447 1747 
Q 1447 1247 1636 984 
Q 1825 722 2181 722 
z
" transform="scale(0.015625)"/>
     </defs>
     <use xlink:href="#DejaVuSans-Bold-44"/>
     <use xlink:href="#DejaVuSans-Bold-44" transform="translate(83.007812 0)"/>
     <use xlink:href="#DejaVuSans-Bold-50" transform="translate(166.015625 0)"/>
     <use xlink:href="#DejaVuSans-Bold-20" transform="translate(239.306641 0)"/>
     <use xlink:href="#DejaVuSans-Bold-73" transform="translate(274.121094 0)"/>
     <use xlink:href="#DejaVuSans-Bold-63" transform="translate(333.642578 0)"/>
     <use xlink:href="#DejaVuSans-Bold-61" transform="translate(392.919922 0)"/>
     <use xlink:href="#DejaVuSans-Bold-6c" transform="translate(460.400391 0)"/>
     <use xlink:href="#DejaVuSans-Bold-65" transform="translate(494.677734 0)"/>
     <use xlink:href="#DejaVuSans-Bold-73" transform="translate(562.5 0)"/>
     <use xlink:href="#DejaVuSans-Bold-3b" transform="translate(622.021484 0)"/>
     <use xlink:href="#DejaVuSans-Bold-20" transform="translate(662.011719 0)"/>
     <use xlink:href="#DejaVuSans-Bold-73" transform="translate(696.826172 0)"/>
     <use xlink:href="#DejaVuSans-Bold-69" transform="translate(756.347656 0)"/>
     <use xlink:href="#DejaVuSans-Bold-6e" transform="translate(790.625 0)"/>
     <use xlink:href="#DejaVuSans-Bold-67" transform="translate(861.816406 0)"/>
     <use xlink:href="#DejaVuSans-Bold-6c" transform="translate(933.398438 0)"/>
     <use xlink:href="#DejaVuSans-Bold-65" transform="translate(967.675781 0)"/>
     <use xlink:href="#DejaVuSans-Bold-2d" transform="translate(1035.498047 0)"/>
     <use xlink:href="#DejaVuSans-Bold-70" transform="translate(1077.001953 0)"/>
     <use xlink:href="#DejaVuSans-Bold-72" transform="translate(1148.583984 0)"/>
     <use xlink:href="#DejaVuSans-Bold-6f" transform="translate(1197.900391 0)"/>
     <use xlink:href="#DejaVuSans-Bold-63" transform="translate(1266.601562 0)"/>
     <use xlink:href="#DejaVuSans-Bold-65" transform="translate(1325.878906 0)"/>
     <use xlink:href="#DejaVuSans-Bold-73" transform="translate(1393.701172 0)"/>
     <use xlink:href="#DejaVuSans-Bold-73" transform="translate(1453.222656 0)"/>
     <use xlink:href="#DejaVuSans-Bold-20" transform="translate(1512.744141 0)"/>
     <use xlink:href="#DejaVuSans-Bold-44" transform="translate(1547.558594 0)"/>
     <use xlink:href="#DejaVuSans-Bold-61" transform="translate(1630.566406 0)"/>
     <use xlink:href="#DejaVuSans-Bold-74" transform="translate(1698.046875 0)"/>
     <use xlink:href="#DejaVuSans-Bold-61" transform="translate(1745.849609 0)"/>
     <use xlink:href="#DejaVuSans-Bold-50" transform="translate(1813.330078 0)"/>
     <use xlink:href="#DejaVuSans-Bold-61" transform="translate(1883.996094 0)"/>
     <use xlink:href="#DejaVuSans-Bold-72" transform="translate(1951.476562 0)"/>
     <use xlink:href="#DejaVuSans-Bold-61" transform="translate(2000.792969 0)"/>
     <use xlink:href="#DejaVuSans-Bold-6c" transform="translate(2068.273438 0)"/>
     <use xlink:href="#DejaVuSans-Bold-6c" transform="translate(2102.550781 0)"/>
     <use xlink:href="#DejaVuSans-Bold-65" transform="translate(2136.828125 0)"/>
     <use xlink:href="#DejaVuSans-Bold-6c" transform="translate(2204.650391 0)"/>
     <use xlink:href="#DejaVuSans-Bold-20" transform="translate(2238.927734 0)"/>
     <use xlink:href="#DejaVuSans-Bold-64" transform="translate(2273.742188 0)"/>
     <use xlink:href="#DejaVuSans-Bold-6f" transform="translate(2345.324219 0)"/>
     <use xlink:href="#DejaVuSans-Bold-65" transform="translate(2414.025391 0)"/>
     <use xlink:href="#DejaVuSans-Bold-73" transform="translate(2481.847656 0)"/>
     <use xlink:href="#DejaVuSans-Bold-20" transform="translate(2541.369141 0)"/>
     <use xlink:href="#DejaVuSans-Bold-6e" transform="translate(2576.183594 0)"/>
     <use xlink:href="#DejaVuSans-Bold-6f" transform="translate(2647.375 0)"/>
     <use xlink:href="#DejaVuSans-Bold-74" transform="translate(2716.076172 0)"/>
    </g>
   </g>
   <g id="legend_1">
    <g id="line2d_22">
     <path d="M 494.9475 273.850437 
L 504.9475 273.850437 
L 514.9475 273.850437 
" style="fill: none; stroke-dasharray: 5.18,2.24; stroke-dashoffset: 0; stroke: #4c78a8; stroke-opacity: 0.8; stroke-width: 1.4"/>
    </g>
    <g id="text_22">
     <!-- Single-GPU batch-1,024 baseline -->
     <g transform="translate(522.9475 277.350437) scale(0.1 -0.1)">
      <defs>
       <path id="DejaVuSans-2d" d="M 313 2009 
L 1997 2009 
L 1997 1497 
L 313 1497 
L 313 2009 
z
" transform="scale(0.015625)"/>
      </defs>
      <use xlink:href="#DejaVuSans-53"/>
      <use xlink:href="#DejaVuSans-69" transform="translate(63.476562 0)"/>
      <use xlink:href="#DejaVuSans-6e" transform="translate(91.259766 0)"/>
      <use xlink:href="#DejaVuSans-67" transform="translate(154.638672 0)"/>
      <use xlink:href="#DejaVuSans-6c" transform="translate(218.115234 0)"/>
      <use xlink:href="#DejaVuSans-65" transform="translate(245.898438 0)"/>
      <use xlink:href="#DejaVuSans-2d" transform="translate(307.421875 0)"/>
      <use xlink:href="#DejaVuSans-47" transform="translate(347.130859 0)"/>
      <use xlink:href="#DejaVuSans-50" transform="translate(424.621094 0)"/>
      <use xlink:href="#DejaVuSans-55" transform="translate(484.923828 0)"/>
      <use xlink:href="#DejaVuSans-20" transform="translate(558.117188 0)"/>
      <use xlink:href="#DejaVuSans-62" transform="translate(589.904297 0)"/>
      <use xlink:href="#DejaVuSans-61" transform="translate(653.380859 0)"/>
      <use xlink:href="#DejaVuSans-74" transform="translate(714.660156 0)"/>
      <use xlink:href="#DejaVuSans-63" transform="translate(753.869141 0)"/>
      <use xlink:href="#DejaVuSans-68" transform="translate(808.849609 0)"/>
      <use xlink:href="#DejaVuSans-2d" transform="translate(872.228516 0)"/>
      <use xlink:href="#DejaVuSans-31" transform="translate(908.3125 0)"/>
      <use xlink:href="#DejaVuSans-2c" transform="translate(971.935547 0)"/>
      <use xlink:href="#DejaVuSans-30" transform="translate(1003.722656 0)"/>
      <use xlink:href="#DejaVuSans-32" transform="translate(1067.345703 0)"/>
      <use xlink:href="#DejaVuSans-34" transform="translate(1130.96875 0)"/>
      <use xlink:href="#DejaVuSans-20" transform="translate(1194.591797 0)"/>
      <use xlink:href="#DejaVuSans-62" transform="translate(1226.378906 0)"/>
      <use xlink:href="#DejaVuSans-61" transform="translate(1289.855469 0)"/>
      <use xlink:href="#DejaVuSans-73" transform="translate(1351.134766 0)"/>
      <use xlink:href="#DejaVuSans-65" transform="translate(1403.234375 0)"/>
      <use xlink:href="#DejaVuSans-6c" transform="translate(1464.757812 0)"/>
      <use xlink:href="#DejaVuSans-69" transform="translate(1492.541016 0)"/>
      <use xlink:href="#DejaVuSans-6e" transform="translate(1520.324219 0)"/>
      <use xlink:href="#DejaVuSans-65" transform="translate(1583.703125 0)"/>
     </g>
    </g>
   </g>
  </g>
  <g id="text_23">
   <!-- 12×112 network, BF16, resident synthetic batches; DDP ranks intentionally received duplicate samples. -->
   <g style="fill: #555555" transform="translate(106.933375 333.358125) scale(0.085 -0.085)">
    <defs>
     <path id="DejaVuSans-d7" d="M 4488 3438 
L 3059 2003 
L 4488 575 
L 4116 197 
L 2681 1631 
L 1247 197 
L 878 575 
L 2303 2003 
L 878 3438 
L 1247 3816 
L 2681 2381 
L 4116 3816 
L 4488 3438 
z
" transform="scale(0.015625)"/>
     <path id="DejaVuSans-77" d="M 269 3500 
L 844 3500 
L 1563 769 
L 2278 3500 
L 2956 3500 
L 3675 769 
L 4391 3500 
L 4966 3500 
L 4050 0 
L 3372 0 
L 2619 2869 
L 1863 0 
L 1184 0 
L 269 3500 
z
" transform="scale(0.015625)"/>
     <path id="DejaVuSans-42" d="M 1259 2228 
L 1259 519 
L 2272 519 
Q 2781 519 3026 730 
Q 3272 941 3272 1375 
Q 3272 1813 3026 2020 
Q 2781 2228 2272 2228 
L 1259 2228 
z
M 1259 4147 
L 1259 2741 
L 2194 2741 
Q 2656 2741 2882 2914 
Q 3109 3088 3109 3444 
Q 3109 3797 2882 3972 
Q 2656 4147 2194 4147 
L 1259 4147 
z
M 628 4666 
L 2241 4666 
Q 2963 4666 3353 4366 
Q 3744 4066 3744 3513 
Q 3744 3084 3544 2831 
Q 3344 2578 2956 2516 
Q 3422 2416 3680 2098 
Q 3938 1781 3938 1306 
Q 3938 681 3513 340 
Q 3088 0 2303 0 
L 628 0 
L 628 4666 
z
" transform="scale(0.015625)"/>
     <path id="DejaVuSans-46" d="M 628 4666 
L 3309 4666 
L 3309 4134 
L 1259 4134 
L 1259 2759 
L 3109 2759 
L 3109 2228 
L 1259 2228 
L 1259 0 
L 628 0 
L 628 4666 
z
" transform="scale(0.015625)"/>
     <path id="DejaVuSans-3b" d="M 750 3309 
L 1409 3309 
L 1409 2516 
L 750 2516 
L 750 3309 
z
M 750 794 
L 1409 794 
L 1409 256 
L 897 -744 
L 494 -744 
L 750 256 
L 750 794 
z
" transform="scale(0.015625)"/>
     <path id="DejaVuSans-76" d="M 191 3500 
L 800 3500 
L 1894 563 
L 2988 3500 
L 3597 3500 
L 2284 0 
L 1503 0 
L 191 3500 
z
" transform="scale(0.015625)"/>
    </defs>
    <use xlink:href="#DejaVuSans-31"/>
    <use xlink:href="#DejaVuSans-32" transform="translate(63.623047 0)"/>
    <use xlink:href="#DejaVuSans-d7" transform="translate(127.246094 0)"/>
    <use xlink:href="#DejaVuSans-31" transform="translate(211.035156 0)"/>
    <use xlink:href="#DejaVuSans-31" transform="translate(274.658203 0)"/>
    <use xlink:href="#DejaVuSans-32" transform="translate(338.28125 0)"/>
    <use xlink:href="#DejaVuSans-20" transform="translate(401.904297 0)"/>
    <use xlink:href="#DejaVuSans-6e" transform="translate(433.691406 0)"/>
    <use xlink:href="#DejaVuSans-65" transform="translate(497.070312 0)"/>
    <use xlink:href="#DejaVuSans-74" transform="translate(558.59375 0)"/>
    <use xlink:href="#DejaVuSans-77" transform="translate(597.802734 0)"/>
    <use xlink:href="#DejaVuSans-6f" transform="translate(679.589844 0)"/>
    <use xlink:href="#DejaVuSans-72" transform="translate(740.771484 0)"/>
    <use xlink:href="#DejaVuSans-6b" transform="translate(781.884766 0)"/>
    <use xlink:href="#DejaVuSans-2c" transform="translate(839.794922 0)"/>
    <use xlink:href="#DejaVuSans-20" transform="translate(871.582031 0)"/>
    <use xlink:href="#DejaVuSans-42" transform="translate(903.369141 0)"/>
    <use xlink:href="#DejaVuSans-46" transform="translate(971.972656 0)"/>
    <use xlink:href="#DejaVuSans-31" transform="translate(1029.492188 0)"/>
    <use xlink:href="#DejaVuSans-36" transform="translate(1093.115234 0)"/>
    <use xlink:href="#DejaVuSans-2c" transform="translate(1156.738281 0)"/>
    <use xlink:href="#DejaVuSans-20" transform="translate(1188.525391 0)"/>
    <use xlink:href="#DejaVuSans-72" transform="translate(1220.3125 0)"/>
    <use xlink:href="#DejaVuSans-65" transform="translate(1259.175781 0)"/>
    <use xlink:href="#DejaVuSans-73" transform="translate(1320.699219 0)"/>
    <use xlink:href="#DejaVuSans-69" transform="translate(1372.798828 0)"/>
    <use xlink:href="#DejaVuSans-64" transform="translate(1400.582031 0)"/>
    <use xlink:href="#DejaVuSans-65" transform="translate(1464.058594 0)"/>
    <use xlink:href="#DejaVuSans-6e" transform="translate(1525.582031 0)"/>
    <use xlink:href="#DejaVuSans-74" transform="translate(1588.960938 0)"/>
    <use xlink:href="#DejaVuSans-20" transform="translate(1628.169922 0)"/>
    <use xlink:href="#DejaVuSans-73" transform="translate(1659.957031 0)"/>
    <use xlink:href="#DejaVuSans-79" transform="translate(1712.056641 0)"/>
    <use xlink:href="#DejaVuSans-6e" transform="translate(1771.236328 0)"/>
    <use xlink:href="#DejaVuSans-74" transform="translate(1834.615234 0)"/>
    <use xlink:href="#DejaVuSans-68" transform="translate(1873.824219 0)"/>
    <use xlink:href="#DejaVuSans-65" transform="translate(1937.203125 0)"/>
    <use xlink:href="#DejaVuSans-74" transform="translate(1998.726562 0)"/>
    <use xlink:href="#DejaVuSans-69" transform="translate(2037.935547 0)"/>
    <use xlink:href="#DejaVuSans-63" transform="translate(2065.71875 0)"/>
    <use xlink:href="#DejaVuSans-20" transform="translate(2120.699219 0)"/>
    <use xlink:href="#DejaVuSans-62" transform="translate(2152.486328 0)"/>
    <use xlink:href="#DejaVuSans-61" transform="translate(2215.962891 0)"/>
    <use xlink:href="#DejaVuSans-74" transform="translate(2277.242188 0)"/>
    <use xlink:href="#DejaVuSans-63" transform="translate(2316.451172 0)"/>
    <use xlink:href="#DejaVuSans-68" transform="translate(2371.431641 0)"/>
    <use xlink:href="#DejaVuSans-65" transform="translate(2434.810547 0)"/>
    <use xlink:href="#DejaVuSans-73" transform="translate(2496.333984 0)"/>
    <use xlink:href="#DejaVuSans-3b" transform="translate(2548.433594 0)"/>
    <use xlink:href="#DejaVuSans-20" transform="translate(2582.125 0)"/>
    <use xlink:href="#DejaVuSans-44" transform="translate(2613.912109 0)"/>
    <use xlink:href="#DejaVuSans-44" transform="translate(2690.914062 0)"/>
    <use xlink:href="#DejaVuSans-50" transform="translate(2767.916016 0)"/>
    <use xlink:href="#DejaVuSans-20" transform="translate(2828.21875 0)"/>
    <use xlink:href="#DejaVuSans-72" transform="translate(2860.005859 0)"/>
    <use xlink:href="#DejaVuSans-61" transform="translate(2901.119141 0)"/>
    <use xlink:href="#DejaVuSans-6e" transform="translate(2962.398438 0)"/>
    <use xlink:href="#DejaVuSans-6b" transform="translate(3025.777344 0)"/>
    <use xlink:href="#DejaVuSans-73" transform="translate(3083.6875 0)"/>
    <use xlink:href="#DejaVuSans-20" transform="translate(3135.787109 0)"/>
    <use xlink:href="#DejaVuSans-69" transform="translate(3167.574219 0)"/>
    <use xlink:href="#DejaVuSans-6e" transform="translate(3195.357422 0)"/>
    <use xlink:href="#DejaVuSans-74" transform="translate(3258.736328 0)"/>
    <use xlink:href="#DejaVuSans-65" transform="translate(3297.945312 0)"/>
    <use xlink:href="#DejaVuSans-6e" transform="translate(3359.46875 0)"/>
    <use xlink:href="#DejaVuSans-74" transform="translate(3422.847656 0)"/>
    <use xlink:href="#DejaVuSans-69" transform="translate(3462.056641 0)"/>
    <use xlink:href="#DejaVuSans-6f" transform="translate(3489.839844 0)"/>
    <use xlink:href="#DejaVuSans-6e" transform="translate(3551.021484 0)"/>
    <use xlink:href="#DejaVuSans-61" transform="translate(3614.400391 0)"/>
    <use xlink:href="#DejaVuSans-6c" transform="translate(3675.679688 0)"/>
    <use xlink:href="#DejaVuSans-6c" transform="translate(3703.462891 0)"/>
    <use xlink:href="#DejaVuSans-79" transform="translate(3731.246094 0)"/>
    <use xlink:href="#DejaVuSans-20" transform="translate(3790.425781 0)"/>
    <use xlink:href="#DejaVuSans-72" transform="translate(3822.212891 0)"/>
    <use xlink:href="#DejaVuSans-65" transform="translate(3861.076172 0)"/>
    <use xlink:href="#DejaVuSans-63" transform="translate(3922.599609 0)"/>
    <use xlink:href="#DejaVuSans-65" transform="translate(3977.580078 0)"/>
    <use xlink:href="#DejaVuSans-69" transform="translate(4039.103516 0)"/>
    <use xlink:href="#DejaVuSans-76" transform="translate(4066.886719 0)"/>
    <use xlink:href="#DejaVuSans-65" transform="translate(4126.066406 0)"/>
    <use xlink:href="#DejaVuSans-64" transform="translate(4187.589844 0)"/>
    <use xlink:href="#DejaVuSans-20" transform="translate(4251.066406 0)"/>
    <use xlink:href="#DejaVuSans-64" transform="translate(4282.853516 0)"/>
    <use xlink:href="#DejaVuSans-75" transform="translate(4346.330078 0)"/>
    <use xlink:href="#DejaVuSans-70" transform="translate(4409.708984 0)"/>
    <use xlink:href="#DejaVuSans-6c" transform="translate(4473.185547 0)"/>
    <use xlink:href="#DejaVuSans-69" transform="translate(4500.96875 0)"/>
    <use xlink:href="#DejaVuSans-63" transform="translate(4528.751953 0)"/>
    <use xlink:href="#DejaVuSans-61" transform="translate(4583.732422 0)"/>
    <use xlink:href="#DejaVuSans-74" transform="translate(4645.011719 0)"/>
    <use xlink:href="#DejaVuSans-65" transform="translate(4684.220703 0)"/>
    <use xlink:href="#DejaVuSans-20" transform="translate(4745.744141 0)"/>
    <use xlink:href="#DejaVuSans-73" transform="translate(4777.53125 0)"/>
    <use xlink:href="#DejaVuSans-61" transform="translate(4829.630859 0)"/>
    <use xlink:href="#DejaVuSans-6d" transform="translate(4890.910156 0)"/>
    <use xlink:href="#DejaVuSans-70" transform="translate(4988.322266 0)"/>
    <use xlink:href="#DejaVuSans-6c" transform="translate(5051.798828 0)"/>
    <use xlink:href="#DejaVuSans-65" transform="translate(5079.582031 0)"/>
    <use xlink:href="#DejaVuSans-73" transform="translate(5141.105469 0)"/>
    <use xlink:href="#DejaVuSans-2e" transform="translate(5193.205078 0)"/>
   </g>
  </g>
 </g>
 <defs>
  <clipPath id="pe6d0bdd114">
   <rect x="183.109375" y="22.318125" width="513.36" height="266.112"/>
  </clipPath>
 </defs>
</svg>
